<?xml version="1.0" encoding="UTF-8"?>
<svg version="1.1" xmlns="http://www.w3.org/2000/svg" width="500" height="500">
<path d="M0 0 C165 0 330 0 500 0 C500 165 500 330 500 500 C335 500 170 500 0 500 C0 335 0 170 0 0 Z " fill="#D8D8D8" transform="translate(0,0)"/>
<path d="M0 0 C19.49863421 0.07513925 36.62929612 9.4916504 51 22 C51.33 21.01 51.66 20.02 52 19 C52 20.65 52 22.3 52 24 C53.98 24 55.96 24 58 24 C56.02 25.485 56.02 25.485 54 27 C54.32613281 27.59425781 54.65226563 28.18851563 54.98828125 28.80078125 C59.86102749 38.04318783 62.51583171 46.51142192 62 57 C62.66 57 63.32 57 64 57 C64.33 55.68 64.66 54.36 65 53 C65 54.98 65 56.96 65 59 C64.34 59 63.68 59 63 59 C63.03480469 59.87140625 63.06960938 60.7428125 63.10546875 61.640625 C63.43307175 76.05515698 59.7149199 86.56360041 53 99 C56.3 98.67 59.6 98.34 63 98 C65.24976836 92.16276317 66.12331033 86.14369662 67.125 80 C67.30675781 78.93265625 67.48851562 77.8653125 67.67578125 76.765625 C67.84722656 75.72921875 68.01867187 74.6928125 68.1953125 73.625 C68.42758545 72.22121094 68.42758545 72.22121094 68.66455078 70.7890625 C69.0205131 67.82944566 69.05282096 64.97848693 69 62 C69 61.01 69 60.02 69 59 C71.97 58.505 71.97 58.505 75 58 C75 62 75 62 73.57788086 64.31811523 C71.67155217 67.55825458 71.27286392 70.19398209 70.75390625 73.91015625 C70.55430432 75.24287869 70.35442622 76.57555979 70.15429688 77.90820312 C69.85501275 79.98991235 69.56115757 82.07221193 69.27319336 84.15551758 C68.98919349 86.18023876 68.68509117 88.20118899 68.37890625 90.22265625 C68.12475952 92.02875366 68.12475952 92.02875366 67.86547852 93.87133789 C66.89106277 97.39380271 65.88536792 98.8020069 63 101 C59.94140625 101.43359375 59.94140625 101.43359375 56.5625 101.4375 C51.43449409 101.6031103 51.43449409 101.6031103 47.125 104.1875 C46.42375 105.115625 45.7225 106.04375 45 107 C38.41158814 113.58841186 30.32857271 117.06067509 22 121 C24.64960845 123.0363283 27.35273787 124.8590826 30.1875 126.625 C36.91452898 131.09486058 44.47096133 137.07567882 47 145 C47.93860642 152.03954818 46.04822947 157.1963436 42 163 C38.85356204 166.24664299 35.47740478 169.11787976 32 172 C30.98583322 172.98562962 29.97898825 173.97942075 29 175 C29.27714844 175.54269531 29.55429687 176.08539063 29.83984375 176.64453125 C30.20207031 177.35996094 30.56429687 178.07539063 30.9375 178.8125 C31.29714844 179.52019531 31.65679687 180.22789062 32.02734375 180.95703125 C34.91285619 187.01776622 34.75009434 193.43121269 34 200 C31.39917344 206.19975631 25.97646652 210.20021388 20 213 C19.34 213 18.68 213 18 213 C17.96132813 213.8353125 17.96132813 213.8353125 17.921875 214.6875 C17.26268099 223.55665571 13.8910247 230.71267918 7.1328125 236.63671875 C2.0514533 240.51554988 -2.12291918 241.94811786 -8.5390625 241.59765625 C-11.26098834 240.93661712 -12.30833741 240.28243749 -14.125 238.1875 C-16 235 -16 235 -17 232 C-23.17210521 230.35579165 -29.10031737 228.82812762 -35 232 C-36.76967493 233.70948191 -38.23155812 235.45094401 -39.67578125 237.44140625 C-41.49351114 239.58085824 -43.32392892 239.92144698 -46.05078125 240.23828125 C-51.62337238 240.42114693 -54.645804 239.78625739 -59 236 C-65.15853344 230.02425408 -70.19535576 222.6643379 -72.81640625 214.4375 C-74.43086895 211.11266592 -76.5990112 209.76346906 -79.625 207.6875 C-80.62789062 206.99011719 -81.63078125 206.29273438 -82.6640625 205.57421875 C-83.43492187 205.05472656 -84.20578125 204.53523437 -85 204 C-85.33 204.66 -85.66 205.32 -86 206 C-86 205.01 -86 204.02 -86 203 C-87.32 202.67 -88.64 202.34 -90 202 C-88.68 202 -87.36 202 -86 202 C-86.3609375 201.45472656 -86.721875 200.90945313 -87.09375 200.34765625 C-90.04011883 195.5598069 -91.84693587 191.69900334 -91.48046875 186.00390625 C-90.4877891 181.86370575 -87.57874227 180.02990912 -84.1796875 177.8125 C-79.51171875 175 -79.51171875 175 -77 175 C-78.37122097 172.04660099 -79.79205261 169.41060922 -82 167 C-85.57790995 166.66215125 -85.57790995 166.66215125 -87.94921875 166.9609375 C-91.61449245 167.03075224 -94.20610397 165.22967858 -97 163 C-101.42941901 158.51335336 -103.14901664 155.42087697 -103.1875 149.125 C-103.20167969 148.07570313 -103.21585938 147.02640625 -103.23046875 145.9453125 C-103 143 -103 143 -101 139 C-104.63 134.05 -108.26 129.1 -112 124 C-109.47764868 122.31843245 -106.96413358 120.83531994 -104.3125 119.375 C-103.50425781 118.92898437 -102.69601563 118.48296875 -101.86328125 118.0234375 C-100.94095703 117.51683594 -100.94095703 117.51683594 -100 117 C-92.74493159 121.91252281 -85.70295916 126.87438862 -79.0234375 132.56640625 C-77.00532149 134.28905237 -77.00532149 134.28905237 -74 134 C-72.3625346 132.20129922 -72.3625346 132.20129922 -70.8125 129.875 C-64.47167935 121.43378251 -56.4385842 117.43613457 -47 113 C-49.52723866 110.42221657 -52.11355608 108.01088354 -54.875 105.6875 C-60.77587572 100.54342804 -65.59160764 95.0894561 -69 88 C-68.505 86.515 -68.505 86.515 -68 85 C-67.80940494 83.15205664 -67.62165961 81.30371942 -67.45605469 79.45336914 C-65.96538153 63.51341034 -61.31210658 48.1003441 -49.32421875 36.8203125 C-36.24829908 26.57934012 -19.89752666 25.50288869 -3.93310547 27.22265625 C12.25183668 29.50324348 26.54033556 35.43207047 37.52734375 47.71484375 C41.79966889 54.3443138 42.46863524 60.37866817 42.3125 68.0625 C42.30049561 68.98643555 42.28849121 69.91037109 42.27612305 70.86230469 C41.98946486 84.91953429 39.27855338 97.65809882 35 111 C47.32124498 102.2631172 55.20726895 92.75099574 58.52734375 77.58203125 C60.93535179 59.33291247 59.34994676 39.73561169 48.14453125 24.47265625 C36.00457203 10.47521693 17.29342893 5.8098214 0 2 C0 1.34 0 0.68 0 0 Z " fill="#3A3A3D" transform="translate(273,136)"/>
<path d="M0 0 C19.49863421 0.07513925 36.62929612 9.4916504 51 22 C51.495 20.515 51.495 20.515 52 19 C52 20.65 52 22.3 52 24 C53.98 24 55.96 24 58 24 C56.68 24.99 55.36 25.98 54 27 C54.32613281 27.59425781 54.65226562 28.18851563 54.98828125 28.80078125 C59.86102749 38.04318783 62.51583171 46.51142192 62 57 C62.66 57 63.32 57 64 57 C64.33 55.68 64.66 54.36 65 53 C65 54.98 65 56.96 65 59 C64.34 59 63.68 59 63 59 C63.03480469 59.87140625 63.06960938 60.7428125 63.10546875 61.640625 C63.43307175 76.05515698 59.7149199 86.56360041 53 99 C57.95 98.505 57.95 98.505 63 98 C65.24976836 92.16276317 66.12331033 86.14369662 67.125 80 C67.30675781 78.93265625 67.48851562 77.8653125 67.67578125 76.765625 C67.84722656 75.72921875 68.01867187 74.6928125 68.1953125 73.625 C68.42758545 72.22121094 68.42758545 72.22121094 68.66455078 70.7890625 C69.0205131 67.82944566 69.05282096 64.97848693 69 62 C69 61.01 69 60.02 69 59 C71.97 58.505 71.97 58.505 75 58 C75 62 75 62 73.57788086 64.31811523 C71.67155217 67.55825458 71.27286392 70.19398209 70.75390625 73.91015625 C70.55430432 75.24287869 70.35442622 76.57555979 70.15429688 77.90820312 C69.85501275 79.98991235 69.56115757 82.07221193 69.27319336 84.15551758 C68.98919349 86.18023876 68.68509117 88.20118899 68.37890625 90.22265625 C68.12475952 92.02875366 68.12475952 92.02875366 67.86547852 93.87133789 C66.89106277 97.39380271 65.88536792 98.8020069 63 101 C59.94140625 101.43359375 59.94140625 101.43359375 56.5625 101.4375 C51.43449409 101.6031103 51.43449409 101.6031103 47.125 104.1875 C46.42375 105.115625 45.7225 106.04375 45 107 C38.45561771 113.54438229 30.37619447 117.2624908 22 121 C21.34 121 20.68 121 20 121 C20 121.66 20 122.32 20 123 C-0.1811156 126.42467416 -19.39191767 127.05826575 -37.8359375 116.97265625 C-41.06647662 115.52066304 -43.51652894 115.62136184 -47 116 C-46.34 114.68 -45.68 113.36 -45 112 C-45.72445312 111.75378906 -46.44890625 111.50757813 -47.1953125 111.25390625 C-55.9848684 107.32431371 -65.47302874 97.0562335 -69 88 C-68.67 87.01 -68.34 86.02 -68 85 C-67.80940494 83.15205664 -67.62165961 81.30371942 -67.45605469 79.45336914 C-65.96538153 63.51341034 -61.31210658 48.1003441 -49.32421875 36.8203125 C-36.24829908 26.57934012 -19.89752666 25.50288869 -3.93310547 27.22265625 C12.25183668 29.50324348 26.54033556 35.43207047 37.52734375 47.71484375 C41.79966889 54.3443138 42.46863524 60.37866817 42.3125 68.0625 C42.30049561 68.98643555 42.28849121 69.91037109 42.27612305 70.86230469 C41.98946486 84.91953429 39.27855338 97.65809882 35 111 C47.32124498 102.2631172 55.20726895 92.75099574 58.52734375 77.58203125 C60.93535179 59.33291247 59.34994676 39.73561169 48.14453125 24.47265625 C36.00457203 10.47521693 17.29342893 5.8098214 0 2 C0 1.34 0 0.68 0 0 Z " fill="#1D1E24" transform="translate(273,136)"/>
<path d="M0 0 C0.97001953 0.00451172 1.94003906 0.00902344 2.93945312 0.01367188 C5.3138676 0.0253685 7.68815021 0.04175914 10.0625 0.0625 C9.4025 0.3925 8.7425 0.7225 8.0625 1.0625 C8.0625 1.7225 8.0625 2.3825 8.0625 3.0625 C8.83851563 3.14886719 9.61453125 3.23523438 10.4140625 3.32421875 C27.37840076 5.53079735 45.37405393 12.20376638 57.03515625 25.2734375 C61.90418177 31.66209519 64.11791967 38.33947479 66.0625 46.0625 C66.42085937 47.30257812 66.77921875 48.54265625 67.1484375 49.8203125 C68.34068414 54.64106086 68.40643298 59.36629679 68.375 64.3125 C68.36936035 65.24054443 68.3637207 66.16858887 68.35791016 67.12475586 C68.10066556 81.69473294 63.94211091 94.71629772 53.4375 105.125 C50.44013776 107.98382869 47.43100966 110.6507736 44.0625 113.0625 C43.4025 112.7325 42.7425 112.4025 42.0625 112.0625 C42.40023437 111.00933594 42.73796875 109.95617187 43.0859375 108.87109375 C47.22763977 95.63373678 49.19487979 82.98821153 49.375 69.125 C49.39280518 68.24875977 49.41061035 67.37251953 49.42895508 66.46972656 C49.41735382 57.11375675 46.77971339 50.9498065 40.34375 44.1640625 C26.00280793 30.95271518 4.80609062 28.30412882 -13.87988281 28.96191406 C-25.70764261 29.5401102 -37.0089333 33.71159934 -45.12890625 42.625 C-54.673659 55.48877044 -58.3396452 71.27913319 -58.9375 87.0625 C-59.9275 87.0625 -60.9175 87.0625 -61.9375 87.0625 C-62.17339844 86.30453125 -62.40929687 85.5465625 -62.65234375 84.765625 C-64.16584837 81.58220495 -65.52266595 80.6285304 -68.5 78.8125 C-69.70849609 78.06226563 -69.70849609 78.06226563 -70.94140625 77.296875 C-71.60011719 76.88953125 -72.25882813 76.4821875 -72.9375 76.0625 C-74.91044535 74.08955465 -74.10680951 70.40620053 -74.12792969 67.75952148 C-74.10530415 44.51743786 -74.10530415 44.51743786 -69.9375 37.875 C-67.9375 36.0625 -67.9375 36.0625 -65.9375 35.0625 C-64.96596548 32.57371893 -64.96596548 32.57371893 -64.125 29.5 C-63.78339844 28.33984375 -63.44179687 27.1796875 -63.08984375 25.984375 C-62.90663574 25.35595703 -62.72342773 24.72753906 -62.53466797 24.08007812 C-61.46220009 20.45666252 -60.32091868 16.85471587 -59.1875 13.25 C-58.75505944 11.86853618 -58.32275514 10.4870297 -57.890625 9.10546875 C-57.57609375 8.10128906 -57.2615625 7.09710938 -56.9375 6.0625 C-54.4625 6.5575 -54.4625 6.5575 -51.9375 7.0625 C-53.04565916 15.26287776 -54.55431525 23.13443875 -56.9375 31.0625 C-54.20572708 28.47111798 -52.09774595 25.95073766 -50.125 22.75 C-42.34956042 10.92202457 -31.55624677 4.5706316 -17.9375 1.0625 C-11.94194691 -0.07179383 -6.07536959 -0.05398483 0 0 Z " fill="#ADAC9E" transform="translate(264.9375,134.9375)"/>
<path d="M0 0 C0 1.66666667 0 3.33333333 0 5 C-0.61746094 5.20753906 -1.23492187 5.41507813 -1.87109375 5.62890625 C-12.27243313 9.41265071 -19.03175512 15.54914983 -26 24 C-22.37 24.33 -18.74 24.66 -15 25 C-15 25.33 -15 25.66 -15 26 C-27.98361947 27.06506253 -27.98361947 27.06506253 -32.28515625 24.79296875 C-33.5090754 23.6443677 -34.6901077 22.44890164 -35.83203125 21.21875 C-38.70382035 18.27969377 -41.90678432 15.9986532 -45.25 13.625 C-46.15504272 12.96395264 -46.15504272 12.96395264 -47.07836914 12.28955078 C-51.17048863 9.20079454 -51.17048863 9.20079454 -56 8 C-58.77122275 10.35426499 -58.77122275 10.35426499 -61 13 C-59.783125 13.309375 -58.56625 13.61875 -57.3125 13.9375 C-49.60947736 16.501105 -41.39259099 21.67339195 -36.5078125 28.203125 C-32.71759026 32.43022644 -29.31313226 32.26007923 -23.87109375 32.83203125 C-18.84390622 33.0501635 -13.96490727 32.73735834 -8.95703125 32.296875 C-4.58566615 31.96891474 -0.25654471 31.87783381 4.125 31.875 C4.83567627 31.87064941 5.54635254 31.86629883 6.27856445 31.86181641 C8.18625919 31.86683485 10.09354007 31.93118934 12 32 C13.30324219 32.03673828 13.30324219 32.03673828 14.6328125 32.07421875 C18.47370472 33.57634986 20.35771212 36.68437538 22.75 39.9375 C23.24371094 40.58396484 23.73742187 41.23042969 24.24609375 41.89648438 C27.77755596 46.55511192 27.77755596 46.55511192 29 49 C28.34 49.5775 27.68 50.155 27 50.75 C23.98894085 55.64297112 24.67814637 60.39438258 25 66 C21.7 66 18.4 66 15 66 C15 66.66 15 67.32 15 68 C14.28972656 68.13277344 13.57945312 68.26554687 12.84765625 68.40234375 C11.46900391 68.66724609 11.46900391 68.66724609 10.0625 68.9375 C9.14597656 69.11152344 8.22945313 69.28554688 7.28515625 69.46484375 C5.04710156 69.77714988 5.04710156 69.77714988 4 71 C1.92060164 71.15272417 -0.16518931 71.22195322 -2.25 71.25 C-3.38953125 71.27578125 -4.5290625 71.3015625 -5.703125 71.328125 C-9.3688699 70.96328783 -10.89658319 69.88538405 -14 68 C-16.74200161 67.23764978 -19.49022648 66.84256136 -22.3125 66.5 C-23.44764038 66.36005615 -23.44764038 66.36005615 -24.60571289 66.21728516 C-29.06648084 65.80409948 -32.05609453 65.83991229 -35.9375 68.375 C-36.96096176 69.24692414 -37.98250499 70.12112026 -39 71 C-39.66 71 -40.32 71 -41 71 C-42.0121853 77.48079757 -41.19174292 81.45579684 -37.3125 86.8125 C-34.41585515 90.44488235 -31.44266336 93.88008633 -28 97 C-27.54625 95.865625 -27.0925 94.73125 -26.625 93.5625 C-25 90 -25 90 -23 89 C-23.350625 89.763125 -23.70125 90.52625 -24.0625 91.3125 C-25.34768287 96.36755261 -24.67463171 100.8764457 -24 106 C-26 105 -26 105 -26.7734375 102.70703125 C-28.38012512 99.16106144 -30.43764756 97.87417203 -33.625 95.6875 C-34.62789062 94.99011719 -35.63078125 94.29273438 -36.6640625 93.57421875 C-37.43492187 93.05472656 -38.20578125 92.53523438 -39 92 C-39.33 92.66 -39.66 93.32 -40 94 C-40 93.01 -40 92.02 -40 91 C-41.32 90.67 -42.64 90.34 -44 90 C-42.68 90 -41.36 90 -40 90 C-40.3609375 89.45472656 -40.721875 88.90945313 -41.09375 88.34765625 C-44.04011883 83.5598069 -45.84693587 79.69900334 -45.48046875 74.00390625 C-44.4877891 69.86370575 -41.57874227 68.02990912 -38.1796875 65.8125 C-33.51171875 63 -33.51171875 63 -31 63 C-32.37122097 60.04660099 -33.79205261 57.41060922 -36 55 C-39.57790995 54.66215125 -39.57790995 54.66215125 -41.94921875 54.9609375 C-45.61449245 55.03075224 -48.20610397 53.22967858 -51 51 C-55.42941901 46.51335336 -57.14901664 43.42087697 -57.1875 37.125 C-57.20167969 36.07570313 -57.21585938 35.02640625 -57.23046875 33.9453125 C-57 31 -57 31 -55 27 C-58.63 22.05 -62.26 17.1 -66 12 C-63.47764868 10.31843245 -60.96413358 8.83531994 -58.3125 7.375 C-57.50425781 6.92898437 -56.69601563 6.48296875 -55.86328125 6.0234375 C-55.24839844 5.68570313 -54.63351563 5.34796875 -54 5 C-46.74493159 9.91252281 -39.70295916 14.87438862 -33.0234375 20.56640625 C-31.00532149 22.28905237 -31.00532149 22.28905237 -28 22 C-26.3625346 20.20129922 -26.3625346 20.20129922 -24.8125 17.875 C-18.29537051 9.20355952 -9.47982665 4.88442288 0 0 Z " fill="#2E292F" transform="translate(227,248)"/>
<path d="M0 0 C8.14025115 3.38198063 15.77679229 4.579673 24.56640625 4.44726562 C25.4370874 4.4451709 26.30776855 4.44307617 27.20483398 4.44091797 C31.13479718 4.40978811 35.00017939 4.30191002 38.90234375 3.81835938 C47.68218826 2.74268306 52.75633535 3.93118559 59.87890625 9.25976562 C72.85897791 19.74296353 72.85897791 19.74296353 74.59375 25.72460938 C75.25033629 33.01617296 73.82448315 36.95891643 69.19140625 42.63476562 C68.04671875 43.93414062 68.04671875 43.93414062 66.87890625 45.25976562 C65.17333002 42.70140127 64.05091185 40.4223589 62.81640625 37.63476562 C60.31817653 32.51898776 57.01646138 29.16691879 52.90234375 25.29882812 C49.65837531 22.02980974 48.30796786 18.54695047 46.87890625 14.25976562 C46.21890625 14.25976562 45.55890625 14.25976562 44.87890625 14.25976562 C45.86890625 16.73476563 45.86890625 16.73476563 46.87890625 19.25976562 C46.12867188 19.40671875 45.3784375 19.55367188 44.60546875 19.70507812 C37.97267263 21.15861279 32.8290046 23.14589563 27.13671875 26.83398438 C23.27562132 29.27222064 19.20604419 30.81738631 14.87890625 32.25976562 C13.7065794 30.63884432 12.54119855 29.01289729 11.37890625 27.38476562 C10.72921875 26.47984375 10.07953125 25.57492187 9.41015625 24.64257812 C7.87890625 22.25976562 7.87890625 22.25976562 7.87890625 20.25976562 C-0.78984916 18.2208128 -9.22224391 16.73241516 -18.12109375 16.25976562 C-17.79109375 14.27976562 -17.46109375 12.29976563 -17.12109375 10.25976562 C-17.78109375 9.92976563 -18.44109375 9.59976562 -19.12109375 9.25976562 C-19.78109375 11.56976563 -20.44109375 13.87976563 -21.12109375 16.25976562 C-20.52159912 16.33493408 -19.92210449 16.41010254 -19.30444336 16.48754883 C-16.55435326 16.83850563 -13.80658598 17.20525802 -11.05859375 17.57226562 C-10.11564453 17.69021484 -9.17269531 17.80816406 -8.20117188 17.9296875 C-1.43320436 18.84937647 4.26154843 19.69702362 9.3125 24.64257812 C13.84120722 30.83975643 15.88991143 34.55085112 14.87890625 42.25976562 C14.21890625 42.25976562 13.55890625 42.25976562 12.87890625 42.25976562 C10.94052765 40.02635223 9.11704106 37.78739921 7.31640625 35.44726562 C6.80916016 34.80466797 6.30191406 34.16207031 5.77929688 33.5 C3.60837742 30.71046968 2.00898393 28.64999867 0.87890625 25.25976562 C-14.13720861 25.07834413 -14.13720861 25.07834413 -29.12109375 25.88476562 C-46.46894509 27.15271489 -46.46894509 27.15271489 -51.90625 22.84570312 C-52.8170349 21.68266001 -53.68622258 20.48608344 -54.515625 19.26367188 C-59.90770873 12.53340678 -69.19493234 8.30213061 -77.12109375 5.25976562 C-75.97158424 1.81123708 -75.32073224 0.90282323 -72.12109375 -0.74023438 C-65.96267907 0.43145792 -61.62838309 4.43858806 -56.87109375 8.25976562 C-56.05640625 8.90171875 -55.24171875 9.54367187 -54.40234375 10.20507812 C-48.52263145 14.85822793 -48.52263145 14.85822793 -46.12109375 17.25976562 C-42.45040607 16.03620306 -41.41305902 14.50812805 -38.93359375 11.57226562 C-27.32752828 -1.52654139 -16.43055433 -7.04901652 0 0 Z " fill="#DFDFD0" transform="translate(243.12109375,255.740234375)"/>
<path d="M0 0 C10.74521787 2.75518407 19.97062619 11.01699041 26.0625 20.0625 C27.96276697 26.01666985 27.58827028 30.30342437 25.125 35.9375 C21.93052175 41.88583881 17.12882187 45.74916289 12 50 C10.98583322 50.98562962 9.97898825 51.97942075 9 53 C9.27714844 53.54269531 9.55429687 54.08539063 9.83984375 54.64453125 C10.38318359 55.71767578 10.38318359 55.71767578 10.9375 56.8125 C11.47697266 57.87404297 11.47697266 57.87404297 12.02734375 58.95703125 C14.91285619 65.01776622 14.75009434 71.43121269 14 78 C11.39917344 84.19975631 5.97646652 88.20021388 0 91 C-0.66 91 -1.32 91 -2 91 C-2.02578125 91.556875 -2.0515625 92.11375 -2.078125 92.6875 C-2.73731901 101.55665571 -6.1089753 108.71267918 -12.8671875 114.63671875 C-17.94771156 118.51491238 -22.12605468 119.95780665 -28.54296875 119.58984375 C-31.21705792 118.9478923 -32.26410723 118.35492247 -34.0625 116.3125 C-37.20583468 110.93841167 -37.20583468 110.93841167 -38 108 C-37.505 106.515 -37.505 106.515 -37 105 C-37.99 104.67 -38.98 104.34 -40 104 C-37.525 103.505 -37.525 103.505 -35 103 C-34.89042969 103.68707031 -34.78085937 104.37414062 -34.66796875 105.08203125 C-34.50941406 105.98308594 -34.35085938 106.88414062 -34.1875 107.8125 C-34.03667969 108.70582031 -33.88585937 109.59914063 -33.73046875 110.51953125 C-32.92824464 113.24366124 -32.27507484 114.33268747 -30 116 C-24.84069938 116.80058113 -21.84353686 116.2798535 -17.375 113.5625 C-10.23377392 108.33300111 -7.40104089 102.40364313 -5 94 C-9.62 95.65 -14.24 97.3 -19 99 C-19 98.01 -19 97.02 -19 96 C-17.7934375 95.49210937 -16.586875 94.98421875 -15.34375 94.4609375 C-0.31585664 88.28029389 -0.31585664 88.28029389 11 77 C12.40775134 69.00894095 11.0293816 61.96147624 7 55 C6.32839844 55.13792969 5.65679687 55.27585937 4.96484375 55.41796875 C2.79556702 55.84382149 0.61997217 56.23783136 -1.55859375 56.61328125 C-2.83863281 56.84402344 -4.11867188 57.07476562 -5.4375 57.3125 C-6.71496094 57.53550781 -7.99242187 57.75851562 -9.30859375 57.98828125 C-13.22721126 59.06227272 -15.65152775 60.7616191 -19 63 C-23.87192855 63.85816217 -28.4740482 63.74674237 -32.9375 61.5625 C-33.9584375 60.7890625 -33.9584375 60.7890625 -35 60 C-37.19130534 59.30420546 -37.19130534 59.30420546 -39 59 C-39 58.34 -39 57.68 -39 57 C-42.96 57 -46.92 57 -51 57 C-51 56.67 -51 56.34 -51 56 C-47.7 56 -44.4 56 -41 56 C-41.33 55.34 -41.66 54.68 -42 54 C-43.03569581 45.64045525 -43.03569581 45.64045525 -40.8828125 42.23046875 C-39.5 40.875 -39.5 40.875 -37 39 C-36.01 39.495 -36.01 39.495 -35 40 C-35 32.68164686 -36.99210448 28.11851927 -41.48046875 22.328125 C-45.74683637 18.38586903 -50.38522567 17.70371838 -56 17 C-56.9178125 16.82855469 -57.835625 16.65710938 -58.78125 16.48046875 C-62.97262999 15.85481373 -67.14509765 15.6432608 -71.375 15.4375 C-72.20644531 15.39431641 -73.03789062 15.35113281 -73.89453125 15.30664062 C-75.92953228 15.20138195 -77.96474703 15.10026928 -80 15 C-80 14.67 -80 14.34 -80 14 C-75.545 13.505 -75.545 13.505 -71 13 C-70.34 11.02 -69.68 9.04 -69 7 C-68.01 7.33 -67.02 7.66 -66 8 C-66.66 9.98 -67.32 11.96 -68 14 C-66.90945312 13.94779297 -66.90945312 13.94779297 -65.796875 13.89453125 C-57.93438836 13.68284892 -48.08815661 13.45595057 -41.828125 18.8828125 C-40.21316698 20.75312712 -38.68494907 22.61429976 -37.25 24.625 C-36.82203125 25.21539062 -36.3940625 25.80578125 -35.953125 26.4140625 C-35 28 -35 28 -35 30 C-34.46375 29.54625 -33.9275 29.0925 -33.375 28.625 C-31 27 -31 27 -28.375 26.1875 C-25.25120565 25.08838717 -23.07445038 23.83960278 -20.3125 22.0625 C-15.11996593 18.83000923 -9.94422818 17.2882928 -4 16 C-4.495 14.02 -4.495 14.02 -5 12 C-4.34 12 -3.68 12 -3 12 C-2.484375 12.99 -1.96875 13.98 -1.4375 15 C0.69383278 18.74301199 3.32380385 21.76900299 6.1953125 24.9609375 C10.88631716 30.26116355 14.50895542 35.35721446 17 42 C21.45791534 36.95551686 24.22804444 33.33491324 24.25 26.375 C23.30240384 19.22011661 18.47350484 14.36075033 13 10 C8.54409426 6.94873739 3.8191429 4.42345947 -1 2 C-0.67 1.34 -0.34 0.68 0 0 Z " fill="#2F3034" transform="translate(293,258)"/>
<path d="M0 0 C10.26732248 7.67330909 14.87687754 16.82165998 17.95703125 29.0546875 C18.31539062 30.29476562 18.67375 31.53484375 19.04296875 32.8125 C20.23524465 37.63336666 20.30052135 42.3583983 20.26953125 47.3046875 C20.26215942 48.69457886 20.26215942 48.69457886 20.25463867 50.11254883 C20.06909906 60.98516999 17.85700124 70.76661593 11.95703125 80.0546875 C10.96703125 80.5496875 10.96703125 80.5496875 9.95703125 81.0546875 C10.1171167 80.18553711 10.27720215 79.31638672 10.44213867 78.42089844 C13.64686181 57.46939408 11.88803873 34.39032699 -0.6328125 16.82421875 C-8.53773273 6.9105188 -21.04192581 1.80884934 -33.25 -0.5703125 C-49.52722287 -2.17959509 -71.17282622 -3.83083075 -85.04296875 6.0546875 C-85.90921875 6.6115625 -86.77546875 7.1684375 -87.66796875 7.7421875 C-99.92554467 19.67719563 -105.88233479 36.89222482 -110.04296875 53.0546875 C-110.37296875 53.0546875 -110.70296875 53.0546875 -111.04296875 53.0546875 C-111.39398939 44.14916377 -110.99488689 36.48690585 -108.04296875 28.0546875 C-107.78773438 27.25933594 -107.5325 26.46398437 -107.26953125 25.64453125 C-102.11762951 11.11049654 -92.30647352 -1.93316168 -78.671875 -9.2109375 C-53.82309737 -20.75248413 -22.3628164 -14.29612653 0 0 Z " fill="#DFDFD0" transform="translate(313.04296875,151.9453125)"/>
<path d="M0 0 C0.74185547 0.08378906 1.48371094 0.16757812 2.24804688 0.25390625 C6.75409286 0.83973235 9.52470007 2.01316188 13.4375 4.375 C16.58405316 4.81021104 16.58405316 4.81021104 19.875 4.6875 C20.96683594 4.68363281 22.05867188 4.67976563 23.18359375 4.67578125 C26.56006342 4.36367061 29.25677014 3.5180079 32.4375 2.375 C36.26727849 1.41604759 39.80635694 1.26916326 43.75 1.3125 C45.35294922 1.32603516 45.35294922 1.32603516 46.98828125 1.33984375 C47.79652344 1.35144531 48.60476562 1.36304688 49.4375 1.375 C51.56749997 5.16539366 51.60452456 8.03236138 51.4375 12.375 C46.10307395 16.28691244 42.7408454 16.74078336 36.22265625 15.87109375 C32.92099501 15.28299981 29.65912887 14.60932365 26.41015625 13.77734375 C24.11982666 13.24176935 24.11982666 13.24176935 20.4375 13.375 C22.13519531 13.66503906 22.13519531 13.66503906 23.8671875 13.9609375 C25.34903202 14.22354286 26.83079892 14.48658648 28.3125 14.75 C29.05886719 14.87632812 29.80523437 15.00265625 30.57421875 15.1328125 C36.2109375 16.1484375 36.2109375 16.1484375 38.4375 18.375 C35.90185932 19.27241202 33.36172939 20.14281604 30.8125 21 C30.09964844 21.25523437 29.38679688 21.51046875 28.65234375 21.7734375 C22.98920599 23.64383162 19.81913459 23.06581729 14.4375 20.375 C9.36397188 19.7946945 4.13134202 19.21619897 -0.125 22.4375 C-2.98002881 25.87817574 -3.71398264 28.04756148 -4.5625 32.375 C-10.9911101 27.41961305 -17.88571942 21.07990863 -20.2421875 13.0625 C-20.47958338 9.37588168 -19.64056425 7.47832033 -17.4375 4.5625 C-11.32656394 -0.08712526 -7.40025262 -1.07287505 0 0 Z " fill="#ACAB9D" transform="translate(204.5625,313.625)"/>
<path d="M0 0 C1.15048828 -0.07089844 2.30097656 -0.14179688 3.48632812 -0.21484375 C11.84568331 -0.39688128 11.84568331 -0.39688128 15.68896484 2.5300293 C17.72958696 4.80467199 19.48100852 7.09282938 21.1875 9.625 C21.71061768 10.33197021 22.23373535 11.03894043 22.77270508 11.76733398 C23.94677418 13.36078584 25.07358224 14.98893329 26.1875 16.625 C25.69636719 17.15609375 25.20523438 17.6871875 24.69921875 18.234375 C22.75740223 21.30515462 22.88258306 23.27421396 23 26.875 C23.02707031 27.95265625 23.05414063 29.0303125 23.08203125 30.140625 C23.13423828 31.37039063 23.13423828 31.37039063 23.1875 32.625 C22.2696875 32.68558594 21.351875 32.74617188 20.40625 32.80859375 C19.1790625 32.89238281 17.951875 32.97617187 16.6875 33.0625 C15.4809375 33.14371094 14.274375 33.22492188 13.03125 33.30859375 C9.05974274 33.6355166 5.13769186 34.10500793 1.1875 34.625 C-2.49691921 28.96968743 -6.16511399 23.3042743 -9.8125 17.625 C-10.24353027 16.9542041 -10.67456055 16.2834082 -11.11865234 15.59228516 C-12.2541284 13.81663791 -13.37918814 12.03492928 -14.5 10.25 C-15.14324219 9.23164063 -15.78648437 8.21328125 -16.44921875 7.1640625 C-17.8125 4.625 -17.8125 4.625 -17.8125 1.625 C-11.89716313 0.30927623 -6.04021213 0.1675045 0 0 Z " fill="#FB2D56" transform="translate(228.8125,281.375)"/>
<path d="M0 0 C7.12477441 2.98428051 11.49828496 10.82112796 14.35546875 17.71484375 C15.438293 21.55394793 15.25171952 25.03541762 15 29 C-8.43083004 37 -8.43083004 37 -15 37 C-14.87625 35.7625 -14.7525 34.525 -14.625 33.25 C-14.61100966 24.39411188 -20.08891351 16.25879746 -26 10 C-20.13037158 7.72402163 -14.19048472 5.71302567 -8.19311523 3.80200195 C-5.10685 2.79756795 -2.72286365 1.81524244 0 0 Z " fill="#ADAC9E" transform="translate(254,328)"/>
<path d="M0 0 C0.97001953 0.00451172 1.94003906 0.00902344 2.93945312 0.01367188 C5.3138676 0.0253685 7.68815021 0.04175914 10.0625 0.0625 C9.4025 0.3925 8.7425 0.7225 8.0625 1.0625 C8.0625 1.7225 8.0625 2.3825 8.0625 3.0625 C7.40354736 3.0718457 6.74459473 3.08119141 6.06567383 3.09082031 C-11.85536483 3.41002854 -27.41083857 4.14420993 -41.625 16.375 C-42.388125 17.261875 -43.15125 18.14875 -43.9375 19.0625 C-44.46730469 19.66320312 -44.99710938 20.26390625 -45.54296875 20.8828125 C-56.9412746 34.52052061 -64.07206075 53.19316817 -62.9375 71.0625 C-62.36783114 74.75061477 -61.68998715 78.40756241 -60.9375 82.0625 C-60.2775 82.0625 -59.6175 82.0625 -58.9375 82.0625 C-58.9375 83.7125 -58.9375 85.3625 -58.9375 87.0625 C-59.9275 87.0625 -60.9175 87.0625 -61.9375 87.0625 C-62.17339844 86.30453125 -62.40929687 85.5465625 -62.65234375 84.765625 C-64.16584837 81.58220495 -65.52266595 80.6285304 -68.5 78.8125 C-69.70849609 78.06226563 -69.70849609 78.06226563 -70.94140625 77.296875 C-71.60011719 76.88953125 -72.25882813 76.4821875 -72.9375 76.0625 C-74.91044535 74.08955465 -74.10680951 70.40620053 -74.12792969 67.75952148 C-74.10530415 44.51743786 -74.10530415 44.51743786 -69.9375 37.875 C-67.9375 36.0625 -67.9375 36.0625 -65.9375 35.0625 C-64.96596548 32.57371893 -64.96596548 32.57371893 -64.125 29.5 C-63.78339844 28.33984375 -63.44179687 27.1796875 -63.08984375 25.984375 C-62.90663574 25.35595703 -62.72342773 24.72753906 -62.53466797 24.08007812 C-61.46220009 20.45666252 -60.32091868 16.85471587 -59.1875 13.25 C-58.75505944 11.86853618 -58.32275514 10.4870297 -57.890625 9.10546875 C-57.57609375 8.10128906 -57.2615625 7.09710938 -56.9375 6.0625 C-54.4625 6.5575 -54.4625 6.5575 -51.9375 7.0625 C-53.04565916 15.26287776 -54.55431525 23.13443875 -56.9375 31.0625 C-54.20572708 28.47111798 -52.09774595 25.95073766 -50.125 22.75 C-42.34956042 10.92202457 -31.55624677 4.5706316 -17.9375 1.0625 C-11.94194691 -0.07179383 -6.07536959 -0.05398483 0 0 Z " fill="#3D3E41" transform="translate(264.9375,134.9375)"/>
<path d="M0 0 C3.25781366 1.80989648 4.18584708 4.02412652 5.5078125 7.44921875 C7.10367116 13.47148538 7.94052291 19.93376656 5.02734375 25.6484375 C-2.23278204 34.60774166 -14.17317077 39.37137081 -24.75 43.25 C-25.74 43.25 -26.73 43.25 -27.75 43.25 C-28.74 38.3 -29.73 33.35 -30.75 28.25 C-29.70199219 27.71890625 -28.65398437 27.1878125 -27.57421875 26.640625 C-26.19505223 25.92758653 -24.81616024 25.21401687 -23.4375 24.5 C-22.74720703 24.15195312 -22.05691406 23.80390625 -21.34570312 23.4453125 C-16.18454138 20.79490955 -16.18454138 20.79490955 -12.75 16.25 C-11.96060842 12.98730087 -11.96060842 12.98730087 -11.5625 9.5 C-11.40394531 8.32953125 -11.24539063 7.1590625 -11.08203125 5.953125 C-10.97246094 5.06109375 -10.86289062 4.1690625 -10.75 3.25 C-7.19625098 1.68917227 -3.88606886 0.35327899 0 0 Z " fill="#E0E0D1" transform="translate(298.75,311.75)"/>
<path d="M0 0 C6.75662629 5.37772296 12.44067235 10.94387083 15.0625 19.4375 C15.03125 21.98046875 15.03125 21.98046875 14.0625 24.4375 C8.29200537 29.63656578 1.02406361 34.19672691 -6.9375 34.4375 C-9.1875 33.96484375 -9.1875 33.96484375 -10.9375 33.4375 C-10.6075 32.7775 -10.2775 32.1175 -9.9375 31.4375 C-9.09268967 22.14766665 -9.09268967 22.14766665 -11.4375 13.3125 C-14.52224193 9.76504678 -17.60825352 8.12926865 -21.9375 6.4375 C-20.9375 3.4375 -20.9375 3.4375 -19.23046875 2.3046875 C-18.18826172 1.81355469 -18.18826172 1.81355469 -17.125 1.3125 C-16.43792969 0.97992188 -15.75085938 0.64734375 -15.04296875 0.3046875 C-9.85162284 -1.83349208 -5.1292828 -2.72834191 0 0 Z " fill="#DEDED0" transform="translate(292.9375,279.5625)"/>
<path d="M0 0 C4.20550797 1.14695672 6.87040216 3.3401806 9.578125 6.703125 C11.99384272 11.42952923 12.18580335 16.48644008 11.578125 21.703125 C10.04926617 25.83104384 8.56976535 28.70730483 4.578125 30.703125 C-1.83014926 32.36643965 -7.55875379 31.83314716 -13.421875 28.703125 C-16.60968542 26.1766552 -18.23683503 23.71056482 -18.984375 19.640625 C-18.28233543 15.97441838 -17.12551638 14.25656408 -14.421875 11.703125 C-13.101875 11.703125 -11.781875 11.703125 -10.421875 11.703125 C-10.45667969 11.08824219 -10.49148438 10.47335937 -10.52734375 9.83984375 C-10.55441406 9.03160156 -10.58148438 8.22335937 -10.609375 7.390625 C-10.64417969 6.59011719 -10.67898438 5.78960937 -10.71484375 4.96484375 C-10.421875 2.703125 -10.421875 2.703125 -9.20703125 0.9140625 C-6.17214409 -1.14461369 -3.50235857 -0.47107747 0 0 Z " fill="#ACAB9E" transform="translate(270.421875,287.296875)"/>
<path d="M0 0 C6.1893643 3.86835269 9.37621093 9.80092936 13 16 C13.8971875 17.5159375 13.8971875 17.5159375 14.8125 19.0625 C17.15496532 24.85701948 18.82805518 30.86751256 17 37 C13.89046621 38.5547669 11.43733239 38.28644437 8 38 C-1.60007396 33.19996302 -7.11839149 23.63262046 -11 14 C-12.27569353 9.73818587 -12.30818593 6.80715362 -10.6875 2.5625 C-7.66942573 -2.02050167 -5.07081635 -1.18319048 0 0 Z " fill="#DEDED0" transform="translate(213,337)"/>
<path d="M0 0 C4.82096056 2.12253895 8.59458413 5.2273207 12.68359375 8.51171875 C13.49828125 9.15367187 14.31296875 9.795625 15.15234375 10.45703125 C21.03205605 15.11018105 21.03205605 15.11018105 23.43359375 17.51171875 C26.68957349 17.74116882 26.68957349 17.74116882 30.5390625 17.6015625 C32.01366785 17.58108835 33.48827743 17.56091679 34.96289062 17.54101562 C37.27060364 17.49810511 39.57804068 17.4502446 41.88549805 17.39526367 C67.78264203 16.822655 67.78264203 16.822655 77.43359375 23.51171875 C81.60213019 27.97858372 84.89094979 32.36220896 84.87109375 38.63671875 C84.72671875 39.91546875 84.58234375 41.19421875 84.43359375 42.51171875 C83.77359375 42.51171875 83.11359375 42.51171875 82.43359375 42.51171875 C80.49521515 40.27830536 78.67172856 38.03935233 76.87109375 35.69921875 C76.36384766 35.05662109 75.85660156 34.41402344 75.33398438 33.75195312 C73.16306492 30.96242281 71.56367143 28.90195179 70.43359375 25.51171875 C55.41747889 25.33029726 55.41747889 25.33029726 40.43359375 26.13671875 C23.08574241 27.40466802 23.08574241 27.40466802 17.6484375 23.09765625 C16.7376526 21.93461314 15.86846492 20.73803657 15.0390625 19.515625 C9.64697877 12.7853599 0.35975516 8.55408374 -7.56640625 5.51171875 C-6.19870126 1.40860378 -4.56238006 -0.86803274 0 0 Z " fill="#F8F8F8" transform="translate(173.56640625,255.48828125)"/>
<path d="M0 0 C0.73347656 0.07541016 1.46695313 0.15082031 2.22265625 0.22851562 C8.49573454 1.01966414 12.57895193 3.31423634 16.875 8.0625 C18.5 10.4375 18.5 10.4375 18.5 12.4375 C11.27875787 12.01919634 4.45432222 11.48288889 -2.5 9.4375 C-2.2834375 10.04078125 -2.066875 10.6440625 -1.84375 11.265625 C-1.5653125 12.06484375 -1.286875 12.8640625 -1 13.6875 C-0.7215625 14.47640625 -0.443125 15.2653125 -0.15625 16.078125 C0.5 18.4375 0.5 18.4375 0.5 22.4375 C-0.82810215 24.10833819 -2.16172696 25.77479713 -3.5 27.4375 C-4.28946609 30.12257329 -4.28946609 30.12257329 -4.5 32.4375 C-10.9286101 27.48211305 -17.82321942 21.14240863 -20.1796875 13.125 C-20.41708338 9.43838168 -19.57806425 7.54082033 -17.375 4.625 C-11.30756946 0.00847676 -7.35852149 -1.02812383 0 0 Z " fill="#DFDFD1" transform="translate(204.5,313.5625)"/>
<path d="M0 0 C19.49863421 0.07513925 36.62929612 9.4916504 51 22 C51.495 20.515 51.495 20.515 52 19 C52 20.65 52 22.3 52 24 C53.98 24 55.96 24 58 24 C56.68 24.99 55.36 25.98 54 27 C54.48919922 27.89138672 54.48919922 27.89138672 54.98828125 28.80078125 C59.86102749 38.04318783 62.51583171 46.51142192 62 57 C62.66 57 63.32 57 64 57 C64.33 55.68 64.66 54.36 65 53 C65 54.98 65 56.96 65 59 C64.34 59 63.68 59 63 59 C63.05220703 60.30710937 63.05220703 60.30710937 63.10546875 61.640625 C63.43307175 76.05515698 59.7149199 86.56360041 53 99 C57.95 98.505 57.95 98.505 63 98 C65.24976836 92.16276317 66.12331033 86.14369662 67.125 80 C67.30675781 78.93265625 67.48851562 77.8653125 67.67578125 76.765625 C67.84722656 75.72921875 68.01867187 74.6928125 68.1953125 73.625 C68.42758545 72.22121094 68.42758545 72.22121094 68.66455078 70.7890625 C69.0205131 67.82944566 69.05282096 64.97848693 69 62 C69 61.01 69 60.02 69 59 C70.98 58.67 72.96 58.34 75 58 C75 62 75 62 73.57788086 64.31811523 C71.67155217 67.55825458 71.27286392 70.19398209 70.75390625 73.91015625 C70.55430432 75.24287869 70.35442622 76.57555979 70.15429688 77.90820312 C69.85501275 79.98991235 69.56115757 82.07221193 69.27319336 84.15551758 C68.98919349 86.18023876 68.68509117 88.20118899 68.37890625 90.22265625 C68.12475952 92.02875366 68.12475952 92.02875366 67.86547852 93.87133789 C66.89106277 97.39380271 65.88536792 98.8020069 63 101 C59.94140625 101.43359375 59.94140625 101.43359375 56.5625 101.4375 C51.43449409 101.6031103 51.43449409 101.6031103 47.125 104.1875 C46.42375 105.115625 45.7225 106.04375 45 107 C43.75142971 108.12928013 42.47933821 109.23298371 41.1875 110.3125 C40.58292969 110.82425781 39.97835937 111.33601563 39.35546875 111.86328125 C38.90816406 112.23839844 38.46085937 112.61351562 38 113 C37.67 112.01 37.34 111.02 37 110 C37.67546875 109.40832031 38.3509375 108.81664062 39.046875 108.20703125 C40.38492188 107.02173828 40.38492188 107.02173828 41.75 105.8125 C42.63171875 105.03519531 43.5134375 104.25789063 44.421875 103.45703125 C54.85776624 93.51131066 58.95662466 80.61256139 59.40429688 66.47705078 C59.59971049 50.42727048 56.83671065 34.4947866 46 22 C32.61846292 10.25372821 16.98521827 5.74192118 0 2 C0 1.34 0 0.68 0 0 Z " fill="#2C2C31" transform="translate(273,136)"/>
<path d="M0 0 C0.36762052 6.00446843 0.27673621 10.73736305 -3 16 C-8.29329447 20.65766077 -14.2552777 23.18227342 -21 25 C-21.47050781 24.31292969 -21.94101562 23.62585938 -22.42578125 22.91796875 C-23.04839844 22.01691406 -23.67101562 21.11585938 -24.3125 20.1875 C-24.92738281 19.29417969 -25.54226563 18.40085937 -26.17578125 17.48046875 C-27.84413412 15.03229624 -27.84413412 15.03229624 -29.71875 13.46875 C-31.51570517 11.40882578 -31.30417764 9.99608578 -31.1875 7.3125 C-31.16042969 6.50425781 -31.13335937 5.69601562 -31.10546875 4.86328125 C-31.07066406 4.24839844 -31.03585937 3.63351562 -31 3 C-29.8553125 3.495 -29.8553125 3.495 -28.6875 4 C-23.72988942 5.34443677 -19.10354986 5.64746528 -14 5 C-10.65247442 3.18621008 -10.65247442 3.18621008 -8 1 C-5.15485284 0.20600544 -2.95778892 0 0 0 Z " fill="#ADAC9F" transform="translate(288,315)"/>
<path d="M0 0 C2.76735086 4.2169156 2.19038806 9.14510439 2 14 C-21.43083004 22 -21.43083004 22 -28 22 C-28.1080023 19.89695523 -28.18558987 17.79233091 -28.25 15.6875 C-28.31960937 13.92986328 -28.31960937 13.92986328 -28.390625 12.13671875 C-28 9 -28 9 -26.2487793 7.42016602 C-22.57696262 5.10131273 -18.6232312 3.7462209 -14.5625 2.25 C-13.2930957 1.75693359 -13.2930957 1.75693359 -11.99804688 1.25390625 C-4.05775119 -1.69339223 -4.05775119 -1.69339223 0 0 Z " fill="#DEDED0" transform="translate(267,343)"/>
<path d="M0 0 C4.52070819 0.57245467 7.60054534 2.34568919 11.4375 4.75 C12.52933594 5.42546875 13.62117187 6.1009375 14.74609375 6.796875 C21.33051975 11.25499777 25.59306398 15.71849863 30.125 22.1875 C30.67760498 22.96399902 31.23020996 23.74049805 31.79956055 24.54052734 C37.71441681 32.90444474 43.38134208 41.43534306 49 50 C44.44312833 52.27843583 38.74767093 51.30659508 34 50 C30.74185278 47.13158331 28.55792778 44.05684395 27 40 C27.28125 37.87890625 27.28125 37.87890625 28 36 C29.16558042 31.67070131 29.36558697 28.95248691 27.1875 25.0625 C23.10872252 19.23405196 17.34571917 13.73719236 10.3125 12.1875 C4.77924119 10.20387892 2.73686123 4.97459884 0 0 Z " fill="#F42D54" transform="translate(166,263)"/>
<path d="M0 0 C1.65 0 3.3 0 5 0 C4.52366991 3.72953469 4.04343748 7.45855688 3.5625 11.1875 C3.42779297 12.24259766 3.29308594 13.29769531 3.15429688 14.38476562 C3.02216797 15.40634766 2.89003906 16.42792969 2.75390625 17.48046875 C2.63345947 18.41785889 2.5130127 19.35524902 2.38891602 20.32104492 C2 23 2 23 1.39038086 25.7824707 C1.26155518 26.51425537 1.13272949 27.24604004 1 28 C1.33 28.33 1.66 28.66 2 29 C1.75194869 35.76690828 0.56002655 42.5588988 -0.4375 49.25 C-0.55931641 50.10851562 -0.68113281 50.96703125 -0.80664062 51.8515625 C-2.54225949 63.54225949 -2.54225949 63.54225949 -5 66 C-6.84891946 66.23363881 -8.70488031 66.41303635 -10.5625 66.5625 C-11.57441406 66.64628906 -12.58632813 66.73007813 -13.62890625 66.81640625 C-14.41136719 66.87699219 -15.19382812 66.93757813 -16 67 C-15.16855469 65.33324219 -15.16855469 65.33324219 -14.3203125 63.6328125 C-8.00931949 50.77193825 -5.78669624 40.3675576 -5 26 C-4.34 26 -3.68 26 -3 26 C-3.2475 24.865625 -3.495 23.73125 -3.75 22.5625 C-4.67147382 14.92041048 -1.95812025 7.31984006 0 0 Z " fill="#424346" transform="translate(341,169)"/>
<path d="M0 0 C0.66 0.33 1.32 0.66 2 1 C-0.02606857 9.73742073 -4.85214444 17.66091026 -12.5 22.625 C-16.88730957 24.3485859 -19.3224143 24.61345386 -24 24 C-26.4375 22.5625 -26.4375 22.5625 -28 20 C-28.37133789 17.78100586 -28.37133789 17.78100586 -28.59765625 15.33984375 C-28.67636963 14.52765381 -28.75508301 13.71546387 -28.83618164 12.87866211 C-28.8902417 12.25870361 -28.94430176 11.63874512 -29 11 C-27.89543457 10.60675537 -27.89543457 10.60675537 -26.76855469 10.20556641 C-23.42809952 9.01465358 -20.08904128 7.81987097 -16.75 6.625 C-15.59113281 6.2125 -14.43226563 5.8 -13.23828125 5.375 C-12.12324219 4.97539062 -11.00820313 4.57578125 -9.859375 4.1640625 C-8.83295898 3.79748535 -7.80654297 3.4309082 -6.74902344 3.05322266 C-4.03722885 2.07973346 -4.03722885 2.07973346 -1.75878906 0.80224609 C-1.17838867 0.53750488 -0.59798828 0.27276367 0 0 Z " fill="#ACAB9D" transform="translate(287,351)"/>
<path d="M0 0 C4.56877037 0.4903868 6.74016568 2.14846997 10.0625 5.25 C11.31740234 6.40242188 11.31740234 6.40242188 12.59765625 7.578125 C18.81092354 13.84190665 18.81092354 13.84190665 19.5 18.0625 C19 21 19 21 17.4375 23.375 C14.03503891 25.64330739 12.02281242 25.55487068 8 25 C2.78266114 22.28698379 -1.34961922 18.30076156 -4 13 C-4.58394161 5.87591241 -4.58394161 5.87591241 -2 2 C-1.34 1.34 -0.68 0.68 0 0 Z " fill="#ABAB9D" transform="translate(175,276)"/>
<path d="M0 0 C1.216875 -0.04125 2.43375 -0.0825 3.6875 -0.125 C4.71423828 -0.15980469 4.71423828 -0.15980469 5.76171875 -0.1953125 C8.57768497 0.05040881 10.46757542 0.7226057 13 2 C14.7734375 4.21142578 14.7734375 4.21142578 16.375 6.9453125 C16.96796875 7.94046875 17.5609375 8.935625 18.171875 9.9609375 C18.77515625 11.00507813 19.3784375 12.04921875 20 13.125 C21.20807014 15.16942638 22.41639879 17.21370003 23.625 19.2578125 C24.19605469 20.2365332 24.76710937 21.21525391 25.35546875 22.22363281 C26.83557279 24.72240703 28.3692753 27.17318661 29.9375 29.6171875 C32 33 32 33 32 35 C28.838133 35.59285006 26.14828859 35.73229193 23 35 C19.9978032 32.382287 18.07934205 29.18412935 16 25.8125 C15.40622559 24.90516113 14.81245117 23.99782227 14.20068359 23.06298828 C13.00745308 21.23935963 11.82544353 19.40833516 10.65527344 17.56982422 C8.41688106 14.09470354 6.02821901 10.7370443 3.625 7.375 C0 2.24727273 0 2.24727273 0 0 Z " fill="#DD1E4C" transform="translate(196,282)"/>
<path d="M0 0 C16.30068848 7.31025451 16.30068848 7.31025451 21.03515625 14.28125 C23.7620141 17.74825498 26.36876117 18.25351749 30.66015625 18.96875 C36.94934145 19.58843911 42.98285533 19.31824558 49.265625 18.765625 C53.6369901 18.43766474 57.96611154 18.34658381 62.34765625 18.34375 C63.05833252 18.33939941 63.76900879 18.33504883 64.5012207 18.33056641 C66.40891544 18.33558485 68.31619632 18.39993934 70.22265625 18.46875 C71.52396484 18.50742187 71.52396484 18.50742187 72.8515625 18.546875 C76.69633182 20.04171118 78.61578444 23.1071538 81.03515625 26.34375 C81.53724609 26.98183594 82.03933594 27.61992187 82.55664062 28.27734375 C86.22265625 33.0556335 86.22265625 33.0556335 86.22265625 36.46875 C83.67419692 34.07956938 81.55059828 32.01604112 79.7421875 28.99804688 C76.92512038 24.5661621 74.92833111 21.85885284 69.66796875 20.65576172 C65.50667609 20.36218983 61.38033269 20.59374223 57.22265625 20.84375 C55.76577836 20.89398717 54.30873332 20.93960127 52.8515625 20.98046875 C49.30508295 21.08991846 45.76495046 21.26198893 42.22265625 21.46875 C45.60443451 28.65067083 49.73143901 35.26618363 53.97265625 41.96875 C54.67003906 43.07734375 55.36742187 44.1859375 56.0859375 45.328125 C57.79489779 48.04373313 59.50832719 50.75652791 61.22265625 53.46875 C67.16265625 52.97375 67.16265625 52.97375 73.22265625 52.46875 C73.22265625 53.12875 73.22265625 53.78875 73.22265625 54.46875 C72.51238281 54.60152344 71.80210937 54.73429687 71.0703125 54.87109375 C70.15121094 55.04769531 69.23210937 55.22429687 68.28515625 55.40625 C67.36863281 55.58027344 66.45210938 55.75429688 65.5078125 55.93359375 C63.26975781 56.24589988 63.26975781 56.24589988 62.22265625 57.46875 C60.14325789 57.62147417 58.05746694 57.69070322 55.97265625 57.71875 C54.833125 57.74453125 53.69359375 57.7703125 52.51953125 57.796875 C48.91987886 57.43861576 47.17764725 56.47117891 44.22265625 54.46875 C41.53010634 53.76204272 41.53010634 53.76204272 39.22265625 53.46875 C42.22265625 51.46875 42.22265625 51.46875 45.22265625 51.46875 C25.27361779 21.19807447 25.27361779 21.19807447 -3.77734375 0.46875 C-1.77734375 -0.53125 -1.77734375 -0.53125 0 0 Z M27.22265625 20.46875 C28.51884965 24.01037919 30.05230986 26.90930386 32.234375 29.98046875 C32.82798828 30.82158203 33.42160156 31.66269531 34.03320312 32.52929688 C34.65259766 33.39619141 35.27199219 34.26308594 35.91015625 35.15625 C37.12239583 36.86848958 38.33463542 38.58072917 39.546875 40.29296875 C40.15313721 41.13730469 40.75939941 41.98164063 41.3840332 42.8515625 C42.64742061 44.64993098 43.87348174 46.47492363 45.06713867 48.3203125 C45.96009644 49.68349609 45.96009644 49.68349609 46.87109375 51.07421875 C47.39751465 51.90203857 47.92393555 52.7298584 48.46630859 53.58276367 C50.10053403 55.68653966 50.10053403 55.68653966 52.75463867 56.07299805 C55.0016921 56.09238296 57.02366931 55.91752285 59.22265625 55.46875 C57.94308926 52.08095827 56.47986989 49.02314115 54.61328125 45.921875 C54.10539062 45.07625 53.5975 44.230625 53.07421875 43.359375 C52.54570312 42.48796875 52.0171875 41.6165625 51.47265625 40.71875 C50.95960938 39.8628125 50.4465625 39.006875 49.91796875 38.125 C48.37168795 35.56081576 46.80169796 33.01287062 45.22265625 30.46875 C44.69865234 29.60701172 44.17464844 28.74527344 43.63476562 27.85742188 C43.12236328 27.04337891 42.60996094 26.22933594 42.08203125 25.390625 C41.62795898 24.6594043 41.17388672 23.92818359 40.70605469 23.17480469 C38.93213969 21.13462727 37.864584 20.82142492 35.22265625 20.46875 C33.80730847 20.40418121 32.38927936 20.38263961 30.97265625 20.40625 C29.73515625 20.426875 28.49765625 20.4475 27.22265625 20.46875 Z " fill="#422631" transform="translate(168.77734375,261.53125)"/>
<path d="M0 0 C0.66 0.33 1.32 0.66 2 1 C1.4225 2.03125 0.845 3.0625 0.25 4.125 C-6.48039169 17.99441431 -6.50792637 30.88332975 -6 46 C-9.91782078 44.69405974 -12.47867615 43.31964735 -15 40 C-16.34235463 32.36866106 -14.92646955 24.05726938 -13.8125 16.4375 C-13.71187256 15.67614746 -13.61124512 14.91479492 -13.50756836 14.13037109 C-12.65588234 8.97672566 -11.21837738 6.36840582 -7 3 C-4.66613816 1.58752249 -2.61864016 0.88934949 0 0 Z " fill="#AAA99C" transform="translate(207,168)"/>
<path d="M0 0 C9.13571157 0.48941312 15.232065 4.45228462 21.453125 11.05859375 C25.41614314 16.03238167 27.38454585 20.78481153 27 27.1875 C26.32304904 31.70755798 24.93067969 34.51981787 22 38 C21.67 38 21.34 38 21 38 C20.93683594 37.29617188 20.87367188 36.59234375 20.80859375 35.8671875 C19.41597237 24.63826139 14.63905077 12.70938914 6 5 C4.04907837 3.5535501 2.06778897 2.28005984 0 1 C0 0.67 0 0.34 0 0 Z " fill="#AAA99C" transform="translate(211,334)"/>
<path d="M0 0 C0.66 0 1.32 0 2 0 C4.87233546 6.15004083 4.84319949 12.34474686 4 19 C1.38156711 25.19952493 -4.01463808 29.19604667 -10 32 C-10.66 32 -11.32 32 -12 32 C-12.03867187 32.8353125 -12.03867187 32.8353125 -12.078125 33.6875 C-12.73731901 42.55665571 -16.1089753 49.71267918 -22.8671875 55.63671875 C-27.94771156 59.51491238 -32.12605468 60.95780665 -38.54296875 60.58984375 C-41.21705792 59.9478923 -42.26410723 59.35492247 -44.0625 57.3125 C-47.20583468 51.93841167 -47.20583468 51.93841167 -48 49 C-47.67 48.01 -47.34 47.02 -47 46 C-47.99 45.67 -48.98 45.34 -50 45 C-47.525 44.505 -47.525 44.505 -45 44 C-44.89042969 44.68707031 -44.78085937 45.37414062 -44.66796875 46.08203125 C-44.50941406 46.98308594 -44.35085938 47.88414062 -44.1875 48.8125 C-44.03667969 49.70582031 -43.88585937 50.59914063 -43.73046875 51.51953125 C-42.92824464 54.24366124 -42.27507484 55.33268747 -40 57 C-34.84069938 57.80058113 -31.84353686 57.2798535 -27.375 54.5625 C-20.23377392 49.33300111 -17.40104089 43.40364313 -15 35 C-21.93 37.475 -21.93 37.475 -29 40 C-29 39.01 -29 38.02 -29 37 C-27.7934375 36.49210937 -26.586875 35.98421875 -25.34375 35.4609375 C-10.30015401 29.29500286 -10.30015401 29.29500286 1 18 C1.51830095 14.82164643 1.51830095 14.82164643 1.3125 11.5 C1.28800781 10.3965625 1.26351562 9.293125 1.23828125 8.15625 C1.02653802 5.35151994 0.6282236 2.7376248 0 0 Z " fill="#27282E" transform="translate(303,317)"/>
<path d="M0 0 C7.14987578 2.09565325 10.74991736 7.02193 14.625 13.0625 C14.625 13.7225 14.625 14.3825 14.625 15.0625 C13.93535156 15.00449219 13.24570313 14.94648438 12.53515625 14.88671875 C5.18396701 14.533781 0.66485522 15.88679763 -5.375 20.0625 C-8.03590082 14.10208215 -8.97393284 10.45823138 -7.375 4.0625 C-5.13611907 0.531957 -4.19980758 0.07777421 0 0 Z " fill="#ADAC9F" transform="translate(209.375,335.9375)"/>
<path d="M0 0 C2.78010472 2.23617119 4.7046213 4.50404859 6.875 7.3125 C4.64736012 8.12940177 2.4180514 8.94111872 0.1875 9.75 C-0.43833984 9.98009766 -1.06417969 10.21019531 -1.70898438 10.44726562 C-8.83033806 13.01990125 -8.83033806 13.01990125 -12.125 13.3125 C-14.625 11 -14.625 11 -17.125 8.3125 C-19.79033035 6.993482 -19.79033035 6.993482 -22.125 6.3125 C-21.125 3.3125 -21.125 3.3125 -19.41796875 2.1796875 C-18.37576172 1.68855469 -18.37576172 1.68855469 -17.3125 1.1875 C-16.62542969 0.85492188 -15.93835938 0.52234375 -15.23046875 0.1796875 C-9.90915713 -2.01202155 -5.23019714 -2.82430646 0 0 Z " fill="#ACAB9E" transform="translate(293.125,279.6875)"/>
<path d="M0 0 C5.02874305 0.77734387 9.48232706 2.75011631 14.12109375 4.74023438 C23.63140102 8.69142389 32.29996396 9.27266239 42.5625 9.125 C43.76197266 9.11597656 44.96144531 9.10695313 46.19726562 9.09765625 C49.13172309 9.07427412 52.06575234 9.0415028 55 9 C49.71514436 14.53432709 42.59294863 15.2014348 35.1875 15.375 C24.00639172 15.08331891 14.8079492 13.05697135 6 6 C5.37867188 5.51660156 4.75734375 5.03320312 4.1171875 4.53515625 C2.70628813 3.40315559 1.3462482 2.20817146 0 1 C0 0.67 0 0.34 0 0 Z " fill="#ACAC9E" transform="translate(229,251)"/>
<path d="M0 0 C1.5728232 5.60635365 1.78334324 10.88497325 -0.25 16.375 C-2.07361146 19.11041718 -3.04795829 20.5638716 -6 22 C-8.71994749 22.23492829 -11.25956977 22.13702151 -14 22 C-13.85046875 21.46117187 -13.7009375 20.92234375 -13.546875 20.3671875 C-12.91502101 17.63216237 -12.60423814 14.90931178 -12.25 12.125 C-11.35404489 6.5660058 -10.11522124 3.80657965 -6 0 C-3.50907189 -1.24546405 -2.58919267 -0.7767578 0 0 Z " fill="#DEDECF" transform="translate(281,296)"/>
<path d="M0 0 C0.66 0.33 1.32 0.66 2 1 C1.91878906 1.556875 1.83757812 2.11375 1.75390625 2.6875 C1.45441776 6.30580989 1.283942 8.95018615 3.3828125 12.02734375 C4.61541784 13.33198447 5.85949779 14.62585474 7.11328125 15.91015625 C12.8826916 22.30070395 14.80255424 29.56368115 15 38 C15.99 38 16.98 38 18 38 C18 38.66 18 39.32 18 40 C15.75596298 40.89401475 13.50709867 41.76515289 11.25 42.625 C10.61578125 42.88023437 9.9815625 43.13546875 9.328125 43.3984375 C4.54904562 45.19059227 4.54904562 45.19059227 1.546875 44.1484375 C0.78117187 43.57996094 0.78117187 43.57996094 0 43 C1.41396902 42.49242138 2.83131729 41.99425075 4.25 41.5 C5.03890625 41.2215625 5.8278125 40.943125 6.640625 40.65625 C9 40 9 40 13 40 C11.65687974 28.15247654 7.98511825 20.72791995 0 12 C-0.70125 12.309375 -1.4025 12.61875 -2.125 12.9375 C-9.00855065 15.48142089 -14.30713765 14.66892071 -21.3125 13.1875 C-22.23095703 13.00896484 -23.14941406 12.83042969 -24.09570312 12.64648438 C-29.12580618 11.61667022 -29.12580618 11.61667022 -31 11 C-31.33 10.34 -31.66 9.68 -32 9 C-26.84958612 9.41641644 -21.85623542 9.97834433 -16.8125 11.125 C-11.09654804 12.32741376 -6.10796351 12.06477811 -1 9 C-1.020625 7.700625 -1.04125 6.40125 -1.0625 5.0625 C-1.08399454 3.70834367 -1.07148199 2.35243917 -1 1 C-0.67 0.67 -0.34 0.34 0 0 Z " fill="#323336" transform="translate(256,317)"/>
<path d="M0 0 C0 1.66666667 0 3.33333333 0 5 C-0.61746094 5.20753906 -1.23492187 5.41507813 -1.87109375 5.62890625 C-12.27243313 9.41265071 -19.03175512 15.54914983 -26 24 C-22.37 24.33 -18.74 24.66 -15 25 C-15 25.33 -15 25.66 -15 26 C-27.98361947 27.06506253 -27.98361947 27.06506253 -32.28515625 24.79296875 C-33.5090754 23.6443677 -34.6901077 22.44890164 -35.83203125 21.21875 C-38.70382035 18.27969377 -41.90678432 15.9986532 -45.25 13.625 C-46.15504272 12.96395264 -46.15504272 12.96395264 -47.07836914 12.28955078 C-51.16958629 9.1989893 -51.16958629 9.1989893 -56 8 C-56.804375 8.825 -57.60875 9.65 -58.4375 10.5 C-59.283125 11.325 -60.12875 12.15 -61 13 C-63.8125 12.8125 -63.8125 12.8125 -66 12 C-63.47764868 10.31843245 -60.96413358 8.83531994 -58.3125 7.375 C-57.50425781 6.92898437 -56.69601563 6.48296875 -55.86328125 6.0234375 C-55.24839844 5.68570313 -54.63351563 5.34796875 -54 5 C-46.74493159 9.91252281 -39.70295916 14.87438862 -33.0234375 20.56640625 C-31.00532149 22.28905237 -31.00532149 22.28905237 -28 22 C-26.3625346 20.20129922 -26.3625346 20.20129922 -24.8125 17.875 C-18.29537051 9.20355952 -9.47982665 4.88442288 0 0 Z " fill="#343539" transform="translate(227,248)"/>
<path d="M0 0 C0.33 0 0.66 0 1 0 C1.03738281 0.96679688 1.07476562 1.93359375 1.11328125 2.9296875 C1.9182209 18.87064927 5.67660418 29.61860953 17.71484375 40.625 C19 42 19 42 19 44 C12.9186591 42.96834395 8.83536804 37.93733293 4.75 33.625 C0.12252419 26.68378628 -2.13947502 19.87082194 -2.1875 11.5625 C-2.20167969 10.45003906 -2.21585938 9.33757812 -2.23046875 8.19140625 C-2.00247902 5.03432812 -1.34441009 2.84292253 0 0 Z " fill="#EFEFF0" transform="translate(214,200)"/>
<path d="M0 0 C1.32 0.33 2.64 0.66 4 1 C3.37562015 7.78208826 2.5667292 14.51393954 1.5625 21.25 C1.44068359 22.10851562 1.31886719 22.96703125 1.19335938 23.8515625 C-0.54225949 35.54225949 -0.54225949 35.54225949 -3 38 C-4.99958364 38.04080783 -7.00045254 38.04254356 -9 38 C-8.67386719 37.2471875 -8.34773438 36.494375 -8.01171875 35.71875 C-3.24958368 24.14353083 -1.11202365 12.45466483 0 0 Z " fill="#D8D8CA" transform="translate(339,197)"/>
<path d="M0 0 C4.1621776 1.65277754 7.05961279 4.65607055 10.1875 7.75 C10.73341797 8.26304687 11.27933594 8.77609375 11.84179688 9.3046875 C15.27891427 12.69495447 16.73704019 14.9812241 17 20 C10.95382995 19.87403812 8.13604976 17.90514527 3.69921875 13.88671875 C-0.36578764 9.37315993 -0.19454336 5.83630069 0 0 Z " fill="#D9D9CB" transform="translate(171,281)"/>
<path d="M0 0 C-0.12117187 0.63164062 -0.24234375 1.26328125 -0.3671875 1.9140625 C-2.61118929 13.89357976 -4.23199439 25.83317429 -5 38 C-5.99 38 -6.98 38 -8 38 C-11.46818034 31.06363932 -8.90199932 19.85235704 -7.75 12.375 C-7.64075195 11.60542969 -7.53150391 10.83585938 -7.41894531 10.04296875 C-6.66092357 5.54656683 -5.47326938 0 0 0 Z " fill="#DBDBCC" transform="translate(201,172)"/>
<path d="M0 0 C1.65 0.33 3.3 0.66 5 1 C3.19573525 13.76421337 3.19573525 13.76421337 1.875 18 C1.04459392 20.84710658 0.82166555 23.05748153 1 26 C0.401875 26.144375 -0.19625 26.28875 -0.8125 26.4375 C-2.56150404 26.8872439 -4.28677023 27.42892341 -6 28 C-5.05292616 18.18033969 -3.61545891 9.26680732 0 0 Z " fill="#47474B" transform="translate(208,141)"/>
<path d="M0 0 C-0.24743148 3.54445594 -0.71995037 4.74768256 -3.40625 7.16796875 C-17.01006036 16.04823385 -17.01006036 16.04823385 -24.25 14.52734375 C-24.8275 14.35332031 -25.405 14.17929687 -26 14 C-24.55161985 10.23431159 -22.92576252 9.11146279 -19.31640625 7.421875 C-18.38892578 6.98359375 -17.46144531 6.5453125 -16.50585938 6.09375 C-15.53455078 5.6503125 -14.56324219 5.206875 -13.5625 4.75 C-12.59505859 4.29109375 -11.62761719 3.8321875 -10.63085938 3.359375 C-3.42719959 0 -3.42719959 0 0 0 Z " fill="#F7F7F7" transform="translate(308,299)"/>
<path d="M0 0 C0.79921875 0.01804687 1.5984375 0.03609375 2.421875 0.0546875 C3.02515625 0.07789063 3.6284375 0.10109375 4.25 0.125 C3.59 1.445 2.93 2.765 2.25 4.125 C1.59 3.795 0.93 3.465 0.25 3.125 C-0.41 5.435 -1.07 7.745 -1.75 10.125 C-3.3896875 10.3415625 -3.3896875 10.3415625 -5.0625 10.5625 C-8.68122987 11.00788104 -8.68122987 11.00788104 -11.75 12.125 C-13.81587115 12.03926773 -15.87946525 11.88666465 -17.9375 11.6875 C-19.02417969 11.58566406 -20.11085937 11.48382813 -21.23046875 11.37890625 C-22.06191406 11.29511719 -22.89335937 11.21132813 -23.75 11.125 C-23.75 10.795 -23.75 10.465 -23.75 10.125 C-22.76 10.104375 -21.77 10.08375 -20.75 10.0625 C-16.24808784 9.45980993 -13.80562943 6.90024745 -10.64453125 3.81640625 C-7.19993724 0.74112953 -4.5958992 -0.13517351 0 0 Z " fill="#A6A599" transform="translate(223.75,261.875)"/>
<path d="M0 0 C0.33 0 0.66 0 1 0 C1 3.63 1 7.26 1 11 C4.63 11 8.26 11 12 11 C8.09567131 12.95216435 5.27786748 13.50639991 1 14 C1.350625 14.9075 1.70125 15.815 2.0625 16.75 C2.96468779 19.87758436 3.13381507 21.05208081 2 24 C0.68 21.69 -0.64 19.38 -2 17 C-3.1446875 17.4640625 -3.1446875 17.4640625 -4.3125 17.9375 C-6.18789677 18.67893593 -8.08684652 19.36228217 -10 20 C-9.5359375 19.13375 -9.5359375 19.13375 -9.0625 18.25 C-8.07416636 16.15705816 -7.4831387 14.25464725 -7 12 C-8.98 10.35 -10.96 8.7 -13 7 C-12.34 6.67 -11.68 6.34 -11 6 C-8.64018187 6.93578995 -6.30368736 7.93347808 -4 9 C-2.68 6.03 -1.36 3.06 0 0 Z " fill="#0C0C0C" transform="translate(356,353)"/>
<path d="M0 0 C4.43586136 0.55120171 7.8129633 1.64009635 11.75 3.75 C13.16539062 4.48476563 13.16539062 4.48476563 14.609375 5.234375 C17.3602809 7.26608981 18.05307528 8.76283874 19 12 C18.030625 12.28875 17.06125 12.5775 16.0625 12.875 C12.89335797 13.64214682 12.89335797 13.64214682 12 16 C7.39677679 11.69199538 3.40973465 7.95346208 1 2 C0.67 1.34 0.34 0.68 0 0 Z " fill="#ACAB9D" transform="translate(290,271)"/>
<path d="M0 0 C0.65234375 1.796875 0.65234375 1.796875 1 4 C-3.17609414 11.8652894 -14.32070281 15.52127837 -22 19 C-22.64453125 19.29712891 -23.2890625 19.59425781 -23.953125 19.90039062 C-26.8193405 21.18597258 -28.82123091 22 -32 22 C-31.76196289 20.13647461 -31.76196289 20.13647461 -31 18 C-29.17749023 16.79907227 -29.17749023 16.79907227 -26.80859375 15.81640625 C-25.51405273 15.26049805 -25.51405273 15.26049805 -24.19335938 14.69335938 C-23.28392578 14.32017578 -22.37449219 13.94699219 -21.4375 13.5625 C-9.14113059 8.90599638 -9.14113059 8.90599638 0 0 Z " fill="#F4F4F4" transform="translate(303,333)"/>
<path d="M0 0 C1.32 0.66 2.64 1.32 4 2 C-0.25782381 34.06270351 -0.25782381 34.06270351 -8 41 C-8.99 40.67 -9.98 40.34 -11 40 C-10.16855469 38.44152344 -10.16855469 38.44152344 -9.3203125 36.8515625 C-2.75158293 24.3108496 -0.77723186 14.19470811 0 0 Z " fill="#AAA99C" transform="translate(336,195)"/>
<path d="M0 0 C2.64 0 5.28 0 8 0 C10.77591874 4.66956873 10.15203209 8.84019429 9 14 C7.88135984 16.38768571 6.71822795 17.95960431 5 20 C4.67 20 4.34 20 4 20 C3.87882813 19.19175781 3.75765625 18.38351562 3.6328125 17.55078125 C3.46523437 16.48214844 3.29765625 15.41351563 3.125 14.3125 C2.96257812 13.25675781 2.80015625 12.20101563 2.6328125 11.11328125 C2.04010836 8.19732324 1.11308058 5.74528699 0 3 C0 2.01 0 1.02 0 0 Z " fill="#DBDBCD" transform="translate(228,352)"/>
<path d="M0 0 C-0.66 0.33 -1.32 0.66 -2 1 C-2 1.66 -2 2.32 -2 3 C-2.65895264 3.0093457 -3.31790527 3.01869141 -3.99682617 3.02832031 C-21.8990493 3.2357705 -21.8990493 3.2357705 -39 8 C-39.76828125 8.30679688 -40.5365625 8.61359375 -41.328125 8.9296875 C-42.90227545 9.58041898 -44.45553663 10.28164494 -46 11 C-46 10.01 -46 9.02 -46 8 C-30.81006243 0.15703224 -16.72416538 -0.46682111 0 0 Z " fill="#3B3C40" transform="translate(275,135)"/>
<path d="M0 0 C0.66 0.33 1.32 0.66 2 1 C1.649375 1.515625 1.29875 2.03125 0.9375 2.5625 C-0.45153812 6.17399912 0.00371378 8.26392669 1 12 C3.22565792 15.72540895 5.61366879 19.02535212 9.18359375 21.53515625 C9.78300781 22.01855469 10.38242188 22.50195312 11 23 C11.25 26.1875 11.25 26.1875 11 29 C4.60644229 24.0716326 -2.43901114 17.68578367 -4.64453125 9.65234375 C-4.82315789 6.11288993 -4.20463941 4.25579926 -2 1.5 C-1.34 1.005 -0.68 0.51 0 0 Z " fill="#F4F4F3" transform="translate(189,317)"/>
<path d="M0 0 C-1.12451727 2.9719385 -2.22293791 5.33440687 -4 8 C-4.45687332 10.224346 -4.82752994 12.46685205 -5.1484375 14.71484375 C-5.35105536 16.05411328 -5.55419663 17.39330371 -5.7578125 18.73242188 C-6.06915833 20.83597058 -6.3753469 22.93996338 -6.671875 25.0456543 C-6.96203217 27.08367433 -7.2726179 29.11777424 -7.5859375 31.15234375 C-7.7617334 32.36913818 -7.9375293 33.58593262 -8.11865234 34.83959961 C-9.0996861 38.35746164 -10.13633441 39.78406016 -13 42 C-15.86090492 42.22970769 -18.1483956 41.57032088 -21 41 C-21 40.67 -21 40.34 -21 40 C-18.36 39.67 -15.72 39.34 -13 39 C-10.75023164 33.16276317 -9.87668967 27.14369662 -8.875 21 C-8.69324219 19.93265625 -8.51148438 18.8653125 -8.32421875 17.765625 C-8.15277344 16.72921875 -7.98132813 15.6928125 -7.8046875 14.625 C-7.64983887 13.68914062 -7.49499023 12.75328125 -7.33544922 11.7890625 C-6.9794869 8.82944566 -6.94717904 5.97848693 -7 3 C-7 2.01 -7 1.02 -7 0 C-2.25 -1.125 -2.25 -1.125 0 0 Z " fill="#3E3E42" transform="translate(349,195)"/>
<path d="M0 0 C0.99 0.33 1.98 0.66 3 1 C2.34 2.98 1.68 4.96 1 7 C2.09054688 6.94779297 2.09054688 6.94779297 3.203125 6.89453125 C11.05934684 6.68301758 20.9211361 6.45028601 27.16796875 11.88671875 C28.77927915 13.7453945 30.34883608 15.58589042 31.8125 17.5625 C32.25207031 18.14128906 32.69164062 18.72007812 33.14453125 19.31640625 C33.42683594 19.87199219 33.70914063 20.42757813 34 21 C33.505 22.485 33.505 22.485 33 24 C32.56171875 23.24074219 32.1234375 22.48148437 31.671875 21.69921875 C28.08462889 16.07774161 25.53920166 12.49534828 18.875 10.875 C16.92385395 10.53859551 14.96456406 10.24622536 13 10 C12.0821875 9.82855469 11.164375 9.65710938 10.21875 9.48046875 C6.02737001 8.85481373 1.85490235 8.6432608 -2.375 8.4375 C-3.20644531 8.39431641 -4.03789062 8.35113281 -4.89453125 8.30664062 C-6.92953228 8.20138195 -8.96474703 8.10026928 -11 8 C-11 7.67 -11 7.34 -11 7 C-6.545 6.505 -6.545 6.505 -2 6 C-1.34 4.02 -0.68 2.04 0 0 Z " fill="#4A4A4E" transform="translate(224,265)"/>
<path d="M0 0 C0 0.66 0 1.32 0 2 C-0.969375 2.598125 -1.93875 3.19625 -2.9375 3.8125 C-8.78676309 7.7833412 -12.21624613 14.1739982 -16 20 C-17.32882613 22.00303879 -18.66455883 24.00136006 -20 26 C-20.66 25.34 -21.32 24.68 -22 24 C-24.64 24.99 -27.28 25.98 -30 27 C-29.55170486 25.01853549 -29.09107502 23.03985789 -28.625 21.0625 C-28.24214844 19.40927734 -28.24214844 19.40927734 -27.8515625 17.72265625 C-27.57054687 16.82417969 -27.28953125 15.92570313 -27 15 C-26.34 14.67 -25.68 14.34 -25 14 C-25.33 16.97 -25.66 19.94 -26 23 C-24.68 22.34 -23.36 21.68 -22 21 C-21.01 20.67 -20.02 20.34 -19 20 C-17.37111926 17.7182948 -17.37111926 17.7182948 -15.8125 14.9375 C-6.65914276 0 -6.65914276 0 0 0 Z " fill="#313236" transform="translate(229,145)"/>
<path d="M0 0 C-0.9080162 1.13199353 -1.82683826 2.25532363 -2.75 3.375 C-3.26046875 4.00148438 -3.7709375 4.62796875 -4.296875 5.2734375 C-7.13571511 8.15134421 -9.21649085 8.96986503 -13.25 9.125 C-14.1575 9.08375 -15.065 9.0425 -16 9 C-16 7.35 -16 5.7 -16 4 C-14.274773 3.32320342 -12.54461061 2.65898 -10.8125 2 C-9.84957031 1.62875 -8.88664062 1.2575 -7.89453125 0.875 C-5.07817642 0.02363228 -2.91835561 -0.17072647 0 0 Z " fill="#DADACC" transform="translate(274,358)"/>
<path d="M0 0 C2.22291464 2.90792157 4.27503248 5.89769214 6.3125 8.9375 C9.58010977 13.6312276 12.80141465 17.40070733 18 20 C22.65275976 20.3052622 22.65275976 20.3052622 27 19 C27.65772428 15.97065509 27.65772428 15.97065509 28 13 C28.66 14.32 29.32 15.64 30 17 C31.32 14.69 32.64 12.38 34 10 C34.495 10.99 34.495 10.99 35 12 C35.66 12.33 36.32 12.66 37 13 C35.33333333 14.66666667 33.66666667 16.33333333 32 18 C31.46375 18.5775 30.9275 19.155 30.375 19.75 C27.25759508 22.58400447 23.24237996 22.34013115 19.26953125 22.26953125 C13.1709341 21.54525723 9.34731518 16.53153755 5.61328125 12.09375 C0 4.80871671 0 4.80871671 0 0 Z " fill="#3A3B3F" transform="translate(203,354)"/>
<path d="M0 0 C0.33 0 0.66 0 1 0 C1 2.31 1 4.62 1 7 C2.98 7 4.96 7 7 7 C6.67 7.66 6.34 8.32 6 9 C4.35 9 2.7 9 1 9 C1.33 11.31 1.66 13.62 2 16 C0.5 14.625 0.5 14.625 -1 13 C-1 12.34 -1 11.68 -1 11 C-1.78375 11.515625 -2.5675 12.03125 -3.375 12.5625 C-4.24125 13.036875 -5.1075 13.51125 -6 14 C-6.66 13.67 -7.32 13.34 -8 13 C-7.01 12.01 -6.02 11.02 -5 10 C-5.309375 9.38125 -5.61875 8.7625 -5.9375 8.125 C-6.625 6.75 -7.3125 5.375 -8 4 C-5.03 4.495 -5.03 4.495 -2 5 C-1.34 3.35 -0.68 1.7 0 0 Z " fill="#272727" transform="translate(166,146)"/>
<path d="M0 0 C8.39610826 4.12440406 15.26435234 9.81444352 22.42529297 15.75073242 C23.89058578 16.91319805 25.44373019 17.9624868 27 19 C26.01 19.33 25.02 19.66 24 20 C21.65234375 18.375 21.65234375 18.375 18.9375 16 C9.99282491 7.53637163 9.99282491 7.53637163 -1 3 C-2.2065625 4.2375 -2.2065625 4.2375 -3.4375 5.5 C-4.283125 6.325 -5.12875 7.15 -6 8 C-8.8125 7.8125 -8.8125 7.8125 -11 7 C-8.62463329 5.41642219 -6.23494336 3.88406307 -3.8125 2.375 C-2.73935547 1.70597656 -2.73935547 1.70597656 -1.64453125 1.0234375 C-1.10183594 0.68570313 -0.55914062 0.34796875 0 0 Z " fill="#424348" transform="translate(172,253)"/>
<path d="M0 0 C-1.11666174 3.34998521 -1.74694925 3.79340222 -4.5625 5.6875 C-5.20316406 6.12449219 -5.84382813 6.56148438 -6.50390625 7.01171875 C-6.99761719 7.33785156 -7.49132812 7.66398437 -8 8 C-7.01 10.31 -6.02 12.62 -5 15 C-5.99 15 -6.98 15 -8 15 C-8.66 13.68 -9.32 12.36 -10 11 C-10.680625 11.144375 -11.36125 11.28875 -12.0625 11.4375 C-15.38360874 12.07345699 -18.63100032 12.68216984 -22 13 C-22.66 12.34 -23.32 11.68 -24 11 C-22.1746875 10.7834375 -22.1746875 10.7834375 -20.3125 10.5625 C-14.77554197 9.38986398 -10.80697343 6.41026689 -6.34301758 3.09985352 C-2.16221535 0 -2.16221535 0 0 0 Z " fill="#3C3D41" transform="translate(310,302)"/>
<path d="M0 0 C0.66 0 1.32 0 2 0 C1.05887061 6.24467027 -0.00875916 12.45825172 -1.375 18.625 C-1.58898437 19.60726562 -1.80296875 20.58953125 -2.0234375 21.6015625 C-3 24 -3 24 -5.1015625 25.3359375 C-5.72804687 25.55507812 -6.35453125 25.77421875 -7 26 C-5.23413932 17.1706966 -2.59122832 8.61435063 0 0 Z " fill="#D6D6C8" transform="translate(209,143)"/>
<path d="M0 0 C2 1.375 2 1.375 4 3 C4 3.66 4 4.32 4 5 C5.98 3.68 7.96 2.36 10 1 C9.34 2.98 8.68 4.96 8 7 C8.99 7.99 9.98 8.98 11 10 C9.35 10 7.7 10 6 10 C5.67 11.98 5.34 13.96 5 16 C4.34 16 3.68 16 3 16 C3 13.69 3 11.38 3 9 C1.35 9 -0.3 9 -2 9 C-0.68 8.34 0.64 7.68 2 7 C1.34 4.69 0.68 2.38 0 0 Z " fill="#242424" transform="translate(251,441)"/>
<path d="M0 0 C0.66 0 1.32 0 2 0 C2 1.32 2 2.64 2 4 C5.465 3.505 5.465 3.505 9 3 C7.625 4.5 7.625 4.5 6 6 C5.34 6 4.68 6 4 6 C4.515625 6.78375 5.03125 7.5675 5.5625 8.375 C6.036875 9.24125 6.51125 10.1075 7 11 C6.67 11.66 6.34 12.32 6 13 C5.01 12.01 4.02 11.02 3 10 C2.38125 10.309375 1.7625 10.61875 1.125 10.9375 C-0.25 11.625 -1.625 12.3125 -3 13 C-2.67 11.02 -2.34 9.04 -2 7 C-3.32 6.01 -4.64 5.02 -6 4 C-4.02 4 -2.04 4 0 4 C0 2.68 0 1.36 0 0 Z " fill="#1C1C1C" transform="translate(102,372)"/>
<path d="M0 0 C1 3 1 3 0.0625 5.1875 C-0.288125 5.785625 -0.63875 6.38375 -1 7 C0.65 7.33 2.3 7.66 4 8 C4 8.33 4 8.66 4 9 C2.35 9 0.7 9 -1 9 C-1 11.64 -1 14.28 -1 17 C-3.1385485 14.8614515 -3.42655063 13.86724686 -4 11 C-6.31 11.33 -8.62 11.66 -11 12 C-9.35 10.35 -7.7 8.7 -6 7 C-6.99 5.35 -7.98 3.7 -9 2 C-8.1028125 2.4640625 -8.1028125 2.4640625 -7.1875 2.9375 C-4.91043228 4.10209704 -4.91043228 4.10209704 -2 5 C-1.34 3.35 -0.68 1.7 0 0 Z " fill="#212121" transform="translate(400,83)"/>
<path d="M0 0 C1.98 0.99 3.96 1.98 6 3 C6.99 2.34 7.98 1.68 9 1 C8.67 2.65 8.34 4.3 8 6 C10.97 6.495 10.97 6.495 14 7 C14 7.33 14 7.66 14 8 C12.02 8 10.04 8 8 8 C8 10.64 8 13.28 8 16 C6 13 6 13 5 10 C3.02 10 1.04 10 -1 10 C-0.484375 9.5875 0.03125 9.175 0.5625 8.75 C1.036875 8.1725 1.51125 7.595 2 7 C1.8237956 4.96128755 1.8237956 4.96128755 1 3 C0.67 2.01 0.34 1.02 0 0 Z " fill="#1C1C1C" transform="translate(256,56)"/>
<path d="M0 0 C1.65 1.65 3.3 3.3 5 5 C6.32 4.01 7.64 3.02 9 2 C9.66 2.33 10.32 2.66 11 3 C9.68 4.65 8.36 6.3 7 8 C8.32 9.32 9.64 10.64 11 12 C8.69 11.34 6.38 10.68 4 10 C3.67 11.98 3.34 13.96 3 16 C2.67 16 2.34 16 2 16 C2 13.69 2 11.38 2 9 C0.02 9 -1.96 9 -4 9 C-1 7 -1 7 2 7 C1.34 4.69 0.68 2.38 0 0 Z " fill="#1D1D1D" transform="translate(78,83)"/>
<path d="M0 0 C0.66 0.33 1.32 0.66 2 1 C1.67 3.97 1.34 6.94 1 10 C1.64066406 9.77183594 2.28132812 9.54367187 2.94140625 9.30859375 C8.47460979 7.46969004 12.30441206 6.63801158 18 8 C17.67 9.32 17.34 10.64 17 12 C16.41992188 11.91621094 15.83984375 11.83242188 15.2421875 11.74609375 C11.4569897 11.25264387 8.41220275 10.92366616 4.625 11.625 C2 12 2 12 0.31640625 10.81640625 C-1.4320679 8.40382323 -1.14955358 7.21083608 -0.6875 4.3125 C-0.56761719 3.50425781 -0.44773438 2.69601562 -0.32421875 1.86328125 C-0.21722656 1.24839844 -0.11023438 0.63351562 0 0 Z " fill="#444548" transform="translate(238,355)"/>
<path d="M0 0 C1.65 0.33 3.3 0.66 5 1 C4.401875 1.2475 3.80375 1.495 3.1875 1.75 C0.58679257 3.23611853 -0.54416577 4.37949839 -2 7 C-2.56773015 10.81190246 -2.36729356 12.43594203 -0.25 15.6875 C1.7315853 17.72412934 3.65350642 19.4077365 6 21 C3.37886292 21 1.49064888 20.68707555 -1 20 C-1 19.34 -1 18.68 -1 18 C-4.96 18 -8.92 18 -13 18 C-13 17.67 -13 17.34 -13 17 C-9.7 17 -6.4 17 -3 17 C-3.33 16.34 -3.66 15.68 -4 15 C-4.54129128 9.98640045 -4.76641668 6.19752606 -2 1.875 C-1.34 1.25625 -0.68 0.6375 0 0 Z " fill="#242027" transform="translate(255,297)"/>
<path d="M0 0 C9.02438933 2.31394598 15.39174866 7.80993418 21 15 C17.3347505 15 17.03409798 14.35540947 14.5 11.875 C9.83368746 7.60044877 4.62804927 4.82437031 -1 2 C-0.67 1.34 -0.34 0.68 0 0 Z " fill="#2C2D32" transform="translate(293,258)"/>
<path d="M0 0 C0.66 0 1.32 0 2 0 C2.1754368 5.50432961 1.5274161 10.53662347 0.5 15.9375 C0.35691406 16.71673828 0.21382813 17.49597656 0.06640625 18.29882812 C-0.28354724 20.2002421 -0.64099665 22.10027393 -1 24 C-1.99 24 -2.98 24 -4 24 C-2.80039297 15.97284232 -1.50253855 7.9762419 0 0 Z " fill="#D5D5C8" transform="translate(342,170)"/>
<path d="M0 0 C6.93 0 13.86 0 21 0 C20.01 0.495 20.01 0.495 19 1 C19 1.66 19 2.32 19 3 C12.73 3 6.46 3 0 3 C0 2.01 0 1.02 0 0 Z " fill="#4D4E50" transform="translate(254,135)"/>
<path d="M0 0 C3 1 3 1 4.6875 3.375 C6.47304056 8.30649297 6.24928545 12.81116953 6 18 C5.34 18 4.68 18 4 18 C3.32873871 15.5636811 2.66283646 13.12611117 2 10.6875 C1.71382813 9.65206055 1.71382813 9.65206055 1.421875 8.59570312 C0.62283816 5.64212051 0 3.07440781 0 0 Z " fill="#E7E7E8" transform="translate(299,190)"/>
<path d="M0 0 C9.54033795 3.79257879 18.95907368 8.45938003 25 17 C24.34 17.33 23.68 17.66 23 18 C22.38125 17.319375 21.7625 16.63875 21.125 15.9375 C14.47371856 9.34242657 6.8100434 5.01790848 -2 2 C-1.34 1.34 -0.68 0.68 0 0 Z " fill="#46313A" transform="translate(167,261)"/>
<path d="M0 0 C12.66970387 0.77904328 12.66970387 0.77904328 18 3 C18 3.99 18 4.98 18 6 C9.09 4.02 9.09 4.02 0 2 C0 1.34 0 0.68 0 0 Z " fill="#3D3E42" transform="translate(273,136)"/>
<path d="M0 0 C0.33 0.66 0.66 1.32 1 2 C1.66 2 2.32 2 3 2 C1.90301833 7.69139902 0.45946923 12.74567937 -2 18 C-2.99 18 -3.98 18 -5 18 C-4.80664062 17.45472656 -4.61328125 16.90945312 -4.4140625 16.34765625 C-2.55239547 10.9561948 -1.12344334 5.59078274 0 0 Z " fill="#2E2E32" transform="translate(332,210)"/>
<path d="M0 0 C0.33 0 0.66 0 1 0 C1 1.98 1 3.96 1 6 C1.99 6 2.98 6 4 6 C4 6.66 4 7.32 4 8 C1.75596298 8.89401475 -0.49290133 9.76515289 -2.75 10.625 C-3.38421875 10.88023437 -4.0184375 11.13546875 -4.671875 11.3984375 C-6.546875 12.1015625 -6.546875 12.1015625 -10 13 C-11.32 12.34 -12.64 11.68 -14 11 C-9.71 9.68 -5.42 8.36 -1 7 C-0.67 4.69 -0.34 2.38 0 0 Z " fill="#3E3F43" transform="translate(270,349)"/>
<path d="M0 0 C-1 3 -1 3 -2.71484375 4.17578125 C-5.45694018 5.1648109 -7.65206874 5.23105747 -10.5625 5.1875 C-11.51253906 5.18105469 -12.46257812 5.17460937 -13.44140625 5.16796875 C-16 5 -16 5 -19 4 C-19 3.34 -19 2.68 -19 2 C-18.19175781 2.02320313 -17.38351562 2.04640625 -16.55078125 2.0703125 C-15.48214844 2.08835937 -14.41351563 2.10640625 -13.3125 2.125 C-12.25675781 2.14820313 -11.20101563 2.17140625 -10.11328125 2.1953125 C-6.46816758 1.96663536 -3.53008935 0 0 0 Z " fill="#2B2B30" transform="translate(279,316)"/>
<path d="M0 0 C2.73872955 0.45772063 2.73872955 0.45772063 5.6875 0.625 C6.68136719 0.69976562 7.67523438 0.77453125 8.69921875 0.8515625 C9.45847656 0.90054687 10.21773437 0.94953125 11 1 C11 1.33 11 1.66 11 2 C9.49759766 1.94779297 9.49759766 1.94779297 7.96484375 1.89453125 C-1.89763195 1.57665819 -1.89763195 1.57665819 -11 5 C-10.375 2.625 -10.375 2.625 -9 0 C-3.80981595 -2.5398773 -3.80981595 -2.5398773 0 0 Z " fill="#211E25" transform="translate(200,312)"/>
<path d="M0 0 C0.33 0.66 0.66 1.32 1 2 C1.66 2.33 2.32 2.66 3 3 C1.33333333 4.66666667 -0.33333333 6.33333333 -2 8 C-2.804375 8.86625 -2.804375 8.86625 -3.625 9.75 C-6.89337213 12.72124739 -10.85927839 12.07812682 -15 12 C-15 11.67 -15 11.34 -15 11 C-12.36 10.34 -9.72 9.68 -7 9 C-6.67 7.02 -6.34 5.04 -6 3 C-5.34 4.32 -4.68 5.64 -4 7 C-2.68 4.69 -1.36 2.38 0 0 Z " fill="#28292F" transform="translate(237,364)"/>
<path d="M0 0 C1.37562854 1.28965176 2.70766393 2.62689293 4 4 C4 4.66 4 5.32 4 6 C7.96 6 11.92 6 16 6 C16 6.33 16 6.66 16 7 C13.93816367 7.08150744 11.87538651 7.1394194 9.8125 7.1875 C8.08966797 7.23970703 8.08966797 7.23970703 6.33203125 7.29296875 C2.68887649 6.97264447 0.9810266 6.02875421 -2 4 C-4.69254991 3.29329272 -4.69254991 3.29329272 -7 3 C-4 1 -4 1 -1.8125 1.375 C-1.214375 1.58125 -0.61625 1.7875 0 2 C0 1.34 0 0.68 0 0 Z " fill="#48383E" transform="translate(215,312)"/>
<path d="M0 0 C0.33 1.32 0.66 2.64 1 4 C-0.4117783 4.53394179 -1.82970244 5.05165104 -3.25 5.5625 C-4.03890625 5.85253906 -4.8278125 6.14257812 -5.640625 6.44140625 C-8.19103452 7.04522837 -9.55322229 6.8473932 -12 6 C-8.37464179 2.82781157 -4.48849722 1.57097403 0 0 Z " fill="#FAFAFA" transform="translate(267,353)"/>
<path d="M0 0 C3.6875 1.5 3.6875 1.5 6 3 C5.34 3.66 4.68 4.32 4 5 C2.4221875 4.2884375 2.4221875 4.2884375 0.8125 3.5625 C-2.10175851 2.30676259 -4.84746914 1.47765619 -8 1 C-8 1.66 -8 2.32 -8 3 C-10.31 3.33 -12.62 3.66 -15 4 C-11.39003528 -1.50089862 -5.90123771 -0.74084802 0 0 Z " fill="#2D2E32" transform="translate(219,333)"/>
<path d="M0 0 C0.99 0.33 1.98 0.66 3 1 C2.34 2.98 1.68 4.96 1 7 C3.64 7 6.28 7 9 7 C9 7.33 9 7.66 9 8 C2.4 8 -4.2 8 -11 8 C-11 7.67 -11 7.34 -11 7 C-6.545 6.505 -6.545 6.505 -2 6 C-1.34 4.02 -0.68 2.04 0 0 Z " fill="#222328" transform="translate(224,265)"/>
<path d="M0 0 C0.9507007 3.02866082 1.02159552 5.05030877 0.25 8.125 C0.01023437 9.14980469 0.01023437 9.14980469 -0.234375 10.1953125 C-1 12 -1 12 -4 14 C-6.73990408 13.96856707 -9.28417854 13.44521663 -12 13 C-12 12.67 -12 12.34 -12 12 C-9.36 11.67 -6.72 11.34 -4 11 C-3.71125 10.113125 -3.4225 9.22625 -3.125 8.3125 C-2.16851252 5.49617576 -1.13201054 2.74916844 0 0 Z " fill="#36373B" transform="translate(340,223)"/>
<path d="M0 0 C0.66 0 1.32 0 2 0 C2.598125 0.9075 3.19625 1.815 3.8125 2.75 C5.95784188 5.93736508 7.93696996 7.7430305 11 10 C11.66 10.66 12.32 11.32 13 12 C8.10777516 12 7.02582691 10.85968373 3.55078125 7.734375 C1.44553073 5.37988828 0.65563265 3.05961902 0 0 Z " fill="#303035" transform="translate(170,289)"/>
<path d="M0 0 C0.66 0.33 1.32 0.66 2 1 C1.34 2.32 0.68 3.64 0 5 C-0.66 5 -1.32 5 -2 5 C-2.33 7.64 -2.66 10.28 -3 13 C-3.33 13 -3.66 13 -4 13 C-4.144375 12.21625 -4.28875 11.4325 -4.4375 10.625 C-4.87798925 8.03578982 -4.87798925 8.03578982 -6 6 C-4 4 -2 2 0 0 Z " fill="#3F4045" transform="translate(188,314)"/>
<path d="M0 0 C0.66 0 1.32 0 2 0 C0.125 4.875 0.125 4.875 -1 6 C2.63 6.33 6.26 6.66 10 7 C10 7.33 10 7.66 10 8 C5.05 8 0.1 8 -5 8 C-5 7.34 -5 6.68 -5 6 C-4.34 6 -3.68 6 -3 6 C-2.690625 5.195625 -2.38125 4.39125 -2.0625 3.5625 C-1 1 -1 1 0 0 Z " fill="#29292F" transform="translate(202,266)"/>
<path d="M0 0 C0 1.66666667 0 3.33333333 0 5 C-3.63 6.32 -7.26 7.64 -11 9 C-10 5 -10 5 -7.71484375 3.515625 C-6.79832031 3.09796875 -5.88179687 2.6803125 -4.9375 2.25 C-4.01839844 1.82203125 -3.09929687 1.3940625 -2.15234375 0.953125 C-1.44207031 0.63859375 -0.73179687 0.3240625 0 0 Z " fill="#3D3E42" transform="translate(227,248)"/>
<path d="M0 0 C0 0.66 0 1.32 0 2 C-1.61992165 2.86375896 -3.24611861 3.71575854 -4.875 4.5625 C-6.23238281 5.27599609 -6.23238281 5.27599609 -7.6171875 6.00390625 C-8.40351563 6.33261719 -9.18984375 6.66132813 -10 7 C-10.66 6.67 -11.32 6.34 -12 6 C-8.08394163 1.80422318 -5.83338839 0 0 0 Z " fill="#27282C" transform="translate(282,277)"/>
<path d="M0 0 C0.99 0.33 1.98 0.66 3 1 C2.07456291 2.34173403 1.13422595 3.67320159 0.1875 5 C-0.33457031 5.7425 -0.85664063 6.485 -1.39453125 7.25 C-1.92433594 7.8275 -2.45414062 8.405 -3 9 C-3.99 9 -4.98 9 -6 9 C-4.47291037 5.56404834 -2.40072955 2.88087546 0 0 Z " fill="#36373C" transform="translate(304,335)"/>
<path d="M0 0 C0.66 0 1.32 0 2 0 C2 1.65 2 3.3 2 5 C2.66 5 3.32 5 4 5 C4.33 3.68 4.66 2.36 5 1 C5 2.98 5 4.96 5 7 C4.34 7 3.68 7 3 7 C3 7.66 3 8.32 3 9 C2.01 8.67 1.02 8.34 0 8 C0 5.36 0 2.72 0 0 Z " fill="#202127" transform="translate(333,188)"/>
<path d="M0 0 C0.66 0 1.32 0 2 0 C1.34 3.96 0.68 7.92 0 12 C-0.99 12 -1.98 12 -3 12 C-2.69106068 10.3743193 -2.3777305 8.74947252 -2.0625 7.125 C-1.88847656 6.22007812 -1.71445313 5.31515625 -1.53515625 4.3828125 C-1 2 -1 2 0 0 Z " fill="#CFCFC2" transform="translate(209,143)"/>
<path d="M0 0 C1.65 0 3.3 0 5 0 C4.67 0.99 4.34 1.98 4 3 C4.33 3.66 4.66 4.32 5 5 C3.68 5 2.36 5 1 5 C0.67 5.99 0.34 6.98 0 8 C0 6.68 0 5.36 0 4 C-1.32 3.67 -2.64 3.34 -4 3 C-2.68 2.67 -1.36 2.34 0 2 C0 1.34 0 0.68 0 0 Z " fill="#3F3F3F" transform="translate(144,99)"/>
<path d="M0 0 C0.33 0.66 0.66 1.32 1 2 C0.67 2.99 0.34 3.98 0 5 C0.99 5.33 1.98 5.66 3 6 C1.68 6 0.36 6 -1 6 C-1.33 6.66 -1.66 7.32 -2 8 C-2 7.34 -2 6.68 -2 6 C-3.32 6.33 -4.64 6.66 -6 7 C-5.34 6.01 -4.68 5.02 -4 4 C-4.66 3.01 -5.32 2.02 -6 1 C-3.525 1.99 -3.525 1.99 -1 3 C-0.67 2.01 -0.34 1.02 0 0 Z " fill="#3D3D3D" transform="translate(399,201)"/>
<path d="M0 0 C0.103125 0.639375 0.20625 1.27875 0.3125 1.9375 C0.539375 2.618125 0.76625 3.29875 1 4 C1.99 4.33 2.98 4.66 4 5 C3.34 5 2.68 5 2 5 C1.67 5.99 1.34 6.98 1 8 C-1.0625 8.6875 -1.0625 8.6875 -3 9 C-3.33 7.02 -3.66 5.04 -4 3 C-3.01 2.67 -2.02 2.34 -1 2 C-0.67 1.34 -0.34 0.68 0 0 Z " fill="#3C3C3C" transform="translate(308,92)"/>
<path d="M0 0 C-0.33 0.99 -0.66 1.98 -1 3 C-3.06640625 3.94921875 -3.06640625 3.94921875 -5.5625 4.6875 C-6.38878906 4.93886719 -7.21507812 5.19023437 -8.06640625 5.44921875 C-8.70449219 5.63097656 -9.34257812 5.81273437 -10 6 C-10 5.01 -10 4.02 -10 3 C-3.375 0 -3.375 0 0 0 Z " fill="#303136" transform="translate(284,351)"/>
<path d="M0 0 C0.33 0.99 0.66 1.98 1 3 C2.65 3.33 4.3 3.66 6 4 C2.81237635 6.12508244 0.73487777 6.5020163 -3 7 C-3 3.48283697 -2.17554415 2.62878252 0 0 Z " fill="#26272C" transform="translate(282,310)"/>
<path d="M0 0 C0.66 0.33 1.32 0.66 2 1 C2 1.66 2 2.32 2 3 C2.99 3.33 3.98 3.66 5 4 C4.34 4 3.68 4 3 4 C3.33 4.99 3.66 5.98 4 7 C2.68 7 1.36 7 0 7 C0 6.34 0 5.68 0 5 C-1.32 4.34 -2.64 3.68 -4 3 C-2.68 3 -1.36 3 0 3 C0 2.01 0 1.02 0 0 Z " fill="#3F3F3F" transform="translate(62,309)"/>
<path d="M0 0 C0.99 0.66 1.98 1.32 3 2 C2.2575 2.2475 1.515 2.495 0.75 2.75 C-2.10999799 3.83284886 -2.10999799 3.83284886 -4 6.1875 C-4.66 6.785625 -5.32 7.38375 -6 8 C-8.75 7.75 -8.75 7.75 -11 7 C-8.62463329 5.41642219 -6.23494336 3.88406307 -3.8125 2.375 C-2.73935547 1.70597656 -2.73935547 1.70597656 -1.64453125 1.0234375 C-1.10183594 0.68570313 -0.55914062 0.34796875 0 0 Z " fill="#49494E" transform="translate(172,253)"/>
<path d="M0 0 C0.33 1.32 0.66 2.64 1 4 C2.32 4.33 3.64 4.66 5 5 C3.68 5.99 2.36 6.98 1 8 C0.34 7.67 -0.32 7.34 -1 7 C-1 7.66 -1 8.32 -1 9 C-1.66 8.67 -2.32 8.34 -3 8 C-3 6.68 -3 5.36 -3 4 C-2.01 4 -1.02 4 0 4 C0 2.68 0 1.36 0 0 Z " fill="#303030" transform="translate(81,156)"/>
<path d="M0 0 C1.09570312 0.00902344 2.19140625 0.01804688 3.3203125 0.02734375 C4.16335938 0.03894531 5.00640625 0.05054688 5.875 0.0625 C5.875 0.3925 5.875 0.7225 5.875 1.0625 C4.2926994 1.40070166 2.70910625 1.73285939 1.125 2.0625 C-0.19757813 2.3409375 -0.19757813 2.3409375 -1.546875 2.625 C-4.125 3.0625 -4.125 3.0625 -8.125 3.0625 C-8.125 2.4025 -8.125 1.7425 -8.125 1.0625 C-5.36047967 -0.31976016 -3.0788637 -0.03275387 0 0 Z " fill="#2A2B31" transform="translate(253.125,135.9375)"/>
<path d="M0 0 C0.33 0.99 0.66 1.98 1 3 C3.01508358 3.73323796 3.01508358 3.73323796 5 4 C2.37801226 6.15377564 0.35595828 7.40072174 -3 8 C-2.34 6.68 -1.68 5.36 -1 4 C-1.99 3.67 -2.98 3.34 -4 3 C-3.34 2.67 -2.68 2.34 -2 2 C-1.34 2.33 -0.68 2.66 0 3 C0 2.01 0 1.02 0 0 Z " fill="#323232" transform="translate(241,120)"/>
<path d="M0 0 C0.33 0.99 0.66 1.98 1 3 C1.99 3 2.98 3 4 3 C4 3.66 4 4.32 4 5 C3.01 5 2.02 5 1 5 C0.67 5.66 0.34 6.32 0 7 C-0.99 7 -1.98 7 -3 7 C-3.33 5.35 -3.66 3.7 -4 2 C-3.01 2 -2.02 2 -1 2 C-0.67 1.34 -0.34 0.68 0 0 Z " fill="#373737" transform="translate(193,72)"/>
<path d="M0 0 C0.33 0.99 0.66 1.98 1 3 C3.01508358 3.73323796 3.01508358 3.73323796 5 4 C4.01 4.495 4.01 4.495 3 5 C2.01 6.485 2.01 6.485 1 8 C1 7.34 1 6.68 1 6 C0.34 6 -0.32 6 -1 6 C-1 6.66 -1 7.32 -1 8 C-1.66 7.67 -2.32 7.34 -3 7 C-3 5.68 -3 4.36 -3 3 C-2.01 3 -1.02 3 0 3 C0 2.01 0 1.02 0 0 Z " fill="#333333" transform="translate(106,55)"/>
<path d="M0 0 C-0.47202486 4.24822374 -2.96655518 6.19989709 -6 9 C-6.25 6.75 -6.25 6.75 -6 4 C-2.75675676 0 -2.75675676 0 0 0 Z " fill="#F0F0F0" transform="translate(315,292)"/>
<path d="M0 0 C1.32 0 2.64 0 4 0 C4 3.3 4 6.6 4 10 C1 6 1 6 1.3125 3.75 C1.6528125 2.88375 1.6528125 2.88375 2 2 C1.01 1.67 0.02 1.34 -1 1 C-0.67 0.67 -0.34 0.34 0 0 Z " fill="#212228" transform="translate(254,361)"/>
<path d="M0 0 C-3.95523655 2.75668002 -7.22423661 3.5317879 -12 4 C-8.15336308 0.86570325 -4.95471579 -1.65157193 0 0 Z " fill="#F9F9F8" transform="translate(254,360)"/>
<path d="M0 0 C0.103125 0.639375 0.20625 1.27875 0.3125 1.9375 C0.539375 2.618125 0.76625 3.29875 1 4 C1.99 4.33 2.98 4.66 4 5 C3.34 5 2.68 5 2 5 C2.33 6.32 2.66 7.64 3 9 C2.01 8.34 1.02 7.68 0 7 C-0.99 7.495 -0.99 7.495 -2 8 C-2 7.01 -2 6.02 -2 5 C-2.66 4.34 -3.32 3.68 -4 3 C-3.01 3 -2.02 3 -1 3 C-0.67 2.01 -0.34 1.02 0 0 Z " fill="#222222" transform="translate(128,290)"/>
<path d="M0 0 C3.3 0.33 6.6 0.66 10 1 C10 1.66 10 2.32 10 3 C3.375 3.125 3.375 3.125 0 2 C0 1.34 0 0.68 0 0 Z " fill="#2A2B30" transform="translate(273,136)"/>
<path d="M0 0 C0.103125 0.639375 0.20625 1.27875 0.3125 1.9375 C0.539375 2.618125 0.76625 3.29875 1 4 C1.99 4.33 2.98 4.66 4 5 C3.34 5 2.68 5 2 5 C1.67 5.99 1.34 6.98 1 8 C0.01 8 -0.98 8 -2 8 C-2.66 6.35 -3.32 4.7 -4 3 C-2.68 3.33 -1.36 3.66 0 4 C0 2.68 0 1.36 0 0 Z " fill="#232323" transform="translate(370,314)"/>
<path d="M0 0 C0.66 0 1.32 0 2 0 C2.28571429 7.42857143 2.28571429 7.42857143 0 11 C-0.33 11 -0.66 11 -1 11 C-0.67 7.37 -0.34 3.74 0 0 Z " fill="#CDCDC0" transform="translate(342,170)"/>
<path d="M0 0 C0.33 0.66 0.66 1.32 1 2 C0.67 2.66 0.34 3.32 0 4 C0.99 4.33 1.98 4.66 3 5 C1.68 5 0.36 5 -1 5 C-1.33 5.66 -1.66 6.32 -2 7 C-2.99 6.34 -3.98 5.68 -5 5 C-4.34 3.68 -3.68 2.36 -3 1 C-2.34 1 -1.68 1 -1 1 C-0.67 0.67 -0.34 0.34 0 0 Z " fill="#1E1E1E" transform="translate(438,438)"/>
<path d="M0 0 C2.86319855 1.04983947 3.8499428 1.73398952 5.375 4.4375 C5.684375 5.7059375 5.684375 5.7059375 6 7 C5.01 8.485 5.01 8.485 4 10 C2.66666667 6.66666667 1.33333333 3.33333333 0 0 Z " fill="#38393C" transform="translate(313,273)"/>
<path d="M0 0 C2.40072955 2.88087546 4.47291037 5.56404834 6 9 C3.53199953 7.84826645 1.95216435 6.95216435 0 5 C-0.125 2.375 -0.125 2.375 0 0 Z " fill="#35363A" transform="translate(258,368)"/>
<path d="M0 0 C0.33 0.99 0.66 1.98 1 3 C1.99 3.33 2.98 3.66 4 4 C3.01 5.485 3.01 5.485 2 7 C1.34 6.67 0.68 6.34 0 6 C-0.33 6.66 -0.66 7.32 -1 8 C-1.33 6.68 -1.66 5.36 -2 4 C-1.34 4 -0.68 4 0 4 C0 2.68 0 1.36 0 0 Z " fill="#1F1F1F" transform="translate(408,361)"/>
<path d="M0 0 C0.66 0.33 1.32 0.66 2 1 C2 1.66 2 2.32 2 3 C-1.465 4.485 -1.465 4.485 -5 6 C-4.1875 3.5625 -4.1875 3.5625 -3 1 C-2.01 0.67 -1.02 0.34 0 0 Z " fill="#2D2E34" transform="translate(194,311)"/>
<path d="M0 0 C-2.17424117 2.50037734 -3.73045798 3.43628586 -7 4 C-7 3.34 -7 2.68 -7 2 C-7.66 1.67 -8.32 1.34 -9 1 C-5.92677456 0.08941469 -3.19902639 -0.08886184 0 0 Z " fill="#3C3D3F" transform="translate(289,275)"/>
<path d="M0 0 C0.33 0.99 0.66 1.98 1 3 C1.66 3.33 2.32 3.66 3 4 C2.67 4.99 2.34 5.98 2 7 C1.01 7 0.02 7 -1 7 C-1 6.01 -1 5.02 -1 4 C-1.99 3.67 -2.98 3.34 -4 3 C-2.68 3 -1.36 3 0 3 C0 2.01 0 1.02 0 0 Z " fill="#1D1D1D" transform="translate(372,230)"/>
<path d="M0 0 C0.33 0.66 0.66 1.32 1 2 C1.66 2 2.32 2 3 2 C2.67 4.31 2.34 6.62 2 9 C1.01 8.67 0.02 8.34 -1 8 C-0.67 5.36 -0.34 2.72 0 0 Z " fill="#38393B" transform="translate(332,210)"/>
<path d="M0 0 C-3.96 1.98 -3.96 1.98 -8 4 C-8 3.01 -8 2.02 -8 1 C-4.59449725 -1.06762667 -4.18836538 -1.04709135 0 0 Z " fill="#35363B" transform="translate(237,142)"/>
<path d="M0 0 C0.33 0 0.66 0 1 0 C1 3.63 1 7.26 1 11 C0.01 10.01 -0.98 9.02 -2 8 C-1.71263151 5.12631508 -0.91403285 2.74209856 0 0 Z " fill="#171717" transform="translate(356,353)"/>
<path d="M0 0 C4.41889613 1.35021826 6.34345343 3.26115668 9 7 C8.01 7.495 8.01 7.495 7 8 C4.35247996 5.42215154 2.05567935 3.08351902 0 0 Z " fill="#4A3B43" transform="translate(183,271)"/>
<path d="M0 0 C-0.75 1.9375 -0.75 1.9375 -2 4 C-4.125 4.75 -4.125 4.75 -6 5 C-3.74193548 0 -3.74193548 0 0 0 Z " fill="#2D2E33" transform="translate(216,255)"/>
<path d="M0 0 C-0.33 1.32 -0.66 2.64 -1 4 C-3.97 3.505 -3.97 3.505 -7 3 C-6.67 2.34 -6.34 1.68 -6 1 C-3.911361 0.32624548 -2.19636905 0 0 0 Z " fill="#7D7E7A" transform="translate(256,363)"/>
<path d="M0 0 C-3.13498292 1.85776765 -5.37471432 2.20140476 -9 2 C-6.98558063 -2.02883874 -3.72407517 -0.90585612 0 0 Z " fill="#3C3D41" transform="translate(254,363)"/>
<path d="M0 0 C1.98 0 3.96 0 6 0 C6.33 0.99 6.66 1.98 7 3 C4.69 2.67 2.38 2.34 0 2 C0 1.34 0 0.68 0 0 Z " fill="#3B3C3E" transform="translate(260,318)"/>
<path d="M0 0 C0.33 0.66 0.66 1.32 1 2 C1.66 2.33 2.32 2.66 3 3 C3 3.66 3 4.32 3 5 C1 6.625 1 6.625 -1 8 C-1 7.01 -1 6.02 -1 5 C-1.66 4.34 -2.32 3.68 -3 3 C-2.01 3 -1.02 3 0 3 C0 2.01 0 1.02 0 0 Z " fill="#1D1D1D" transform="translate(139,213)"/>
</svg>
