<?xml version="1.0" encoding="UTF-8"?>
<svg version="1.1" xmlns="http://www.w3.org/2000/svg" width="500" height="500">
<path d="M0 0 C3.40132073 1.45144927 4.38718578 3.43990516 6.23828125 6.59765625 C6.84285156 7.60957031 7.44742188 8.62148437 8.0703125 9.6640625 C8.51761719 10.44652344 8.96492187 11.22898437 9.42578125 12.03515625 C13.24068031 11.46421898 15.10043339 9.77456688 17.86328125 7.16015625 C25.42531165 0.03212064 25.42531165 0.03212064 30 0.0390625 C33.23980333 1.36941652 34.32535784 3.06784662 36.23828125 5.97265625 C36.84285156 6.86855469 37.44742188 7.76445313 38.0703125 8.6875 C39.42578125 11.03515625 39.42578125 11.03515625 39.42578125 13.03515625 C43.93583693 11.61771018 46.15563416 9.38135327 49.42578125 6.03515625 C50.73288927 4.8797899 52.06801316 3.75554139 53.42578125 2.66015625 C54.38484375 1.87511719 54.38484375 1.87511719 55.36328125 1.07421875 C57.42578125 0.03515625 57.42578125 0.03515625 59.88671875 0.015625 C63.47177169 1.45516164 64.81743112 3.60287334 67.05078125 6.72265625 C67.80617188 7.75777344 68.5615625 8.79289062 69.33984375 9.859375 C71.29600613 12.83757727 72.90964681 15.81457769 74.42578125 19.03515625 C71.2610382 22.29032053 68.09825334 25.35524418 64.42578125 28.03515625 C63.76578125 28.03515625 63.10578125 28.03515625 62.42578125 28.03515625 C60.15949846 32.43441107 60.17445284 35.2644667 61.42578125 40.03515625 C62.82761493 42.6099528 64.33899371 45.06083705 65.953125 47.5078125 C69.025312 52.78023953 69.81233086 57.75409608 69.80078125 63.78515625 C69.80207031 64.48600342 69.80335938 65.18685059 69.8046875 65.90893555 C69.69820531 71.16830892 68.65543659 75.36699739 66.30078125 80.1171875 C65.21825175 82.13869783 65.21825175 82.13869783 65.42578125 85.03515625 C65.99385498 85.16043701 66.56192871 85.28571777 67.1472168 85.41479492 C110.2563737 95.02317367 110.2563737 95.02317367 121.90234375 112.21484375 C131.87319507 131.22402073 123.8124721 160.69468394 118.05761719 180.04833984 C116.95067898 183.52912158 115.62812748 186.89557566 114.125 190.22265625 C113.24582021 192.17786497 113.24582021 192.17786497 113.42578125 195.03515625 C114.96685547 195.7621875 114.96685547 195.7621875 116.5390625 196.50390625 C128.90006111 202.43766411 141.21014993 208.49561061 147.5546875 221.31640625 C149.62041197 227.7636898 149.7735069 237.1147832 146.98828125 243.41015625 C135.49403962 261.78503387 112.67613537 268.53953319 92.80078125 273.22265625 C69.49956888 278.49919891 46.32071466 280.27009069 22.48828125 280.28515625 C21.52312592 280.28583099 20.55797058 280.28650574 19.56356812 280.28720093 C-18.40177109 280.24530911 -70.33356292 279.10387984 -99.69921875 251.53515625 C-106.19666886 244.45800799 -108.89354602 237.73992857 -108.57421875 228.03515625 C-107.26601557 219.62134421 -102.26915936 212.92944351 -95.671875 207.76171875 C-93.71387163 206.36566486 -91.73564858 204.99734706 -89.734375 203.6640625 C-89.02152344 203.12652344 -88.30867188 202.58898437 -87.57421875 202.03515625 C-87.57421875 201.37515625 -87.57421875 200.71515625 -87.57421875 200.03515625 C-89.12067729 199.0183902 -90.71478898 198.07398502 -92.32421875 197.16015625 C-106.06170624 188.60295683 -116.88873984 175.47818541 -121.94921875 159.98046875 C-124.44031232 148.24119031 -122.53481238 137.93425484 -116.63671875 127.66015625 C-110.84847907 120.29330575 -103.7075467 114.52606387 -94.57421875 112.03515625 C-92.0985608 111.77076559 -89.61875804 111.54327245 -87.13671875 111.34765625 C-81.28370072 110.71242315 -78.22107106 109.60736047 -74.47265625 105.03125 C-65.51484915 95.61265035 -49.41461194 90.61605123 -37.13671875 87.72265625 C-28.91129793 85.35871178 -22.96219822 77.24962301 -18.6171875 70.21484375 C-16.89807535 66.62209252 -16.4724772 63.88765123 -17.57421875 60.03515625 C-18.93478142 57.46237886 -20.45697933 55.05169251 -22.0390625 52.609375 C-26.4771509 45.16738961 -27.71003376 37.01711531 -26.10546875 28.56640625 C-22.96365406 16.44797818 -14.99170265 8.44446375 -5.078125 1.21484375 C-2.57421875 0.03515625 -2.57421875 0.03515625 0 0 Z " fill="#ECE7CC" transform="translate(237.57421875,109.96484375)"/>
<path d="M0 0 C3.40132073 1.45144927 4.38718578 3.43990516 6.23828125 6.59765625 C6.84285156 7.60957031 7.44742188 8.62148437 8.0703125 9.6640625 C8.51761719 10.44652344 8.96492187 11.22898437 9.42578125 12.03515625 C13.24068031 11.46421898 15.10043339 9.77456688 17.86328125 7.16015625 C25.42531165 0.03212064 25.42531165 0.03212064 30 0.0390625 C33.23980333 1.36941652 34.32535784 3.06784662 36.23828125 5.97265625 C36.84285156 6.86855469 37.44742188 7.76445313 38.0703125 8.6875 C39.42578125 11.03515625 39.42578125 11.03515625 39.42578125 13.03515625 C43.93583693 11.61771018 46.15563416 9.38135327 49.42578125 6.03515625 C50.73288927 4.8797899 52.06801316 3.75554139 53.42578125 2.66015625 C54.38484375 1.87511719 54.38484375 1.87511719 55.36328125 1.07421875 C57.42578125 0.03515625 57.42578125 0.03515625 59.88671875 0.015625 C63.47177169 1.45516164 64.81743112 3.60287334 67.05078125 6.72265625 C67.80617188 7.75777344 68.5615625 8.79289062 69.33984375 9.859375 C71.29600613 12.83757727 72.90964681 15.81457769 74.42578125 19.03515625 C71.2610382 22.29032053 68.09825334 25.35524418 64.42578125 28.03515625 C63.76578125 28.03515625 63.10578125 28.03515625 62.42578125 28.03515625 C60.15949846 32.43441107 60.17445284 35.2644667 61.42578125 40.03515625 C62.82761493 42.6099528 64.33899371 45.06083705 65.953125 47.5078125 C69.025312 52.78023953 69.81233086 57.75409608 69.80078125 63.78515625 C69.80207031 64.48600342 69.80335938 65.18685059 69.8046875 65.90893555 C69.69820531 71.16830892 68.65543659 75.36699739 66.30078125 80.1171875 C65.21825175 82.13869783 65.21825175 82.13869783 65.42578125 85.03515625 C65.99385498 85.16043701 66.56192871 85.28571777 67.1472168 85.41479492 C110.2563737 95.02317367 110.2563737 95.02317367 121.90234375 112.21484375 C131.87319507 131.22402073 123.8124721 160.69468394 118.05761719 180.04833984 C116.95067898 183.52912158 115.62812748 186.89557566 114.125 190.22265625 C113.24582021 192.17786497 113.24582021 192.17786497 113.42578125 195.03515625 C114.96685547 195.7621875 114.96685547 195.7621875 116.5390625 196.50390625 C128.90006111 202.43766411 141.21014993 208.49561061 147.5546875 221.31640625 C149.62041197 227.7636898 149.7735069 237.1147832 146.98828125 243.41015625 C135.49403962 261.78503387 112.67613537 268.53953319 92.80078125 273.22265625 C69.49956888 278.49919891 46.32071466 280.27009069 22.48828125 280.28515625 C21.52312592 280.28583099 20.55797058 280.28650574 19.56356812 280.28720093 C-18.40177109 280.24530911 -70.33356292 279.10387984 -99.69921875 251.53515625 C-106.19666886 244.45800799 -108.89354602 237.73992857 -108.57421875 228.03515625 C-107.26601557 219.62134421 -102.26915936 212.92944351 -95.671875 207.76171875 C-93.71387163 206.36566486 -91.73564858 204.99734706 -89.734375 203.6640625 C-89.02152344 203.12652344 -88.30867188 202.58898437 -87.57421875 202.03515625 C-87.57421875 201.37515625 -87.57421875 200.71515625 -87.57421875 200.03515625 C-89.12067729 199.0183902 -90.71478898 198.07398502 -92.32421875 197.16015625 C-106.06170624 188.60295683 -116.88873984 175.47818541 -121.94921875 159.98046875 C-124.44031232 148.24119031 -122.53481238 137.93425484 -116.63671875 127.66015625 C-110.84847907 120.29330575 -103.7075467 114.52606387 -94.57421875 112.03515625 C-92.0985608 111.77076559 -89.61875804 111.54327245 -87.13671875 111.34765625 C-81.28370072 110.71242315 -78.22107106 109.60736047 -74.47265625 105.03125 C-65.51484915 95.61265035 -49.41461194 90.61605123 -37.13671875 87.72265625 C-28.91129793 85.35871178 -22.96219822 77.24962301 -18.6171875 70.21484375 C-16.89807535 66.62209252 -16.4724772 63.88765123 -17.57421875 60.03515625 C-18.93478142 57.46237886 -20.45697933 55.05169251 -22.0390625 52.609375 C-26.4771509 45.16738961 -27.71003376 37.01711531 -26.10546875 28.56640625 C-22.96365406 16.44797818 -14.99170265 8.44446375 -5.078125 1.21484375 C-2.57421875 0.03515625 -2.57421875 0.03515625 0 0 Z M-46.57421875 102.03515625 C-47.68667969 102.42574219 -48.79914063 102.81632812 -49.9453125 103.21875 C-58.47968153 106.46841611 -66.49718921 111.20806904 -71.57421875 119.03515625 C-71.94094002 120.35969557 -72.28026761 121.69259094 -72.57421875 123.03515625 C-73.45775024 122.99588013 -73.45775024 122.99588013 -74.35913086 122.95581055 C-77.07637921 122.85067654 -79.79319829 122.78647128 -82.51171875 122.72265625 C-83.43791016 122.68076172 -84.36410156 122.63886719 -85.31835938 122.59570312 C-92.24982937 122.47409839 -96.95447252 123.94019899 -102.57421875 128.03515625 C-108.34175679 133.67452678 -111.73963841 140.32254177 -112.07421875 148.41015625 C-111.47164488 162.34710679 -103.15557744 173.29687207 -93.42578125 182.64453125 C-83.28053825 191.14985826 -71.809269 195.5404688 -58.765625 197.4453125 C-56.57421875 198.03515625 -56.57421875 198.03515625 -54.57421875 201.03515625 C-56.29705078 201.56302734 -56.29705078 201.56302734 -58.0546875 202.1015625 C-79.66797031 208.83776795 -79.66797031 208.83776795 -95.7890625 223.96875 C-97.28823879 227.91434332 -97.08792286 231.89259364 -96.57421875 236.03515625 C-90.96148387 247.96221787 -77.08445986 253.57160126 -65.51171875 258.16015625 C-48.30955316 263.98588966 -30.59914076 266.43007392 -12.57421875 268.03515625 C-11.01078735 268.17981323 -11.01078735 268.17981323 -9.41577148 268.32739258 C0.28820355 269.13110701 9.96926817 269.22131233 19.69995117 269.22045898 C22.45963255 269.22263367 25.21890506 269.24082881 27.97851562 269.25976562 C60.3155799 269.36267943 99.83830682 266.50280442 127.42578125 248.03515625 C128.39451172 247.39126953 128.39451172 247.39126953 129.3828125 246.734375 C134.31249876 243.05210327 136.72758877 238.43519291 138.42578125 232.59765625 C138.42578125 227.0173858 136.46690555 223.41391014 132.8671875 219.21875 C124.60251573 211.27400101 111.18392297 204.84140067 99.98828125 202.84765625 C98.69083984 202.60982422 98.69083984 202.60982422 97.3671875 202.3671875 C96.72652344 202.25761719 96.08585938 202.14804687 95.42578125 202.03515625 C96.22242188 200.60236328 96.22242188 200.60236328 97.03515625 199.140625 C101.17203021 191.60640811 104.78683422 184.24263027 107.42578125 176.03515625 C107.66063232 175.36556885 107.8954834 174.69598145 108.13745117 174.00610352 C112.72084042 160.79816393 113.75787624 147.26653864 114.05078125 133.34765625 C114.09807373 132.15422607 114.14536621 130.9607959 114.1940918 129.73120117 C114.22926846 123.86994199 114.03471256 119.9610278 110.13671875 115.3984375 C88.26403751 93.94740541 50.13880004 92.5980964 21.23828125 92.66015625 C20.32490997 92.66036774 19.4115387 92.66057922 18.4704895 92.66079712 C-3.6471139 92.71162004 -25.62043185 94.44724006 -46.57421875 102.03515625 Z " fill="#FAFAFA" transform="translate(237.57421875,109.96484375)"/>
<path d="M0 0 C2.63373201 2.75538245 3.69829761 4.55087213 4.37890625 8.33203125 C3.58916907 12.36846574 2.04602196 15.18399098 -1.13671875 17.83203125 C-11.48838231 24.02894549 -22.59602064 27.04607663 -34.30859375 29.45703125 C-35.09476074 29.62025879 -35.88092773 29.78348633 -36.69091797 29.95166016 C-48.84269807 32.2970911 -61.13472366 32.39355682 -73.46582031 32.39233398 C-75.91619382 32.39451576 -78.36611205 32.41273555 -80.81640625 32.43164062 C-94.84535348 32.48280163 -108.73200527 31.53067006 -122.37109375 28.01953125 C-123.20133057 27.808125 -124.03156738 27.59671875 -124.88696289 27.37890625 C-134.68137566 24.73355506 -144.3784221 21.02934599 -151.18359375 13.20703125 C-152.44101509 10.47815941 -152.6310696 8.1750989 -152.18359375 5.20703125 C-148.66148276 -2.05065201 -140.45588563 -5.93331134 -133.2109375 -8.48876953 C-97.73162866 -19.91500182 -30.98379786 -25.4410791 0 0 Z " fill="#A2734D" transform="translate(332.18359375,226.79296875)"/>
<path d="M0 0 C1.703125 1.65625 1.703125 1.65625 3.25 3.5 C4.03117187 4.41265625 4.03117187 4.41265625 4.828125 5.34375 C6 7 6 7 6 9 C5.48050781 9.23074219 4.96101563 9.46148437 4.42578125 9.69921875 C-0.15984312 11.84369743 -3.9112491 13.84949097 -7 18 C-7.63344408 21.94142985 -7.47878161 24.08596239 -5.625 27.625 C0.74610802 33.38933583 8.8502521 35.81256766 17 38 C18.26070312 38.38478516 18.26070312 38.38478516 19.546875 38.77734375 C27.26222731 41.07140561 35.00856474 42.14141605 43 43 C44.0415625 43.1134375 45.083125 43.226875 46.15625 43.34375 C71.88599895 45.63649991 98.53580601 44.49942818 123.625 38.1875 C124.53016357 37.96368652 125.43532715 37.73987305 126.36791992 37.50927734 C134.0854704 35.39011093 142.6348584 32.0824636 147 25 C147.62096075 20.73089482 147.60264737 18.8098074 145 15.3125 C141.52815727 12.63628789 137.99240947 10.77330346 134 9 C135.36370299 6.00779732 136.94908083 3.70973471 139.125 1.25 C139.66382813 0.63640625 140.20265625 0.0228125 140.7578125 -0.609375 C141.16773438 -1.06828125 141.57765625 -1.5271875 142 -2 C157.07050987 1.71477498 174.03090794 6.71730057 183.9375 19.5 C185.28067263 22.66040619 185.48695379 24.59132344 185 28 C178.39432856 40.93610657 163.98767184 46.1730118 150.97753906 50.4206543 C125.44173497 58.32447383 98.83925177 60.39862004 72.25 60.25 C71.24053314 60.24656586 70.23106628 60.24313171 69.19100952 60.23959351 C-14.92583848 59.90444674 -14.92583848 59.90444674 -40.375 35.125 C-44.02414212 31.1015869 -44.4796548 27.97591704 -44.39453125 22.59765625 C-43.71329812 18.11230941 -41.43971059 15.797355 -38 13 C-30.17856066 7.31298275 -9.27142149 -6.15592358 0 0 Z " fill="#EBE6CC" transform="translate(188,316)"/>
<path d="M0 0 C1.37347092 0.00031723 1.37347092 0.00031723 2.77468872 0.00064087 C18.71427125 0.03719835 34.09689812 1.15454306 49.75 4.375 C50.66765137 4.56223633 51.58530273 4.74947266 52.53076172 4.94238281 C68.03805643 8.24763723 81.66403694 13.51615934 92.75 25.375 C98.81972981 37.51445963 93.79900861 61.31131179 90.75 74.375 C90.5943457 75.04853516 90.43869141 75.72207031 90.27832031 76.41601562 C87.37514285 88.31846373 81.72706365 98.75374919 75.75 109.375 C76.67510376 109.52739136 76.67510376 109.52739136 77.61889648 109.68286133 C83.74820142 110.78619456 89.15528504 112.47819537 94.8125 115.0625 C95.98256592 115.59097534 95.98256592 115.59097534 97.17626953 116.13012695 C105.88760987 120.19074441 113.31782033 125.16438916 118.0625 133.75 C119.32222046 138.55984176 118.18691377 142.28271556 116.375 146.8125 C107.20036286 161.55153801 84.34769262 166.38523794 68.75 170.375 C64.89077291 171.24845094 61.02170694 172.00164463 57.125 172.6875 C55.87831543 172.90805054 55.87831543 172.90805054 54.60644531 173.13305664 C38.47870712 175.74123812 22.26714524 176.71256713 5.94775391 176.63574219 C3.25009719 176.62500039 0.55310595 176.63573814 -2.14453125 176.6484375 C-14.61275103 176.65689397 -26.86222891 175.75877392 -39.25 174.375 C-39.58 173.385 -39.91 172.395 -40.25 171.375 C-39.06946045 171.44428711 -37.8889209 171.51357422 -36.67260742 171.58496094 C-23.63309392 172.3145682 -10.62164434 172.61580418 2.4375 172.625 C3.44369385 172.62600708 4.4498877 172.62701416 5.48657227 172.62805176 C20.8090229 172.61772092 35.61941881 171.95041807 50.75 169.375 C52.62994949 169.09202502 54.51016252 168.8107957 56.390625 168.53125 C75.26491052 165.5758633 100.08326979 160.8164992 112.578125 145.07421875 C114.92224623 141.67524297 115.28653963 139.51402 114.75 135.375 C111.22912761 128.38892119 105.53437919 124.8261842 98.75 121.375 C97.88117188 120.93285156 97.01234375 120.49070312 96.1171875 120.03515625 C84.24800955 113.86863164 84.24800955 113.86863164 71.75 113.375 C69.8570193 115.46244972 69.8570193 115.46244972 68.0625 117.9375 C67.43988281 118.76378906 66.81726563 119.59007812 66.17578125 120.44140625 C65.70527344 121.07949219 65.23476563 121.71757812 64.75 122.375 C65.48734375 122.47941406 66.2246875 122.58382812 66.984375 122.69140625 C69.97470794 123.43054222 71.58856911 124.43029536 74 126.3125 C74.68578125 126.83714844 75.3715625 127.36179687 76.078125 127.90234375 C78.57630645 130.1028447 78.73688402 131.26132821 79.125 134.625 C78.66686229 139.20637713 77.18100153 141.49199167 73.75 144.375 C67.69903405 148.39140231 61.43861334 150.72054779 54.4375 152.5 C53.45112549 152.75152832 52.46475098 153.00305664 51.44848633 153.26220703 C24.93948306 159.63097185 -3.14713421 160.08443135 -30.11328125 156.64404297 C-32.08303838 156.39602282 -34.05708398 156.1827173 -36.03125 155.97265625 C-48.77119927 154.46624333 -66.1697028 151.11328822 -75.375 141.5 C-77.66510155 137.68316409 -78.04564743 135.75106088 -77.25 131.375 C-74.19799115 127.51510646 -70.48115611 124.85850467 -66.25 122.375 C-65.26 122.375 -64.27 122.375 -63.25 122.375 C-64.2709375 121.2303125 -64.2709375 121.2303125 -65.3125 120.0625 C-66.2715625 118.7321875 -66.2715625 118.7321875 -67.25 117.375 C-66.755 115.89 -66.755 115.89 -66.25 114.375 C-64.8578125 115.6125 -64.8578125 115.6125 -63.4375 116.875 C-50.82812947 127.61068897 -38.33599428 134.33277206 -22.25 138.375 C-21.30833984 138.65730469 -21.30833984 138.65730469 -20.34765625 138.9453125 C-14.80357947 140.08097069 -8.93803483 140.01985192 -3.29150391 140.27978516 C-1.64561088 140.35654888 -0.00038366 140.44751485 1.64453125 140.54296875 C24.76570543 141.30760601 46.99404051 133.29296871 64 117.6875 C84.64035109 95.74079757 90.97757969 64.07266339 91.1484375 34.94140625 C90.44941246 28.68444683 87.79901199 24.72158105 83.015625 20.8828125 C50.57708342 -0.70559621 -4.56975073 -0.02466158 -41.56738281 6.83154297 C-65.94424543 11.62246263 -65.94424543 11.62246263 -86.1875 25.125 C-89.73590568 30.71642713 -89.5330564 36.24338375 -89.76757812 42.70703125 C-90.03466655 48.15966655 -90.03466655 48.15966655 -92.25 50.375 C-94.84269983 50.35752112 -97.3025154 50.23731408 -99.875 50 C-100.93460938 49.91492188 -100.93460938 49.91492188 -102.015625 49.828125 C-103.76121361 49.68659079 -105.50573673 49.53202613 -107.25 49.375 C-106.92 48.715 -106.59 48.055 -106.25 47.375 C-101.63 47.375 -97.01 47.375 -92.25 47.375 C-92.25 42.425 -92.25 37.475 -92.25 32.375 C-98.19 32.375 -104.13 32.375 -110.25 32.375 C-109.92 31.715 -109.59 31.055 -109.25 30.375 C-103.64 30.375 -98.03 30.375 -92.25 30.375 C-91.59 28.395 -90.93 26.415 -90.25 24.375 C-77.75329187 9.13237843 -54.76858986 4.99244374 -36.25 2.375 C-35.13399414 2.20581055 -34.01798828 2.03662109 -32.86816406 1.86230469 C-21.89609332 0.32009007 -11.07138819 -0.02372198 0 0 Z " fill="#040403" transform="translate(257.25,202.625)"/>
<path d="M0 0 C1.36676632 0.13929356 2.7374567 0.24365301 4.109375 0.31640625 C5.24052734 0.37924805 5.24052734 0.37924805 6.39453125 0.44335938 C7.56048828 0.50233398 7.56048828 0.50233398 8.75 0.5625 C9.93916016 0.62727539 9.93916016 0.62727539 11.15234375 0.69335938 C13.10137815 0.79902991 15.05066748 0.89997966 17 1 C17 5.95 17 10.9 17 16 C12.38 16.33 7.76 16.66 3 17 C5.289375 17.185625 7.57875 17.37125 9.9375 17.5625 C11.22527344 17.66691406 12.51304687 17.77132812 13.83984375 17.87890625 C14.88269531 17.91886719 15.92554688 17.95882812 17 18 C19.05922402 15.94077598 18.41427579 11.78291876 18.5625 8.9375 C18.62727539 7.79958008 18.62727539 7.79958008 18.69335938 6.63867188 C18.79973633 4.75934562 18.90039934 2.87969756 19 1 C19.33 1 19.66 1 20 1 C20.01458252 1.67877197 20.02916504 2.35754395 20.04418945 3.05688477 C20.48688592 22.21918225 20.48688592 22.21918225 24 41 C24.2472583 41.94697754 24.2472583 41.94697754 24.49951172 42.91308594 C27.93940266 55.85165816 32.99645834 69.33891993 42.06640625 79.421875 C43 81 43 81 42.65234375 83.203125 C42.32943359 84.09257812 42.32943359 84.09257812 42 85 C41.17242187 83.98486328 41.17242187 83.98486328 40.328125 82.94921875 C38.19255176 80.73349697 38.19255176 80.73349697 35.546875 81.01953125 C22.1964011 84.80465164 8.964573 90.00671639 -1.5625 99.25 C-3.80825098 103.54621927 -4.01294186 107.27534975 -3 112 C1.88666109 122.0103617 15.33811594 126.87588741 25.26538086 130.38769531 C39.43561952 135.06311548 54.34051094 137.37504975 69 140 C69.33 140.99 69.66 141.98 70 143 C45.27369935 140.92124021 14.48233675 136.25354676 -3.625 117.7109375 C-7.06009154 113.43659064 -7.4424448 109.83072664 -7.30859375 104.4609375 C-6.60678455 98.86423123 -2.65207133 95.08053243 1.578125 91.63671875 C11.76991559 84.74904092 23.28781204 80.5001941 35 77 C33.25260549 73.66487196 33.25260549 73.66487196 29.578125 73.078125 C28.13638668 72.79706106 26.69359756 72.52135293 25.25 72.25 C11.97996881 69.40933344 1.53143334 63.82233885 -8 54 C-8.96873047 53.04480469 -8.96873047 53.04480469 -9.95703125 52.0703125 C-17.82579427 43.80725416 -22.55109144 33.49663951 -22.3984375 22.078125 C-21.3773384 14.18963393 -17.47795604 7.73882027 -11.3125 2.8125 C-7.30172769 -0.0345249 -4.82044502 -1.35638997 0 0 Z " fill="#171614" transform="translate(148,234)"/>
<path d="M0 0 C0.73524902 0.1551709 1.47049805 0.3103418 2.22802734 0.47021484 C26.66399892 5.73987589 26.66399892 5.73987589 33 14 C33.9375 17.875 33.9375 17.875 34 21 C33.01 21.66 32.02 22.32 31 23 C30.33097656 22.62488281 29.66195312 22.24976563 28.97265625 21.86328125 C-2.7076286 4.98130395 -48.40905642 4.33946548 -83 12 C-84.23484131 12.26538574 -84.23484131 12.26538574 -85.49462891 12.53613281 C-95.72195145 14.79845173 -104.89475967 17.71132747 -114 23 C-116.16229128 19.75656308 -116.46493353 18.76014991 -116 15 C-109.77198045 5.51456233 -94.44688306 2.27911911 -84 0 C-57.5314827 -5.38849263 -26.43645936 -5.78657316 0 0 Z " fill="#E9E4CB" transform="translate(299,217)"/>
<path d="M0 0 C2.63373201 2.75538245 3.69829761 4.55087213 4.37890625 8.33203125 C3.58916907 12.36846574 2.04602196 15.18399098 -1.13671875 17.83203125 C-11.48838231 24.02894549 -22.59602064 27.04607663 -34.30859375 29.45703125 C-35.09476074 29.62025879 -35.88092773 29.78348633 -36.69091797 29.95166016 C-48.84269807 32.2970911 -61.13472366 32.39355682 -73.46582031 32.39233398 C-75.91619382 32.39451576 -78.36611205 32.41273555 -80.81640625 32.43164062 C-94.84535348 32.48280163 -108.73200527 31.53067006 -122.37109375 28.01953125 C-123.20133057 27.808125 -124.03156738 27.59671875 -124.88696289 27.37890625 C-134.68137566 24.73355506 -144.3784221 21.02934599 -151.18359375 13.20703125 C-152.44101509 10.47815941 -152.6310696 8.1750989 -152.18359375 5.20703125 C-148.66148276 -2.05065201 -140.45588563 -5.93331134 -133.2109375 -8.48876953 C-97.73162866 -19.91500182 -30.98379786 -25.4410791 0 0 Z M-147.37109375 2.58203125 C-149.57118353 5.19952908 -149.57118353 5.19952908 -148.99609375 9.01953125 C-148.72796875 10.07140625 -148.45984375 11.12328125 -148.18359375 12.20703125 C-144.57094187 12.20703125 -142.94921207 11.1731567 -139.74609375 9.51953125 C-134.08128315 6.85410869 -128.50001869 4.99200901 -122.43359375 3.45703125 C-121.67377197 3.25891846 -120.9139502 3.06080566 -120.13110352 2.85668945 C-105.68134831 -0.62882079 -90.9762293 -1.17360484 -76.18359375 -1.10546875 C-75.33630707 -1.1033136 -74.48902039 -1.10115845 -73.61605835 -1.09893799 C-49.04596454 -0.9991428 -22.87830918 0.3043847 -1.18359375 13.20703125 C1.19042944 11.29526164 1.19042944 11.29526164 0.87890625 7.95703125 C-0.80335888 2.01962491 -4.2489949 -0.08917219 -9.4375 -3.1015625 C-28.83808199 -12.38261588 -52.25685792 -13.02862765 -73.37109375 -13.04296875 C-74.26176544 -13.04364349 -75.15243713 -13.04431824 -76.07009888 -13.04501343 C-99.92578901 -13.01632493 -127.40688524 -12.29326136 -147.37109375 2.58203125 Z M-144.18359375 14.20703125 C-143.50692939 17.303656 -143.50692939 17.303656 -141.171875 18.453125 C-120.64585882 27.59244607 -99.46514824 29.73572458 -77.21069336 29.59814453 C-74.11983263 29.58202467 -71.03027535 29.59811891 -67.93945312 29.6171875 C-45.86724957 29.64013831 -23.7391057 27.13189826 -4.18359375 16.20703125 C-4.85954459 13.14947614 -4.85954459 13.14947614 -7.01953125 11.99609375 C-13.01704522 9.24646427 -19.07733856 7.23483359 -25.43359375 5.51953125 C-26.53840088 5.21619873 -26.53840088 5.21619873 -27.66552734 4.90673828 C-42.07737552 1.20594084 -56.42083784 0.86103583 -71.20654297 0.89135742 C-74.4140849 0.89451206 -77.62069664 0.8709952 -80.828125 0.84570312 C-101.77316228 0.78075102 -126.18972274 2.15985265 -144.18359375 14.20703125 Z " fill="#120D0A" transform="translate(332.18359375,226.79296875)"/>
<path d="M0 0 C1.19882813 0.00483398 1.19882813 0.00483398 2.421875 0.00976562 C3.246875 0.01814453 4.071875 0.02652344 4.921875 0.03515625 C5.76234375 0.03966797 6.6028125 0.04417969 7.46875 0.04882812 C9.53648901 0.06057664 11.60419124 0.07851103 13.671875 0.09765625 C13.671875 4.38765625 13.671875 8.67765625 13.671875 13.09765625 C12.22554687 13.1234375 10.77921875 13.14921875 9.2890625 13.17578125 C7.37497048 13.23207807 5.46090915 13.28942505 3.546875 13.34765625 C2.11988281 13.36892578 2.11988281 13.36892578 0.6640625 13.390625 C-5.25018856 13.59598094 -8.83654771 14.13106851 -13.328125 18.09765625 C-14.74003064 20.70202858 -14.74003064 20.70202858 -15.328125 23.09765625 C-14.338125 23.09765625 -13.348125 23.09765625 -12.328125 23.09765625 C-11.956875 21.89109375 -11.956875 21.89109375 -11.578125 20.66015625 C-10.328125 18.09765625 -10.328125 18.09765625 -8.203125 17.28515625 C-7.584375 17.22328125 -6.965625 17.16140625 -6.328125 17.09765625 C-6.658125 18.08765625 -6.988125 19.07765625 -7.328125 20.09765625 C-8.38717399 26.45195016 -6.00653292 30.16970068 -2.4453125 35.3828125 C3.74222264 43.31701346 11.34790269 48.47233529 20.796875 51.859375 C23.58998832 53.70399359 24.17479562 55.9522604 25.359375 59.03515625 C25.77574219 60.09605469 26.19210938 61.15695312 26.62109375 62.25 C27.33617241 64.18788975 28.01867104 66.13804437 28.671875 68.09765625 C11.90501334 65.90816916 -1.3030728 59.2393324 -12.328125 46.09765625 C-19.10705083 36.70629853 -22.57646791 28.82591492 -21.328125 17.09765625 C-19.220274 10.15883862 -14.36837342 4.99459072 -8.328125 1.09765625 C-5.49278869 0.22124557 -2.95929529 -0.02113782 0 0 Z " fill="#EBE7CD" transform="translate(150.328125,235.90234375)"/>
<path d="M0 0 C1.37347092 0.00031723 1.37347092 0.00031723 2.77468872 0.00064087 C18.71427125 0.03719835 34.09689812 1.15454306 49.75 4.375 C50.66765137 4.56223633 51.58530273 4.74947266 52.53076172 4.94238281 C68.03805643 8.24763723 81.66403694 13.51615934 92.75 25.375 C98.81972981 37.51445963 93.79900861 61.31131179 90.75 74.375 C90.5943457 75.04853516 90.43869141 75.72207031 90.27832031 76.41601562 C87.37514285 88.31846373 81.72706365 98.75374919 75.75 109.375 C74.76 109.375 73.77 109.375 72.75 109.375 C72.75 105.88018049 73.93794805 104.05847401 75.64599609 101.08496094 C87.22348547 80.85540262 93.35869054 54.72533787 90.75 31.375 C86.97695362 22.15077904 80.02140316 18.59413893 71.171875 14.75 C30.14554718 -1.73546506 -30.20356011 -1.98177148 -70.96875 15.296875 C-77.98613986 18.49170178 -84.018577 21.70730315 -88.25 28.375 C-89.85847221 32.90796715 -89.59471264 37.94268984 -89.76757812 42.70703125 C-90.03466655 48.15966655 -90.03466655 48.15966655 -92.25 50.375 C-94.84269983 50.35752112 -97.3025154 50.23731408 -99.875 50 C-100.93460938 49.91492188 -100.93460938 49.91492188 -102.015625 49.828125 C-103.76121361 49.68659079 -105.50573673 49.53202613 -107.25 49.375 C-106.92 48.715 -106.59 48.055 -106.25 47.375 C-101.63 47.375 -97.01 47.375 -92.25 47.375 C-92.25 42.425 -92.25 37.475 -92.25 32.375 C-98.19 32.375 -104.13 32.375 -110.25 32.375 C-109.92 31.715 -109.59 31.055 -109.25 30.375 C-103.64 30.375 -98.03 30.375 -92.25 30.375 C-91.59 28.395 -90.93 26.415 -90.25 24.375 C-77.75329187 9.13237843 -54.76858986 4.99244374 -36.25 2.375 C-35.13399414 2.20581055 -34.01798828 2.03662109 -32.86816406 1.86230469 C-21.89609332 0.32009007 -11.07138819 -0.02372198 0 0 Z " fill="#201D1B" transform="translate(257.25,202.625)"/>
<path d="M0 0 C2.20388685 0.03982928 4.40738085 0.11131131 6.609375 0.2109375 C8.29933594 0.25154297 8.29933594 0.25154297 10.0234375 0.29296875 C12.80401737 0.36366146 15.58072859 0.4622871 18.359375 0.5859375 C16.82633642 6.10135215 14.1703191 10.60775713 11.234375 15.4609375 C8.82125 19.4828125 8.82125 19.4828125 6.359375 23.5859375 C-1.890625 23.2559375 -10.140625 22.9259375 -18.640625 22.5859375 C-19.70418991 24.71306732 -20.76334392 26.84264545 -21.7890625 28.98828125 C-26.12397783 37.94802664 -26.12397783 37.94802664 -29.640625 41.5859375 C-30.300625 41.5859375 -30.960625 41.5859375 -31.640625 41.5859375 C-32.78564453 40.07299805 -32.78564453 40.07299805 -34.0234375 37.97265625 C-34.69052734 36.8424707 -34.69052734 36.8424707 -35.37109375 35.68945312 C-35.83128906 34.89216797 -36.29148438 34.09488281 -36.765625 33.2734375 C-37.46751953 32.09491211 -37.46751953 32.09491211 -38.18359375 30.89257812 C-41.640625 24.97127824 -41.640625 24.97127824 -41.640625 21.5859375 C-33.720625 21.5859375 -25.800625 21.5859375 -17.640625 21.5859375 C-16.980625 19.6059375 -16.320625 17.6259375 -15.640625 15.5859375 C-14.2734375 13.2421875 -14.2734375 13.2421875 -12.765625 11.0859375 C-12.27320313 10.374375 -11.78078125 9.6628125 -11.2734375 8.9296875 C-10.73460937 8.15625 -10.19578125 7.3828125 -9.640625 6.5859375 C-9.16882813 5.51085937 -8.69703125 4.43578125 -8.2109375 3.328125 C-5.13953608 0.05134112 -4.33752687 0.1530162 0 0 Z " fill="#E3C25B" transform="translate(264.640625,273.4140625)"/>
<path d="M0 0 C6.1191517 0.47122932 10.59102899 1.8393264 16 4.6875 C16.69770508 5.04690674 17.39541016 5.40631348 18.11425781 5.77661133 C26.05631255 9.9527806 32.86959586 14.33545918 37.3125 22.375 C38.57222046 27.18484176 37.43691377 30.90771556 35.625 35.4375 C26.45036286 50.17653801 3.59769262 55.01023794 -12 59 C-15.85922709 59.87345094 -19.72829306 60.62664463 -23.625 61.3125 C-24.45612305 61.45953369 -25.28724609 61.60656738 -26.14355469 61.75805664 C-42.27129288 64.36623812 -58.48285476 65.33756713 -74.80224609 65.26074219 C-77.49990281 65.25000039 -80.19689405 65.26073814 -82.89453125 65.2734375 C-95.36275103 65.28189397 -107.61222891 64.38377392 -120 63 C-120.495 61.515 -120.495 61.515 -121 60 C-119.81946045 60.06928711 -118.6389209 60.13857422 -117.42260742 60.20996094 C-104.38309392 60.9395682 -91.37164434 61.24080418 -78.3125 61.25 C-77.30630615 61.25100708 -76.3001123 61.25201416 -75.26342773 61.25305176 C-59.9409771 61.24272092 -45.13058119 60.57541807 -30 58 C-28.12005051 57.71702502 -26.23983748 57.4357957 -24.359375 57.15625 C-5.48508948 54.2008633 19.33326979 49.4414992 31.828125 33.69921875 C34.17224623 30.30024297 34.53653963 28.13902 34 24 C28.59232215 13.27014118 15.61200967 7.8856213 4.75 4.24609375 C3.17715395 3.79263209 1.5900921 3.38868918 0 3 C0 2.01 0 1.02 0 0 Z " fill="#141210" transform="translate(338,314)"/>
<path d="M0 0 C0.9897583 0.02094727 1.9795166 0.04189453 2.99926758 0.06347656 C4.07241211 0.07636719 5.14555664 0.08925781 6.2512207 0.10253906 C7.37077148 0.13605469 8.49032227 0.16957031 9.64379883 0.20410156 C10.77495117 0.22214844 11.90610352 0.24019531 13.0715332 0.25878906 C15.86730258 0.30597504 18.66137855 0.37179561 21.45629883 0.45410156 C20.80935409 2.46056785 20.1370096 4.45883785 19.45629883 6.45410156 C19.25633301 7.08155273 19.05636719 7.70900391 18.8503418 8.35546875 C17.09409716 13.43860383 15.03050822 18.36255937 10.45629883 21.45410156 C2.33661974 23.38873939 -6.32632361 22.36300038 -14.54370117 21.45410156 C-13.24774388 18.01625365 -12.15295378 16.00219981 -9.54370117 13.45410156 C-8.4430019 11.32713571 -8.4430019 11.32713571 -7.54370117 9.01660156 C-4.18557195 0.74720835 -4.18557195 0.74720835 0 0 Z " fill="#6C9DE5" transform="translate(248.543701171875,295.5458984375)"/>
<path d="M0 0 C1.11761719 0.02707031 1.11761719 0.02707031 2.2578125 0.0546875 C4.08909701 0.10164351 5.91971649 0.17338348 7.75 0.25 C7.91604736 1.21655518 7.91604736 1.21655518 8.08544922 2.20263672 C8.59724191 5.17699903 9.11111018 8.15099933 9.625 11.125 C9.79902344 12.13820313 9.97304687 13.15140625 10.15234375 14.1953125 C11.2553111 20.56801276 12.44516754 26.91550381 13.75 33.25 C2.75851353 30.43167013 -5.35393986 22.45934584 -11.25 13.0625 C-12.40237512 9.82144496 -12.76881216 7.65933706 -12.25 4.25 C-8.9616903 -0.45729606 -5.30733938 -0.24380004 0 0 Z " fill="#F7F7F6" transform="translate(157.25,251.75)"/>
<path d="M0 0 C1.36676632 0.13929356 2.7374567 0.24365301 4.109375 0.31640625 C5.24052734 0.37924805 5.24052734 0.37924805 6.39453125 0.44335938 C7.56048828 0.50233398 7.56048828 0.50233398 8.75 0.5625 C9.93916016 0.62727539 9.93916016 0.62727539 11.15234375 0.69335938 C13.10137815 0.79902991 15.05066748 0.89997966 17 1 C17 5.95 17 10.9 17 16 C14.793125 16.061875 12.58625 16.12375 10.3125 16.1875 C4.49852702 16.4224586 4.49852702 16.4224586 -0.375 19.1875 C-2.42514599 22.7358296 -2.83957326 23.95478336 -2 28 C3.09821858 39.40390998 11.76663256 46.12204503 23 51 C22.60167969 49.54980469 22.60167969 49.54980469 22.1953125 48.0703125 C15.23703385 22.52593229 15.23703385 22.52593229 18 17 C18.2322646 14.28737884 18.41936235 11.59226874 18.5625 8.875 C18.62727539 7.74384766 18.62727539 7.74384766 18.69335938 6.58984375 C18.7994832 4.72678112 18.90025001 2.86341476 19 1 C19.33 1 19.66 1 20 1 C20.01458252 1.67877197 20.02916504 2.35754395 20.04418945 3.05688477 C20.55243003 24.27547996 22.51696871 45.10357661 32.3984375 64.30078125 C33 66 33 66 32 69 C28.62777988 66.35039848 27.6048481 63.97065245 26.375 60 C24.95370741 56.17002701 24.95370741 56.17002701 21.83984375 53.70703125 C20.12223949 53.09910022 18.39350029 52.52193392 16.65625 51.97265625 C7.7553597 48.71335966 0.56138771 40.25044687 -4.4375 32.4375 C-6.16784334 28.63074464 -6.32412426 26.13258435 -6 22 C-6 21.34 -6 20.68 -6 20 C-7.70840281 21.63412443 -8.93453047 22.86906094 -10 25 C-10.99 25 -11.98 25 -13 25 C-12.70179167 21.42150008 -12.25754642 20.23773516 -9.5625 17.75 C-6.06597745 15.36213094 -4.39442018 14.87714205 -0.2109375 14.90234375 C0.73007813 14.90556641 1.67109375 14.90878906 2.640625 14.91210938 C3.62546875 14.92048828 4.6103125 14.92886719 5.625 14.9375 C7.11386719 14.94426758 7.11386719 14.94426758 8.6328125 14.95117188 C11.08856722 14.96297839 13.54429106 14.98091418 16 15 C16 10.71 16 6.42 16 2 C13.14447056 2.08763 10.29181011 2.19459007 7.4375 2.3125 C6.63763672 2.33505859 5.83777344 2.35761719 5.01367188 2.38085938 C-1.60843614 2.67817851 -7.24388579 3.93536427 -12.25 8.625 C-15 11 -15 11 -18 12 C-16.66419209 7.81206167 -15.0759681 5.85769718 -11.5625 3.25 C-10.78003906 2.65703125 -9.99757812 2.0640625 -9.19140625 1.453125 C-5.70669824 -0.85759047 -3.88546324 -1.09330224 0 0 Z " fill="#14120F" transform="translate(148,234)"/>
<path d="M0 0 C-0.33 0.66 -0.66 1.32 -1 2 C-3.48657227 2.36303711 -3.48657227 2.36303711 -6.81640625 2.52734375 C-8.04359375 2.5953418 -9.27078125 2.66333984 -10.53515625 2.73339844 C-11.51959717 2.78264465 -11.51959717 2.78264465 -12.52392578 2.83288574 C-15.96695584 3.00957297 -19.40719231 3.22873743 -22.84765625 3.44921875 C-23.54214874 3.49362091 -24.23664124 3.53802307 -24.95217896 3.58377075 C-63.96538291 5.97338983 -63.96538291 5.97338983 -96.9375 24.75 C-100.48590568 30.34142713 -100.2830564 35.86838375 -100.51757812 42.33203125 C-100.78466655 47.78466655 -100.78466655 47.78466655 -103 50 C-105.59269983 49.98252112 -108.0525154 49.86231408 -110.625 49.625 C-111.68460938 49.53992188 -111.68460938 49.53992188 -112.765625 49.453125 C-114.51121361 49.31159079 -116.25573673 49.15702613 -118 49 C-117.67 48.34 -117.34 47.68 -117 47 C-112.38 47 -107.76 47 -103 47 C-103 42.05 -103 37.1 -103 32 C-108.94 32 -114.88 32 -121 32 C-120.67 31.34 -120.34 30.68 -120 30 C-114.39 30 -108.78 30 -103 30 C-102.34 28.02 -101.68 26.04 -101 24 C-88.90609426 9.24868896 -66.99364736 4.97442075 -49.03222656 2.30859375 C-47.17057769 2.02590223 -45.31523378 1.70246954 -43.4609375 1.375 C-29.13294537 -0.87252818 -14.46038419 -0.17707705 0 0 Z " fill="#141312" transform="translate(268,203)"/>
<path d="M0 0 C0.99 0 1.98 0 3 0 C3.268125 1.02996094 3.53625 2.05992187 3.8125 3.12109375 C9.9748442 25.89180581 20.13662996 46.00570559 40.8125 58.75 C45.93039849 61.6444413 51.03949997 63.52188586 56.69921875 65.078125 C57.45847656 65.38234375 58.21773437 65.6865625 59 66 C59.33 66.99 59.66 67.98 60 69 C43.79141187 67.44148191 29.90163897 57.60269429 19.68408203 45.43261719 C11.0723138 34.58415787 -0.87747746 14.3055417 0 0 Z " fill="#13100C" transform="translate(184,261)"/>
<path d="M0 0 C6.1191517 0.47122932 10.59102899 1.8393264 16 4.6875 C16.69770508 5.04690674 17.39541016 5.40631348 18.11425781 5.77661133 C26.05631255 9.9527806 32.86959586 14.33545918 37.3125 22.375 C38.57222046 27.18484176 37.43691377 30.90771556 35.625 35.4375 C30.19646027 44.15843928 18.34120979 50.00685535 8.68359375 52.62890625 C8.12800781 52.75136719 7.57242187 52.87382812 7 53 C7.29272461 51.1184082 7.29272461 51.1184082 8 49 C10.51756137 47.56181712 12.92548996 46.35754459 15.5625 45.1875 C23.061467 41.65798841 30.59376369 38.02216403 34 30 C34.76144132 25.81207274 33.9406085 23.42762389 31.625 20 C24.27736559 10.96602327 11.09205601 5.71139147 0 3 C0 2.01 0 1.02 0 0 Z " fill="#1A1916" transform="translate(338,314)"/>
<path d="M0 0 C7.59 0 15.18 0 23 0 C20.75 6.75 20.75 6.75 18.8359375 9.8671875 C18.43632812 10.52460938 18.03671875 11.18203125 17.625 11.859375 C17.2125 12.52453125 16.8 13.1896875 16.375 13.875 C15.95476562 14.56335938 15.53453125 15.25171875 15.1015625 15.9609375 C14.07307528 17.64391658 13.037279 19.32242532 12 21 C9.7787431 18.92802434 8.22645249 16.92088004 6.73828125 14.27734375 C6.34189453 13.57416016 5.94550781 12.87097656 5.53710938 12.14648438 C5.13298828 11.41751953 4.72886719 10.68855469 4.3125 9.9375 C3.68891602 8.83825195 3.68891602 8.83825195 3.05273438 7.71679688 C0 2.25796644 0 2.25796644 0 0 Z " fill="#E16F61" transform="translate(260,274)"/>
<path d="M0 0 C2.9473614 1.9649076 3.53472991 2.56985674 5.0078125 5.5546875 C5.35457031 6.25207031 5.70132812 6.94945312 6.05859375 7.66796875 C6.41050781 8.39628906 6.76242187 9.12460937 7.125 9.875 C7.48464844 10.59558594 7.84429687 11.31617188 8.21484375 12.05859375 C9.87656409 15.43804748 11.07626189 18.30504756 12 22 C0.615 21.505 0.615 21.505 -11 21 C-9.01702101 16.04255253 -6.58563584 12.13765406 -3.65625 7.71875 C-2.11766548 5.19314899 -1.00510655 2.77409409 0 0 Z " fill="#729EE4" transform="translate(283,274)"/>
<path d="M0 0 C7.92 0 15.84 0 24 0 C22.37280225 4.88159325 20.59443904 8.62767824 17.875 12.875 C17.50246094 13.46796875 17.12992187 14.0609375 16.74609375 14.671875 C15.83635 16.1181343 14.91896202 17.55958046 14 19 C9.52802981 16.55610112 8.08510345 14.66666009 6 10 C5.34 9.34 4.68 8.68 4 8 C3.60235737 6.01178687 3.26224651 4.01055661 3 2 C2.01 2 1.02 2 0 2 C0 1.34 0 0.68 0 0 Z " fill="#63B772" transform="translate(246,296)"/>
<path d="M0 0 C7.59 0 15.18 0 23 0 C22.34 1.32 21.68 2.64 21 4 C20.62101562 4.79277344 20.24203125 5.58554687 19.8515625 6.40234375 C15.51664717 15.36208914 15.51664717 15.36208914 12 19 C11.34 19 10.68 19 10 19 C8.85498047 17.47119141 8.85498047 17.47119141 7.6171875 15.3515625 C7.17246094 14.59359375 6.72773438 13.835625 6.26953125 13.0546875 C5.80933594 12.25289063 5.34914062 11.45109375 4.875 10.625 C4.40707031 9.8309375 3.93914062 9.036875 3.45703125 8.21875 C0 2.2722531 0 2.2722531 0 0 Z " fill="#E26E60" transform="translate(223,296)"/>
<path d="M0 0 C0.33 0.99 0.66 1.98 1 3 C0.278125 3.474375 -0.44375 3.94875 -1.1875 4.4375 C-6.14831228 8.95735119 -9.25006734 14.13515028 -9.625 20.9375 C-9.28193762 27.44559512 -6.08304291 32.5593189 -2.77734375 38.01953125 C0.38901068 43.59186108 1.12637829 48.66202065 0 55 C-2.38374391 61.29000812 -5.50213113 66.97189456 -10 72 C-10.66 72 -11.32 72 -12 72 C-11.44319937 68.06063556 -10.30501425 65.59980359 -8 62.375 C-3.80659514 56.46794411 -2.87050469 51.17139882 -4 44 C-5.95943915 39.73232102 -8.42698215 35.91773985 -11 32 C-14.18079163 26.77144382 -13.78090091 20.90768515 -13 15 C-11.08259207 10.24175022 -5.95642305 0 0 0 Z " fill="#1A1A1A" transform="translate(266,124)"/>
<path d="M0 0 C0.66 0.33 1.32 0.66 2 1 C0.82070468 3.78742531 -0.5080894 5.59700505 -2.5 7.9375 C-6.78923458 13.19181236 -7.44496785 17.58921095 -7.3203125 24.22265625 C-6.68575132 29.72476599 -3.92893356 33.70981451 -0.75 38.125 C2.68794119 44.07318396 1.98551613 52.22957031 0.3046875 58.66015625 C-1.82596574 63.87936146 -5.10939353 67.96673796 -9 72 C-9.66 71.67 -10.32 71.34 -11 71 C-9.66392467 68.22269525 -8.17801789 65.64603364 -6.5 63.0625 C-3.07086891 57.57993643 -1.3489982 53.61851833 -2 47 C-3.86034276 40.93628818 -6.71201199 35.43990558 -9.94921875 30.0078125 C-12.16797098 25.76826363 -12.45870939 21.73999703 -12 17 C-9.47678617 9.96215695 -5.59977915 4.87358301 0 0 Z " fill="#171717" transform="translate(234,124)"/>
<path d="M0 0 C0.66 0.33 1.32 0.66 2 1 C0.6738993 3.91997173 -0.81035562 6.04302874 -3 8.375 C-7.12014505 13.10814225 -8.49706593 17.58641691 -8.31640625 23.93359375 C-7.62145904 28.4721996 -5.12219158 32.30558608 -2.62109375 36.08203125 C1.34377951 42.35127529 2.02509727 47.66145319 1 55 C-0.7848078 61.99963728 -4.05059615 66.82562325 -9 72 C-9.66 71.67 -10.32 71.34 -11 71 C-9.18262627 67.28917643 -7.16201054 63.71238056 -5.12109375 60.12109375 C-2.37406708 54.92375757 -2.31656206 49.74538487 -3 44 C-4.68615666 39.38422752 -7.16319125 35.34487121 -9.75 31.1875 C-12.37011984 26.60229028 -12.69011466 21.18544488 -12 16 C-9.7587447 9.50766807 -5.72152921 3.81435281 0 0 Z " fill="#181818" transform="translate(295,124)"/>
<path d="M0 0 C1.36676632 0.13929356 2.7374567 0.24365301 4.109375 0.31640625 C5.24052734 0.37924805 5.24052734 0.37924805 6.39453125 0.44335938 C7.56048828 0.50233398 7.56048828 0.50233398 8.75 0.5625 C9.93916016 0.62727539 9.93916016 0.62727539 11.15234375 0.69335938 C13.10137815 0.79902991 15.05066748 0.89997966 17 1 C17 5.95 17 10.9 17 16 C14.793125 16.061875 12.58625 16.12375 10.3125 16.1875 C4.49852702 16.4224586 4.49852702 16.4224586 -0.375 19.1875 C-2.3064624 22.53041569 -2.55458833 24.19710857 -2 28 C-1.08742694 30.78566059 -1.08742694 30.78566059 0 33 C-1.32 33 -2.64 33 -4 33 C-6.33174698 29.35664534 -6.15704592 26.24023996 -6 22 C-6 21.34 -6 20.68 -6 20 C-7.70840281 21.63412443 -8.93453047 22.86906094 -10 25 C-10.99 25 -11.98 25 -13 25 C-12.70179167 21.42150008 -12.25754642 20.23773516 -9.5625 17.75 C-6.06597745 15.36213094 -4.39442018 14.87714205 -0.2109375 14.90234375 C0.73007813 14.90556641 1.67109375 14.90878906 2.640625 14.91210938 C3.62546875 14.92048828 4.6103125 14.92886719 5.625 14.9375 C7.11386719 14.94426758 7.11386719 14.94426758 8.6328125 14.95117188 C11.08856722 14.96297839 13.54429106 14.98091418 16 15 C16 10.71 16 6.42 16 2 C13.14447056 2.08763 10.29181011 2.19459007 7.4375 2.3125 C6.63763672 2.33505859 5.83777344 2.35761719 5.01367188 2.38085938 C-1.60843614 2.67817851 -7.24388579 3.93536427 -12.25 8.625 C-15 11 -15 11 -18 12 C-16.66419209 7.81206167 -15.0759681 5.85769718 -11.5625 3.25 C-10.78003906 2.65703125 -9.99757812 2.0640625 -9.19140625 1.453125 C-5.70669824 -0.85759047 -3.88546324 -1.09330224 0 0 Z " fill="#22201B" transform="translate(148,234)"/>
<path d="M0 0 C0.495 2.475 0.495 2.475 1 5 C0.16863525 5.11069824 -0.66272949 5.22139648 -1.51928711 5.33544922 C-4.64520162 5.7535721 -7.77061779 6.17520818 -10.89575195 6.59912109 C-12.89694087 6.86951969 -14.89866164 7.13597272 -16.90039062 7.40234375 C-23.68981768 8.32584264 -30.34160763 9.37742799 -37 11 C-36.18870871 8.24479115 -35.6120056 6.31595289 -34 4 C-31.05557506 2.95043977 -28.96776328 2.45119008 -25.9375 2.125 C-24.79112061 1.96487427 -24.79112061 1.96487427 -23.62158203 1.80151367 C-21.41694529 1.50194272 -19.21122011 1.24545852 -17 1 C-15.97777344 0.86980469 -14.95554688 0.73960937 -13.90234375 0.60546875 C-9.25169037 0.06636674 -4.67878819 -0.10171279 0 0 Z " fill="#DDD9C2" transform="translate(244,206)"/>
<path d="M0 0 C-5.73200666 7.03751708 -19.61448391 8.50956332 -28.125 10.25 C-28.91060303 10.41298584 -29.69620605 10.57597168 -30.50561523 10.74389648 C-42.02519616 12.96925663 -53.61529155 13.14564036 -65.3125 13.0625 C-67.15618164 13.05573242 -67.15618164 13.05573242 -69.03710938 13.04882812 C-72.02479356 13.03720289 -75.01236855 13.02086559 -78 13 C-78.33 12.34 -78.66 11.68 -79 11 C-78.03924561 10.95512451 -77.07849121 10.91024902 -76.08862305 10.86401367 C-41.01180488 9.72256887 -41.01180488 9.72256887 -7.26171875 0.88671875 C-4.7011646 -0.11715999 -2.72614645 -0.1557798 0 0 Z " fill="#0C0604" transform="translate(326,246)"/>
<path d="M0 0 C4.5532187 -0.02489563 9.10639693 -0.04295187 13.65966797 -0.05493164 C15.20557344 -0.05993092 16.75147425 -0.06673253 18.29736328 -0.07543945 C20.53158728 -0.08769956 22.76574826 -0.09327249 25 -0.09765625 C25.68054443 -0.10281754 26.36108887 -0.10797882 27.06225586 -0.11329651 C31.79987721 -0.11383862 36.31976335 0.33955645 41 1 C39.68 1.99 38.36 2.98 37 4 C36.34 3.67 35.68 3.34 35 3 C35 3.66 35 4.32 35 5 C23.78 5 12.56 5 1 5 C0.67 3.35 0.34 1.7 0 0 Z " fill="#EDE9D0" transform="translate(244,206)"/>
<path d="M0 0 C0.66 0 1.32 0 2 0 C1.04322793 9.60148915 -0.08514456 18.76314699 -3 28 C-3.19263428 28.72058594 -3.38526855 29.44117188 -3.58374023 30.18359375 C-5.3669284 36.64725635 -7.96555204 42.26022739 -11.1875 48.125 C-11.65091797 48.98609375 -12.11433594 49.8471875 -12.59179688 50.734375 C-13.71975446 52.82749217 -14.85580213 54.91573044 -16 57 C-16.99 57 -17.98 57 -19 57 C-19 53.50491311 -17.81136222 51.68288371 -16.10400391 48.70874023 C-8.07804604 34.69280944 -4.15022547 19.74349178 -1.54296875 3.89453125 C-1 1 -1 1 0 0 Z " fill="#1B1B17" transform="translate(349,255)"/>
<path d="M0 0 C5.3823049 1.31275729 9.4942177 3.7097747 13 8 C13.9375 11.875 13.9375 11.875 14 15 C13.01 15.66 12.02 16.32 11 17 C10.29617188 16.61328125 9.59234375 16.2265625 8.8671875 15.828125 C1.05863468 11.70977599 -6.45293415 9.14941005 -15 7 C-15 6.67 -15 6.34 -15 6 C-6.96850394 5.73228346 -6.96850394 5.73228346 -3 8 C-1.68 8 -0.36 8 1 8 C0.649375 7.4225 0.29875 6.845 -0.0625 6.25 C-1.14917407 3.64198224 -0.93065133 2.60582371 0 0 Z " fill="#DAD7C1" transform="translate(319,223)"/>
<path d="M0 0 C0.66 0.33 1.32 0.66 2 1 C1.29875 1.680625 0.5975 2.36125 -0.125 3.0625 C-2.22744421 5.17695817 -4.26472511 7.33745761 -6.25 9.5625 C-6.75015625 10.12066406 -7.2503125 10.67882812 -7.765625 11.25390625 C-11.01253034 15.84683881 -10.32093841 21.9124489 -10.51757812 27.33203125 C-10.78466655 32.78466655 -10.78466655 32.78466655 -13 35 C-15.59269983 34.98252112 -18.0525154 34.86231408 -20.625 34.625 C-21.68460938 34.53992188 -21.68460938 34.53992188 -22.765625 34.453125 C-24.51121361 34.31159079 -26.25573673 34.15702613 -28 34 C-27.67 33.34 -27.34 32.68 -27 32 C-22.38 32 -17.76 32 -13 32 C-13 27.05 -13 22.1 -13 17 C-18.94 17 -24.88 17 -31 17 C-30.67 16.34 -30.34 15.68 -30 15 C-24.39 15 -18.78 15 -13 15 C-12.34 13.02 -11.68 11.04 -11 9 C-8.90625 6.69921875 -8.90625 6.69921875 -6.5 4.6875 C-5.7059375 4.01074219 -4.911875 3.33398438 -4.09375 2.63671875 C-2 1 -2 1 0 0 Z " fill="#070604" transform="translate(178,218)"/>
<path d="M0 0 C2.1671921 0.01844314 4.33395756 0.02050738 6.5012207 0.02026367 C13.51328311 0.03857663 20.38876391 0.23291757 27.33911133 1.20581055 C27.00911133 1.86581055 26.67911133 2.52581055 26.33911133 3.20581055 C8.51911133 3.53581055 -9.30088867 3.86581055 -27.66088867 4.20581055 C-27.99088867 3.54581055 -28.32088867 2.88581055 -28.66088867 2.20581055 C-19.01522099 0.52403603 -9.76360947 -0.0857923 0 0 Z " fill="#171410" transform="translate(254.660888671875,210.794189453125)"/>
<path d="M0 0 C0.33 0.99 0.66 1.98 1 3 C1.66 3 2.32 3 3 3 C3.33 4.65 3.66 6.3 4 8 C4.99 8 5.98 8 7 8 C7.33 8.99 7.66 9.98 8 11 C2.39 11 -3.22 11 -9 11 C-9 10.34 -9 9.68 -9 9 C-10.32 9 -11.64 9 -13 9 C-12.67 7.68 -12.34 6.36 -12 5 C-11.34 5 -10.68 5 -10 5 C-9.731875 4.360625 -9.46375 3.72125 -9.1875 3.0625 C-7.07129989 -0.61300545 -3.8426845 -0.10385634 0 0 Z " fill="#F5C73A" transform="translate(263,284)"/>
<path d="M0 0 C0.66 0.99 1.32 1.98 2 3 C1.00742188 3.17015625 0.01484375 3.3403125 -1.0078125 3.515625 C-21.82189886 6.88638727 -21.82189886 6.88638727 -40.0859375 16.71484375 C-40.71757812 17.13894531 -41.34921875 17.56304687 -42 18 C-42.99 17.67 -43.98 17.34 -45 17 C-43.84390132 15.90539593 -42.67435884 14.82499002 -41.5 13.75 C-40.8503125 13.14671875 -40.200625 12.5434375 -39.53125 11.921875 C-33.39752469 7.26478726 -26.71572517 5.12970839 -19.3125 3.3125 C-18.48427734 3.10044922 -17.65605469 2.88839844 -16.80273438 2.66992188 C-4.40622851 -0.47634903 -4.40622851 -0.47634903 0 0 Z " fill="#181611" transform="translate(226,213)"/>
<path d="M0 0 C9.69596958 1.22445431 17.84687069 6.49240826 24 14 C25.3308911 16.66178221 25.11268993 18.68739396 25.09765625 21.6640625 C25.09443359 22.78554687 25.09121094 23.90703125 25.08789062 25.0625 C25.07951172 26.238125 25.07113281 27.41375 25.0625 28.625 C25.05798828 29.80835938 25.05347656 30.99171875 25.04882812 32.2109375 C25.03701467 35.14067507 25.02054258 38.07031272 25 41 C23.515 41.495 23.515 41.495 22 42 C22.01571045 41.36497559 22.0314209 40.72995117 22.04760742 40.07568359 C22.1102859 37.1755477 22.14909417 34.27555476 22.1875 31.375 C22.21263672 30.37597656 22.23777344 29.37695312 22.26367188 28.34765625 C22.32766529 21.90565278 21.85864203 17.43992579 17.59765625 12.3125 C12.29946545 7.78274909 6.29830479 4.91645641 0 2 C0 1.34 0 0.68 0 0 Z " fill="#12110E" transform="translate(326,214)"/>
<path d="M0 0 C1.24546405 2.49092811 0.7767578 3.41080733 0 6 C-0.66 6 -1.32 6 -2 6 C-1.67 8.64 -1.34 11.28 -1 14 C3.0303028 14.34646126 3.0303028 14.34646126 7 14 C9.5404226 11.66169042 9.5404226 11.66169042 11 9 C14 13.625 14 13.625 14 17 C2.615 16.505 2.615 16.505 -9 16 C-7.36768634 11.91921584 -5.7416683 8.82515683 -3.375 5.1875 C-2.74335938 4.21167969 -2.11171875 3.23585938 -1.4609375 2.23046875 C-0.73777344 1.12638672 -0.73777344 1.12638672 0 0 Z " fill="#7A9BD8" transform="translate(281,279)"/>
<path d="M0 0 C5.55581927 2.77790964 9.44357889 5.85631711 13 11 C13.90238747 13.70716242 14.11851302 15.23776768 14.09765625 18.01171875 C14.09443359 18.76904297 14.09121094 19.52636719 14.08789062 20.30664062 C14.07951172 21.09232422 14.07113281 21.87800781 14.0625 22.6875 C14.05798828 23.48478516 14.05347656 24.28207031 14.04882812 25.10351562 C14.0370585 27.06904257 14.01912348 29.03453085 14 31 C13.67 31 13.34 31 13 31 C12.95101563 30.01257813 12.90203125 29.02515625 12.8515625 28.0078125 C12.73941406 26.08582031 12.73941406 26.08582031 12.625 24.125 C12.55539062 22.84882813 12.48578125 21.57265625 12.4140625 20.2578125 C12.32758894 16.91938301 12.32758894 16.91938301 10 15 C9.375 12.375 9.375 12.375 9 10 C8.21625 10 7.4325 10 6.625 10 C5.08333333 10 3.54166667 10 2 10 C1.34 10.66 0.68 11.32 0 12 C-0.66 10.35 -1.32 8.7 -2 7 C-1.34 6.67 -0.68 6.34 0 6 C0.33 5.01 0.66 4.02 1 3 C0.34 3 -0.32 3 -1 3 C-0.67 2.01 -0.34 1.02 0 0 Z " fill="#DBD7C2" transform="translate(335,220)"/>
<path d="M0 0 C0.53625 0.495 1.0725 0.99 1.625 1.5 C-10.75581265 2.85798878 -22.9137362 3.8172599 -35.375 3.5 C-33.375 0.5 -33.375 0.5 -30.94824219 -0.02416992 C-29.94954102 -0.09224854 -28.95083984 -0.16032715 -27.921875 -0.23046875 C-26.82746094 -0.31103516 -25.73304688 -0.39160156 -24.60546875 -0.47460938 C-23.45691406 -0.54486328 -22.30835938 -0.61511719 -21.125 -0.6875 C-19.42537109 -0.8102832 -19.42537109 -0.8102832 -17.69140625 -0.93554688 C-3.09352421 -1.95380477 -3.09352421 -1.95380477 0 0 Z " fill="#191817" transform="translate(301.375,375.5)"/>
<path d="M0 0 C0.66 0.66 1.32 1.32 2 2 C0.76765625 2.30292969 -0.4646875 2.60585937 -1.734375 2.91796875 C-11.19004022 5.29359589 -20.14707242 7.84742918 -29 12 C-29 10.68 -29 9.36 -29 8 C-6.11578991 -2.32295024 -6.11578991 -2.32295024 0 0 Z " fill="#1E1C19" transform="translate(208,209)"/>
<path d="M0 0 C1.36676632 0.13929356 2.7374567 0.24365301 4.109375 0.31640625 C5.24052734 0.37924805 5.24052734 0.37924805 6.39453125 0.44335938 C7.56048828 0.50233398 7.56048828 0.50233398 8.75 0.5625 C9.93916016 0.62727539 9.93916016 0.62727539 11.15234375 0.69335938 C13.10137815 0.79902991 15.05066748 0.89997966 17 1 C17 5.62 17 10.24 17 15 C16.67 15 16.34 15 16 15 C16 10.71 16 6.42 16 2 C13.14447056 2.08763 10.29181011 2.19459007 7.4375 2.3125 C6.63763672 2.33505859 5.83777344 2.35761719 5.01367188 2.38085938 C-1.60843614 2.67817851 -7.24388579 3.93536427 -12.25 8.625 C-15 11 -15 11 -18 12 C-16.66419209 7.81206167 -15.0759681 5.85769718 -11.5625 3.25 C-10.78003906 2.65703125 -9.99757812 2.0640625 -9.19140625 1.453125 C-5.70669824 -0.85759047 -3.88546324 -1.09330224 0 0 Z " fill="#46443E" transform="translate(148,234)"/>
<path d="M0 0 C6.0399147 1.15734892 12.02274476 2.55767691 18 4 C16.79711914 5.53417969 16.79711914 5.53417969 15 7 C12.79858398 6.98925781 12.79858398 6.98925781 10.24609375 6.453125 C9.30830078 6.2675 8.37050781 6.081875 7.40429688 5.890625 C6.42525391 5.67921875 5.44621094 5.4678125 4.4375 5.25 C-2.70679373 3.77954279 -9.72218236 2.56924815 -17 2 C-11.54951154 -2.40978265 -6.69340943 -1.00632862 0 0 Z " fill="#201C17" transform="translate(295,213)"/>
<path d="M0 0 C0.82653076 0.1225415 1.65306152 0.24508301 2.50463867 0.37133789 C7.49623641 0.97585665 12.41330773 1.27518838 17.43432617 1.41040039 C18.1793338 1.431539 18.92434143 1.45267761 19.69192505 1.47445679 C21.99791933 1.53797541 24.30399784 1.59732597 26.61010742 1.65649414 C28.19800675 1.69979606 29.7858975 1.74341357 31.3737793 1.78735352 C35.22329963 1.89320103 39.07291031 1.99479323 42.92260742 2.09399414 C42.92260742 2.42399414 42.92260742 2.75399414 42.92260742 3.09399414 C33.02260742 3.58899414 33.02260742 3.58899414 22.92260742 4.09399414 C22.92260742 4.42399414 22.92260742 4.75399414 22.92260742 5.09399414 C13.45684184 5.46199367 4.28387051 4.32314006 -5.07739258 3.09399414 C-3.4325934 1.03758156 -2.6948651 0.12193243 0 0 Z " fill="#251D18" transform="translate(225.077392578125,253.906005859375)"/>
<path d="M0 0 C-0.33 0.66 -0.66 1.32 -1 2 C-3.38152121 2.53549449 -5.68673774 2.94537692 -8.09765625 3.2890625 C-9.16094398 3.45128799 -9.16094398 3.45128799 -10.24571228 3.61679077 C-12.51679659 3.96130225 -14.78951725 4.29326868 -17.0625 4.625 C-18.59973309 4.85594885 -20.1368445 5.0877092 -21.67382812 5.3203125 C-25.44786965 5.88964477 -29.22342543 6.4477308 -33 7 C-32.67 6.01 -32.34 5.02 -32 4 C-27.38289705 1.97159532 -22.65102163 1.41270104 -17.6875 0.875 C-16.56516968 0.74762451 -16.56516968 0.74762451 -15.42016602 0.61767578 C-10.2520465 0.05983988 -5.20067534 -0.18911547 0 0 Z " fill="#191511" transform="translate(246,225)"/>
<path d="M0 0 C4.70087567 0.04284652 8.49784586 0.47470055 12.875 2.1875 C13.37 3.1775 13.37 3.1775 13.875 4.1875 C1.335 3.8575 -11.205 3.5275 -24.125 3.1875 C-24.125 2.8575 -24.125 2.5275 -24.125 2.1875 C-22.83722656 2.12691406 -21.54945313 2.06632813 -20.22265625 2.00390625 C-18.54425841 1.91951753 -16.86587364 1.8348687 -15.1875 1.75 C-13.91229492 1.69102539 -13.91229492 1.69102539 -12.61132812 1.63085938 C-11.80244141 1.58896484 -10.99355469 1.54707031 -10.16015625 1.50390625 C-9.03685913 1.44891968 -9.03685913 1.44891968 -7.89086914 1.39282227 C-5.02244924 1.05930351 -3.30030236 0.02248162 0 0 Z " fill="#23211D" transform="translate(273.125,202.8125)"/>
<path d="M0 0 C0.66 0.33 1.32 0.66 2 1 C0.82070468 3.78742531 -0.5080894 5.59700505 -2.5 7.9375 C-6.90535592 13.33406101 -7.44127009 18.25113077 -8 25 C-8.33 25 -8.66 25 -9 25 C-9.33 22.69 -9.66 20.38 -10 18 C-10.33 19.98 -10.66 21.96 -11 24 C-11.33 24 -11.66 24 -12 24 C-12.72616047 17.31932365 -10.60920812 12.59248584 -7 7 C-4.82190125 4.47088533 -2.51655788 2.19020311 0 0 Z " fill="#131313" transform="translate(234,124)"/>
<path d="M0 0 C0 0.66 0 1.32 0 2 C-5.85797948 4.86390108 -11.57409836 6.0122936 -18 7 C-17.72965366 9.43717258 -17.72965366 9.43717258 -17 12 C-16.01 12.66 -15.02 13.32 -14 14 C-14.33 14.66 -14.66 15.32 -15 16 C-17.97 14.35 -20.94 12.7 -24 11 C-23 8 -23 8 -20.84765625 6.71875 C-5.49358974 0 -5.49358974 0 0 0 Z " fill="#937256" transform="translate(212,232)"/>
<path d="M0 0 C0.33 0.66 0.66 1.32 1 2 C4.02934491 2.65772428 4.02934491 2.65772428 7 3 C7.33 3.99 7.66 4.98 8 6 C7.443125 5.81179688 6.88625 5.62359375 6.3125 5.4296875 C3.59978228 4.77900183 1.76545777 4.51849503 -1 5 C-4.24911718 7.95034779 -6.62818708 11.32272057 -9 15 C-9.33 14.34 -9.66 13.68 -10 13 C-10.66 12.67 -11.32 12.34 -12 12 C-10.56665422 10.37133456 -9.12817021 8.74719006 -7.6875 7.125 C-6.88699219 6.22007812 -6.08648437 5.31515625 -5.26171875 4.3828125 C-3 2 -3 2 0 0 Z " fill="#13110E" transform="translate(331,310)"/>
<path d="M0 0 C0 3.38023517 -0.87455622 5.83468937 -2 9 C-2.66 9 -3.32 9 -4 9 C-4.103125 9.556875 -4.20625 10.11375 -4.3125 10.6875 C-5 13 -5 13 -8 18 C-1.4 18 5.2 18 12 18 C11.67 16.68 11.34 15.36 11 14 C12.32 15.32 13.64 16.64 15 18 C14 19 14 19 11.59155273 19.11352539 C10.54942627 19.10828857 9.5072998 19.10305176 8.43359375 19.09765625 C7.30888672 19.09443359 6.18417969 19.09121094 5.02539062 19.08789062 C3.84138672 19.07951172 2.65738281 19.07113281 1.4375 19.0625 C0.24962891 19.05798828 -0.93824219 19.05347656 -2.16210938 19.04882812 C-5.10812226 19.03699675 -8.05403681 19.02051287 -11 19 C-9.70323173 15.56022875 -8.60624964 13.5520938 -6 11 C-4.86523291 8.80548887 -4.86523291 8.80548887 -3.9375 6.4375 C-2.80810841 3.67525309 -2.13254655 2.13254655 0 0 Z " fill="#9592BE" transform="translate(245,298)"/>
<path d="M0 0 C0.33 0 0.66 0 1 0 C1.02505615 0.71019287 1.0501123 1.42038574 1.07592773 2.15209961 C1.19298472 5.41403464 1.31520746 8.67575722 1.4375 11.9375 C1.47681641 13.05447266 1.51613281 14.17144531 1.55664062 15.32226562 C1.79580904 21.59583708 2.21391779 27.77079389 3 34 C1.515 34.495 1.515 34.495 0 35 C-3.26213592 20.52427184 -3.26213592 20.52427184 -1 16 C-0.7677354 13.28737884 -0.58063765 10.59226874 -0.4375 7.875 C-0.39431641 7.12089844 -0.35113281 6.36679688 -0.30664062 5.58984375 C-0.2005168 3.72678112 -0.09974999 1.86341476 0 0 Z " fill="#2F2E2A" transform="translate(167,235)"/>
<path d="M0 0 C-0.26147461 1.87988281 -0.26147461 1.87988281 -1 4 C-2.67407227 5.09667969 -2.67407227 5.09667969 -4.81640625 5.921875 C-5.96206055 6.37626953 -5.96206055 6.37626953 -7.13085938 6.83984375 C-8.33452148 7.29037109 -8.33452148 7.29037109 -9.5625 7.75 C-10.77196289 8.22373047 -10.77196289 8.22373047 -12.00585938 8.70703125 C-13.99853983 9.48523782 -15.99862199 10.24444266 -18 11 C-18.66 10.01 -19.32 9.02 -20 8 C-17.56343315 6.85214624 -15.12580719 5.70664598 -12.6875 4.5625 C-11.99720703 4.23701172 -11.30691406 3.91152344 -10.59570312 3.57617188 C-2.96407861 0 -2.96407861 0 0 0 Z " fill="#1C1B19" transform="translate(175,314)"/>
<path d="M0 0 C2.64 1.32 5.28 2.64 8 4 C7 7 7 7 4.6015625 8.38671875 C3.61929687 8.81597656 2.63703125 9.24523437 1.625 9.6875 C0.15933594 10.34298828 0.15933594 10.34298828 -1.3359375 11.01171875 C-4 12 -4 12 -7 12 C-7 11.34 -7 10.68 -7 10 C-5.35 10 -3.7 10 -2 10 C-1.855625 8.906875 -1.71125 7.81375 -1.5625 6.6875 C-1 3 -1 3 0 0 Z " fill="#9E744E" transform="translate(320,237)"/>
<path d="M0 0 C1.32 0.33 2.64 0.66 4 1 C4 9.25 4 17.5 4 26 C3.01 26.33 2.02 26.66 1 27 C1.00785522 26.03960815 1.00785522 26.03960815 1.01586914 25.05981445 C1.03672429 22.14405305 1.04968729 19.22830738 1.0625 16.3125 C1.07087891 15.30509766 1.07925781 14.29769531 1.08789062 13.25976562 C1.09111328 12.28330078 1.09433594 11.30683594 1.09765625 10.30078125 C1.10289307 9.40528564 1.10812988 8.50979004 1.11352539 7.5871582 C0.99840198 4.96358241 0.58234285 2.55706947 0 0 Z " fill="#0B0A08" transform="translate(347,229)"/>
<path d="M0 0 C0.66 0 1.32 0 2 0 C2.05383848 2.45862401 2.09359038 4.9160755 2.125 7.375 C2.14175781 8.07367188 2.15851563 8.77234375 2.17578125 9.4921875 C2.19344267 11.32897486 2.10303261 13.16601963 2 15 C1.34 15.66 0.68 16.32 0 17 C-2.59269983 16.98252112 -5.0525154 16.86231408 -7.625 16.625 C-8.33140625 16.56828125 -9.0378125 16.5115625 -9.765625 16.453125 C-11.51121361 16.31159079 -13.25573673 16.15702613 -15 16 C-14.67 15.34 -14.34 14.68 -14 14 C-9.38 14 -4.76 14 0 14 C0 9.38 0 4.76 0 0 Z " fill="#020100" transform="translate(165,236)"/>
<path d="M0 0 C2.1387261 3.20808915 2.47730962 4.27698497 2 8 C1.01 8.66 0.02 9.32 -1 10 C-3.35953094 7.64046906 -3.49141413 6.22104383 -4 3 C-4.99 3 -5.98 3 -7 3 C-7.66 3 -8.32 3 -9 3 C-9 1.68 -9 0.36 -9 -1 C-5.25055078 -2.04151367 -3.26054893 -2.24865443 0 0 Z " fill="#EBE6D0" transform="translate(331,230)"/>
<path d="M0 0 C1.28777344 0.01417969 2.57554687 0.02835938 3.90234375 0.04296875 C4.91083374 0.05263672 4.91083374 0.05263672 5.93969727 0.0625 C10.96874944 0.13980499 15.86318806 0.53199076 20.83984375 1.23046875 C20.50984375 1.89046875 20.17984375 2.55046875 19.83984375 3.23046875 C16.61069623 3.25964103 13.38158292 3.27732538 10.15234375 3.29296875 C8.78432617 3.30553711 8.78432617 3.30553711 7.38867188 3.31835938 C6.50244141 3.32158203 5.61621094 3.32480469 4.703125 3.328125 C3.89141846 3.33336182 3.07971191 3.33859863 2.2434082 3.34399414 C-0.30880298 3.22344785 -2.67041762 2.79041775 -5.16015625 2.23046875 C-3.16015625 0.23046875 -3.16015625 0.23046875 0 0 Z " fill="#0A0704" transform="translate(261.16015625,210.76953125)"/>
<path d="M0 0 C2 3 2 3 3 5 C-1.29 5.99 -5.58 6.98 -10 8 C-8.6875 4.5625 -8.6875 4.5625 -7 1 C-4 0 -4 0 0 0 Z " fill="#D9D6C1" transform="translate(217,209)"/>
<path d="M0 0 C0.9796875 0.00322266 1.959375 0.00644531 2.96875 0.00976562 C3.98453125 0.01814453 5.0003125 0.02652344 6.046875 0.03515625 C7.59375 0.04192383 7.59375 0.04192383 9.171875 0.04882812 C11.71360073 0.06059537 14.25520819 0.07703614 16.796875 0.09765625 C16.466875 0.75765625 16.136875 1.41765625 15.796875 2.09765625 C7.876875 2.42765625 -0.043125 2.75765625 -8.203125 3.09765625 C-8.533125 2.43765625 -8.863125 1.77765625 -9.203125 1.09765625 C-6.06462436 0.17211882 -3.26631722 -0.01899022 0 0 Z " fill="#030102" transform="translate(251.203125,202.90234375)"/>
<path d="M0 0 C0.66 0.33 1.32 0.66 2 1 C2 2.65 2 4.3 2 6 C2.99 6.33 3.98 6.66 5 7 C4.34 8.65 3.68 10.3 3 12 C1.68 12 0.36 12 -1 12 C-1 13.65 -1 15.3 -1 17 C-1.33 17 -1.66 17 -2 17 C-2.05441656 15.10448978 -2.09298035 13.2085208 -2.125 11.3125 C-2.14820313 10.25675781 -2.17140625 9.20101563 -2.1953125 8.11328125 C-1.99858729 4.97748141 -1.33057654 2.82354627 0 0 Z " fill="#DFDDC7" transform="translate(131,248)"/>
<path d="M0 0 C3 5.75 3 5.75 3 8 C1.01926635 7.719172 -0.95958448 7.42503386 -2.9375 7.125 C-4.59072266 6.88136719 -4.59072266 6.88136719 -6.27734375 6.6328125 C-7.17582031 6.42398437 -8.07429687 6.21515625 -9 6 C-9.33 5.34 -9.66 4.68 -10 4 C-8.71086513 3.32845067 -7.41859796 2.66291141 -6.125 2 C-5.40570313 1.62875 -4.68640625 1.2575 -3.9453125 0.875 C-2 0 -2 0 0 0 Z " fill="#DEDAC7" transform="translate(176,296)"/>
<path d="M0 0 C3.12754976 0.612668 6.25146367 1.24221462 9.375 1.875 C10.70917969 2.13603516 10.70917969 2.13603516 12.0703125 2.40234375 C12.92109375 2.57636719 13.771875 2.75039062 14.6484375 2.9296875 C15.43395996 3.08679199 16.21948242 3.24389648 17.02880859 3.40576172 C19 4 19 4 21 6 C14.1222966 6.39679058 7.45773293 5.51076656 1 3 C0.67 2.01 0.34 1.02 0 0 Z " fill="#0B0503" transform="translate(204,250)"/>
<path d="M0 0 C1.21236328 0.01353516 1.21236328 0.01353516 2.44921875 0.02734375 C3.37154297 0.04474609 3.37154297 0.04474609 4.3125 0.0625 C3.3225 0.5575 3.3225 0.5575 2.3125 1.0625 C2.3125 2.3825 2.3125 3.7025 2.3125 5.0625 C-4.3125 6.3125 -4.3125 6.3125 -7.6875 4.0625 C-7.6875 3.0725 -7.6875 2.0825 -7.6875 1.0625 C-4.80538698 0.10179566 -2.98899956 -0.04331883 0 0 Z " fill="#E5E0C9" transform="translate(224.6875,207.9375)"/>
<path d="M0 0 C1.32 0.33 2.64 0.66 4 1 C1.69 5.29 -0.62 9.58 -3 14 C-3.99 14 -4.98 14 -6 14 C-6 10.27792613 -4.82035432 8.53604411 -3 5.3125 C-2.443125 4.31863281 -1.88625 3.32476562 -1.3125 2.30078125 C-0.879375 1.54152344 -0.44625 0.78226562 0 0 Z " fill="#1F1D1C" transform="translate(336,298)"/>
<path d="M0 0 C7.59 0 15.18 0 23 0 C22.34 1.32 21.68 2.64 21 4 C20.67 3.01 20.34 2.02 20 1 C14.39 1 8.78 1 3 1 C3.66 1.99 4.32 2.98 5 4 C5.125 6.6875 5.125 6.6875 5 9 C2.52746322 5.96552304 1.52573205 3.81433013 0 0 Z " fill="#D47667" transform="translate(223,296)"/>
<path d="M0 0 C-2.893775 3.15607625 -4.68223595 3.60020703 -9 4 C-12.00230133 4.0686801 -14.99766084 4.06004678 -18 4 C-17.67 3.01 -17.34 2.02 -17 1 C-11.27959989 0.1679418 -5.77759884 -0.12036664 0 0 Z " fill="#1B1A19" transform="translate(246,203)"/>
<path d="M0 0 C7.92 0 15.84 0 24 0 C23.34 1.98 22.68 3.96 22 6 C21.34 5.34 20.68 4.68 20 4 C20 3.01 20 2.02 20 1 C14.72 1 9.44 1 4 1 C3.67 1.99 3.34 2.98 3 4 C3 3.34 3 2.68 3 2 C2.01 2 1.02 2 0 2 C0 1.34 0 0.68 0 0 Z " fill="#73B173" transform="translate(246,296)"/>
<path d="M0 0 C3.87641915 4.32369829 10 11.95808443 10 18 C9.34 18 8.68 18 8 18 C7.67 16.35 7.34 14.7 7 13 C6.34 13 5.68 13 5 13 C3 10 3 10 3 6 C2.34 6 1.68 6 1 6 C1 5.34 1 4.68 1 4 C-0.98 4.99 -0.98 4.99 -3 6 C-1.125 1.125 -1.125 1.125 0 0 Z " fill="#F8BF5D" transform="translate(259,274)"/>
<path d="M0 0 C1.50433594 0.01353516 1.50433594 0.01353516 3.0390625 0.02734375 C3.80992187 0.03894531 4.58078125 0.05054688 5.375 0.0625 C4.055 1.0525 2.735 2.0425 1.375 3.0625 C0.715 2.7325 0.055 2.4025 -0.625 2.0625 C-0.625 2.7225 -0.625 3.3825 -0.625 4.0625 C-4.585 4.0625 -8.545 4.0625 -12.625 4.0625 C-12.625 3.7325 -12.625 3.4025 -12.625 3.0625 C-10.975 3.0625 -9.325 3.0625 -7.625 3.0625 C-7.625 2.4025 -7.625 1.7425 -7.625 1.0625 C-4.98041621 -0.25979189 -2.94738699 -0.03427194 0 0 Z " fill="#EEE9D5" transform="translate(279.625,206.9375)"/>
<path d="M0 0 C6.27 0.66 12.54 1.32 19 2 C19 2.66 19 3.32 19 4 C21.475 4.495 21.475 4.495 24 5 C21.01207022 5.92927243 19.03201185 6.01601433 15.99609375 5.29296875 C15.25552734 5.11830078 14.51496094 4.94363281 13.75195312 4.76367188 C12.98818359 4.57353516 12.22441406 4.38339844 11.4375 4.1875 C10.66986328 4.00896484 9.90222656 3.83042969 9.11132812 3.64648438 C5.50140324 2.77468909 3.14857914 2.09905276 0 0 Z " fill="#8A6B53" transform="translate(200,248)"/>
<path d="M0 0 C0.66 0.33 1.32 0.66 2 1 C-1.49205938 4.59476701 -5.04033675 7.92026191 -9 11 C-9.66 11 -10.32 11 -11 11 C-9.63310446 7.84930578 -8.14342115 5.99108226 -5.5 3.8125 C-4.8915625 3.30332031 -4.283125 2.79414063 -3.65625 2.26953125 C-2 1 -2 1 0 0 Z " fill="#141310" transform="translate(178,218)"/>
<path d="M0 0 C0.33 0 0.66 0 1 0 C1.12117187 0.65226563 1.24234375 1.30453125 1.3671875 1.9765625 C2.28943989 6.78646342 3.30167277 11.39025465 5 16 C4.01 16.33 3.02 16.66 2 17 C-1.32241475 11.73950997 -1.59251079 7.05044668 -1 1 C-0.67 0.67 -0.34 0.34 0 0 Z " fill="#0D0D0D" transform="translate(224,141)"/>
<path d="M0 0 C0.99 0 1.98 0 3 0 C3.99 4.29 4.98 8.58 6 13 C5.01 13.33 4.02 13.66 3 14 C-0.44419134 4.58997722 -0.44419134 4.58997722 0 0 Z " fill="#1C1A14" transform="translate(184,261)"/>
<path d="M0 0 C-0.99 1.485 -0.99 1.485 -2 3 C-2.99 3 -3.98 3 -5 3 C-5.33 3.33 -5.66 3.66 -6 4 C-8.01964199 4.07244053 -10.04167124 4.08377188 -12.0625 4.0625 C-13.16722656 4.05347656 -14.27195312 4.04445312 -15.41015625 4.03515625 C-16.69212891 4.01775391 -16.69212891 4.01775391 -18 4 C-18 3.67 -18 3.34 -18 3 C-16.02 3 -14.04 3 -12 3 C-12 2.34 -12 1.68 -12 1 C-11.38125 0.855625 -10.7625 0.71125 -10.125 0.5625 C-6.08797636 -0.50612391 -4.3153141 -0.84430058 0 0 Z " fill="#D7D2BC" transform="translate(291,208)"/>
<path d="M0 0 C5.61 0.66 11.22 1.32 17 2 C16.01 2.495 16.01 2.495 15 3 C15 3.66 15 4.32 15 5 C13.43645794 4.93927992 11.87400262 4.8503009 10.3125 4.75 C9.00732422 4.68039063 9.00732422 4.68039063 7.67578125 4.609375 C5 4 5 4 0 0 Z " fill="#151412" transform="translate(284,204)"/>
<path d="M0 0 C3.23739279 1.6186964 4.42244771 4.84489543 6 8 C5.67 8.99 5.34 9.98 5 11 C4.34 11 3.68 11 3 11 C2.67 10.01 2.34 9.02 2 8 C-0.00016466 6.79117904 -0.00016466 6.79117904 -2 6 C-1.125 1.125 -1.125 1.125 0 0 Z " fill="#E0DCC5" transform="translate(179,236)"/>
<path d="M0 0 C0.66 0.33 1.32 0.66 2 1 C0.33248852 4.94139078 -2.22710649 7.7892812 -5 11 C-5.99 10.67 -6.98 10.34 -8 10 C-6.44303593 6.17836093 -3.96591316 3.81381505 -1 1 C-0.67 0.67 -0.34 0.34 0 0 Z " fill="#222222" transform="translate(295,124)"/>
<path d="M0 0 C0.66 0 1.32 0 2 0 C1.34 3.96 0.68 7.92 0 12 C-1.32 12 -2.64 12 -4 12 C-3.71640113 10.5608866 -3.42278601 9.12374482 -3.125 7.6875 C-2.96257812 6.88699219 -2.80015625 6.08648437 -2.6328125 5.26171875 C-2 3 -2 3 0 0 Z " fill="#262421" transform="translate(347,269)"/>
<path d="M0 0 C0.61328125 2.08203125 0.61328125 2.08203125 1 4 C-0.45922693 3.88590407 -1.91740598 3.75834456 -3.375 3.625 C-4.59316406 3.52058594 -4.59316406 3.52058594 -5.8359375 3.4140625 C-8 3 -8 3 -10 1 C-6.69931399 -2.30068601 -3.87239848 -2.80415062 0 0 Z " fill="#E9E6CE" transform="translate(295,210)"/>
<path d="M0 0 C1.19126781 3.57380342 0.7349445 5.50883302 0.0625 9.1875 C-0.13214844 10.27417969 -0.32679688 11.36085937 -0.52734375 12.48046875 C-0.68332031 13.31191406 -0.83929688 14.14335937 -1 15 C-1.33 15 -1.66 15 -2 15 C-2.33 12.69 -2.66 10.38 -3 8 C-3.33 9.98 -3.66 11.96 -4 14 C-4.33 14 -4.66 14 -5 14 C-5.17655168 9.49793215 -5.17699288 6.01025005 -3 2 C-2.01 1.34 -1.02 0.68 0 0 Z " fill="#484848" transform="translate(227,134)"/>
<path d="M0 0 C1.98 0.66 3.96 1.32 6 2 C6.33 3.65 6.66 5.3 7 7 C6.21625 6.649375 5.4325 6.29875 4.625 5.9375 C3.75875 5.628125 2.8925 5.31875 2 5 C-0.33075929 5.95865509 -0.33075929 5.95865509 -2 9 C-2 6.69 -2 4.38 -2 2 C-1.34 2 -0.68 2 0 2 C0 1.34 0 0.68 0 0 Z " fill="#EFEAD2" transform="translate(132,258)"/>
<path d="M0 0 C2 2 2 2 2 5 C1.01 5 0.02 5 -1 5 C-1.33 6.98 -1.66 8.96 -2 11 C-2.66 11 -3.32 11 -4 11 C-3.67 11.99 -3.34 12.98 -3 14 C-4.32 13.34 -5.64 12.68 -7 12 C-4.69 8.04 -2.38 4.08 0 0 Z " fill="#E1EBC7" transform="translate(266,304)"/>
<path d="M0 0 C0.66 1.32 1.32 2.64 2 4 C-1.07999946 7.67230705 -3.2482602 8.56802365 -8 9 C-5.68462045 5.27885429 -3.71420527 2.38770339 0 0 Z " fill="#E0DDC7" transform="translate(140,238)"/>
<path d="M0 0 C0.66 0.99 1.32 1.98 2 3 C-1.67410785 4.17571451 -5.16929183 4.07366746 -9 4 C-9.33 3.01 -9.66 2.02 -10 1 C-6.61292998 0.22581257 -3.47338282 -0.37550085 0 0 Z " fill="#2C2923" transform="translate(226,213)"/>
<path d="M0 0 C2.09749995 2.35968744 2.96905704 3.54616994 3.1875 6.75 C3.125625 7.4925 3.06375 8.235 3 9 C0.69 8.01 -1.62 7.02 -4 6 C-2.84826645 3.53199953 -1.95216435 1.95216435 0 0 Z " fill="#DEDBC6" transform="translate(326,319)"/>
<path d="M0 0 C0 0.66 0 1.32 0 2 C-1.55966218 2.508783 -3.12289241 3.00663469 -4.6875 3.5 C-5.99267578 3.91765625 -5.99267578 3.91765625 -7.32421875 4.34375 C-9.99391677 4.99850805 -12.26396684 5.11831495 -15 5 C-12.82813579 2.82813579 -11.50023469 2.3206752 -8.625 1.375 C-7.85414063 1.11460937 -7.08328125 0.85421875 -6.2890625 0.5859375 C-4 0 -4 0 0 0 Z " fill="#0D0A07" transform="translate(217,215)"/>
<path d="M0 0 C-0.99 1.485 -0.99 1.485 -2 3 C-4.6015625 3.29296875 -4.6015625 3.29296875 -7.625 3.1875 C-9.12933594 3.14689453 -9.12933594 3.14689453 -10.6640625 3.10546875 C-11.43492187 3.07066406 -12.20578125 3.03585938 -13 3 C-13.33 2.34 -13.66 1.68 -14 1 C-9.23692563 0.04738513 -4.8333472 -0.08333357 0 0 Z " fill="#0D0A08" transform="translate(240,212)"/>
<path d="M0 0 C0.33 0.66 0.66 1.32 1 2 C-1.31 4.97 -3.62 7.94 -6 11 C-6.33 10.34 -6.66 9.68 -7 9 C-7.66 8.67 -8.32 8.34 -9 8 C-6.03 5.36 -3.06 2.72 0 0 Z " fill="#0F0B07" transform="translate(328,314)"/>
<path d="M0 0 C1.32 1.32 2.64 2.64 4 4 C3 5 3 5 0.86694336 5.11352539 C-0.04949951 5.10828857 -0.96594238 5.10305176 -1.91015625 5.09765625 C-2.89951172 5.09443359 -3.88886719 5.09121094 -4.90820312 5.08789062 C-5.94912109 5.07951172 -6.99003906 5.07113281 -8.0625 5.0625 C-9.10728516 5.05798828 -10.15207031 5.05347656 -11.22851562 5.04882812 C-13.8190666 5.03699913 -16.40950559 5.02051689 -19 5 C-19 4.67 -19 4.34 -19 4 C-12.4 4 -5.8 4 1 4 C0.67 2.68 0.34 1.36 0 0 Z " fill="#7DA1BF" transform="translate(256,312)"/>
<path d="M0 0 C-0.66 1.65 -1.32 3.3 -2 5 C-2.99 5 -3.98 5 -5 5 C-5.33 5.99 -5.66 6.98 -6 8 C-8.0625 8.6875 -8.0625 8.6875 -10 9 C-8.5124715 4.98367305 -4.56813239 0 0 0 Z " fill="#DDD9C8" transform="translate(193,225)"/>
<path d="M0 0 C0.66 0 1.32 0 2 0 C5.42857143 7.28571429 5.42857143 7.28571429 5 12 C4.67 11.01 4.34 10.02 4 9 C3.34 9 2.68 9 2 9 C0.4375 6.1875 0.4375 6.1875 -1 3 C-0.67 2.01 -0.34 1.02 0 0 Z " fill="#242321" transform="translate(371,332)"/>
<path d="M0 0 C3.96 0 7.92 0 12 0 C12 0.66 12 1.32 12 2 C8.37 2.33 4.74 2.66 1 3 C0.67 2.01 0.34 1.02 0 0 Z " fill="#18120F" transform="translate(282,255)"/>
<path d="M0 0 C0.66 0.33 1.32 0.66 2 1 C1 4 1 4 -1.3984375 5.38671875 C-2.38070313 5.81597656 -3.36296875 6.24523437 -4.375 6.6875 C-5.35210937 7.12449219 -6.32921875 7.56148437 -7.3359375 8.01171875 C-10 9 -10 9 -13 9 C-13 8.34 -13 7.68 -13 7 C-10.03 6.34 -7.06 5.68 -4 5 C-4 4.34 -4 3.68 -4 3 C-3.01 2.67 -2.02 2.34 -1 2 C-0.67 1.34 -0.34 0.68 0 0 Z " fill="#92755D" transform="translate(326,240)"/>
<path d="M0 0 C0.99 0 1.98 0 3 0 C2.42676569 3.86933162 0.61046448 6.15222057 -2 9 C-2.66 9 -3.32 9 -4 9 C-3.47557578 5.2241456 -2.67345333 2.77627845 0 0 Z " fill="#232323" transform="translate(258,187)"/>
<path d="M0 0 C3.96 0.33 7.92 0.66 12 1 C11.67 1.99 11.34 2.98 11 4 C7.7 3.67 4.4 3.34 1 3 C0.67 2.01 0.34 1.02 0 0 Z " fill="#0D0B09" transform="translate(217,374)"/>
<path d="M0 0 C1.25541557 3.76624671 0.37061958 5.37188934 -1 9 C-5 4.25 -5 4.25 -5 2 C-2 0 -2 0 0 0 Z " fill="#E1DDC6" transform="translate(137,269)"/>
<path d="M0 0 C2.475 0.495 2.475 0.495 5 1 C5 2.66666667 5 4.33333333 5 6 C3.35 6 1.7 6 0 6 C0 4.02 0 2.04 0 0 Z " fill="#D0CCB6" transform="translate(227,207)"/>
<path d="M0 0 C1.12588014 0.95729916 2.2506715 1.91587895 3.375 2.875 C4.00148437 3.40867187 4.62796875 3.94234375 5.2734375 4.4921875 C6.55836651 5.61432007 7.79371975 6.79371975 9 8 C6.625 8.625 6.625 8.625 4 9 C3.34 8.34 2.68 7.68 2 7 C2.66 7 3.32 7 4 7 C4 6.34 4 5.68 4 5 C3.34 5 2.68 5 2 5 C1.34 3.35 0.68 1.7 0 0 Z " fill="#E3E0CB" transform="translate(206,309)"/>
<path d="M0 0 C2.33364352 2.92903058 4.04960836 5.88568203 5.6875 9.25 C6.12449219 10.14203125 6.56148437 11.0340625 7.01171875 11.953125 C7.33785156 12.62859375 7.66398438 13.3040625 8 14 C7.34 14 6.68 14 6 14 C4.4921875 11.953125 4.4921875 11.953125 2.875 9.25 C2.33617187 8.36828125 1.79734375 7.4865625 1.2421875 6.578125 C0 4 0 4 0 0 Z " fill="#FAD8C0" transform="translate(224,299)"/>
<path d="M0 0 C3.08793255 2.0586217 3.47838607 2.8553312 5 6 C5.66 6.33 6.32 6.66 7 7 C7.75 8.9375 7.75 8.9375 8 11 C7.34 11.66 6.68 12.32 6 13 C4.99491199 11.21118264 3.99607264 9.41885304 3 7.625 C2.1646875 6.12839844 2.1646875 6.12839844 1.3125 4.6015625 C0 2 0 2 0 0 Z " fill="#DC7450" transform="translate(262,277)"/>
<path d="M0 0 C2.64 0.33 5.28 0.66 8 1 C7.01 1.33 6.02 1.66 5 2 C5 2.66 5 3.32 5 4 C5.66 4 6.32 4 7 4 C7 4.66 7 5.32 7 6 C7.66 6.33 8.32 6.66 9 7 C6.1875 6.875 6.1875 6.875 3 6 C1.125 2.9375 1.125 2.9375 0 0 Z " fill="#D9D6C3" transform="translate(293,208)"/>
<path d="M0 0 C0.66 0.66 1.32 1.32 2 2 C-1.3 2.66 -4.6 3.32 -8 4 C-8 3.01 -8 2.02 -8 1 C-4.9553071 -0.84856355 -3.35670253 -1.34268101 0 0 Z " fill="#2D2C29" transform="translate(208,209)"/>
<path d="M0 0 C-2.06756277 2.7972908 -3.14440371 3.02692273 -6.6875 3.6875 C-7.780625 3.790625 -8.87375 3.89375 -10 4 C-4.7704918 -1.59016393 -4.7704918 -1.59016393 0 0 Z " fill="#0F0D0A" transform="translate(346,365)"/>
<path d="M0 0 C3 1 3 1 4.203125 2.9609375 C4.54859375 3.75757813 4.8940625 4.55421875 5.25 5.375 C5.60578125 6.16648437 5.9615625 6.95796875 6.328125 7.7734375 C7 10 7 10 6 13 C4.99491199 11.21118264 3.99607264 9.41885304 3 7.625 C2.1646875 6.12839844 2.1646875 6.12839844 1.3125 4.6015625 C0 2 0 2 0 0 Z " fill="#DBE8E4" transform="translate(289,282)"/>
<path d="M0 0 C0 0.66 0 1.32 0 2 C-3.96 3.98 -3.96 3.98 -8 6 C-8.66 4.35 -9.32 2.7 -10 1 C-9.4225 1.20625 -8.845 1.4125 -8.25 1.625 C-4.87447636 2.18758727 -3.25980896 0 0 0 Z " fill="#DDDAC8" transform="translate(193,234)"/>
<path d="M0 0 C2.04119788 1.61594832 4.04072937 3.2856382 6 5 C6 5.66 6 6.32 6 7 C5.01 7.33 4.02 7.66 3 8 C0.9375 5.6875 0.9375 5.6875 -1 3 C-0.67 2.01 -0.34 1.02 0 0 Z " fill="#0D0B06" transform="translate(191,317)"/>
<path d="M0 0 C0 0.66 0 1.32 0 2 C-3.3 2.66 -6.6 3.32 -10 4 C-9.67 3.01 -9.34 2.02 -9 1 C-6.04335481 -0.4783226 -3.25770263 -0.06032783 0 0 Z " fill="#0D0C08" transform="translate(184,313)"/>
<path d="M0 0 C3.375 0.25 3.375 0.25 7 1 C7.66 2.32 8.32 3.64 9 5 C6.03 4.01 3.06 3.02 0 2 C0 1.34 0 0.68 0 0 Z " fill="#1A1612" transform="translate(196,248)"/>
<path d="M0 0 C-0.99 0.33 -1.98 0.66 -3 1 C-2.67 1.66 -2.34 2.32 -2 3 C-4.64 3.66 -7.28 4.32 -10 5 C-10 3.68 -10 2.36 -10 1 C-3.71428571 -1.42857143 -3.71428571 -1.42857143 0 0 Z " fill="#2E2A24" transform="translate(207,218)"/>
<path d="M0 0 C0.66 0 1.32 0 2 0 C2 0.66 2 1.32 2 2 C2.66 2.66 3.32 3.32 4 4 C1.08517222 4.80967438 -0.46113217 5.21845993 -3.3125 4.0625 C-3.869375 3.711875 -4.42625 3.36125 -5 3 C-4.360625 2.690625 -3.72125 2.38125 -3.0625 2.0625 C-1.06389179 1.1654837 -1.06389179 1.1654837 0 0 Z " fill="#EDE9D3" transform="translate(314,213)"/>
<path d="M0 0 C1.32 0 2.64 0 4 0 C4.99 1.98 5.98 3.96 7 6 C6.01 6.33 5.02 6.66 4 7 C0 2.25 0 2.25 0 0 Z " fill="#E2DFCA" transform="translate(187,310)"/>
<path d="M0 0 C0.99 0.33 1.98 0.66 3 1 C2.67 1.66 2.34 2.32 2 3 C2.66 3 3.32 3 4 3 C4 3.99 4 4.98 4 6 C2.35 5.67 0.7 5.34 -1 5 C-1 2 -1 2 0 0 Z " fill="#F0E9CD" transform="translate(332,220)"/>
<path d="M0 0 C0.99 0.33 1.98 0.66 3 1 C3 3.31 3 5.62 3 8 C2.01 8.33 1.02 8.66 0 9 C0 6.03 0 3.06 0 0 Z " fill="#0F0F0F" transform="translate(293,169)"/>
<path d="M0 0 C3.53271727 2.35514485 4.44025604 4.10064011 6 8 C5.6875 10.375 5.6875 10.375 5 12 C4.54625 11.05125 4.0925 10.1025 3.625 9.125 C2.19761746 5.99686321 2.19761746 5.99686321 0 4 C0 2.68 0 1.36 0 0 Z " fill="#6AB1A0" transform="translate(250,300)"/>
<path d="M0 0 C2.97 0.33 5.94 0.66 9 1 C9 1.66 9 2.32 9 3 C2.25 3.125 2.25 3.125 0 2 C0 1.34 0 0.68 0 0 Z " fill="#0C0B09" transform="translate(170,303)"/>
<path d="M0 0 C0.66 0.33 1.32 0.66 2 1 C1.34 3.97 0.68 6.94 0 10 C-0.66 9.67 -1.32 9.34 -2 9 C-1.67 7.35 -1.34 5.7 -1 4 C-1.66 4 -2.32 4 -3 4 C-2.67 3.01 -2.34 2.02 -2 1 C-1.34 0.67 -0.68 0.34 0 0 Z " fill="#DEDDCC" transform="translate(142,253)"/>
<path d="M0 0 C0.33 0.66 0.66 1.32 1 2 C-1.31 2.33 -3.62 2.66 -6 3 C-6.33 2.01 -6.66 1.02 -7 0 C-3.88407501 -1.03864166 -2.9737344 -1.09036928 0 0 Z " fill="#292723" transform="translate(148,234)"/>
<path d="M0 0 C2.31 0.66 4.62 1.32 7 2 C7 2.66 7 3.32 7 4 C5.02 4.66 3.04 5.32 1 6 C1 5.01 1 4.02 1 3 C0.67 2.01 0.34 1.02 0 0 Z " fill="#DBD9C4" transform="translate(311,220)"/>
<path d="M0 0 C2.97 0 5.94 0 9 0 C6 2 6 2 4 2 C4 2.66 4 3.32 4 4 C2.68 4 1.36 4 0 4 C0 2.68 0 1.36 0 0 Z " fill="#E0DDC6" transform="translate(268,206)"/>
<path d="M0 0 C1.32 1.32 2.64 2.64 4 4 C0.25 6 0.25 6 -2 6 C-2 4.35 -2 2.7 -2 1 C-1.34 0.67 -0.68 0.34 0 0 Z " fill="#E3DFC8" transform="translate(144,267)"/>
<path d="M0 0 C-2.36292656 2.52588702 -3.66462511 3.88820837 -7 5 C-7 3.68 -7 2.36 -7 1 C-3.375 -1.125 -3.375 -1.125 0 0 Z " fill="#1D1B19" transform="translate(186,216)"/>
<path d="M0 0 C0 0.99 0 1.98 0 3 C-0.99 3.33 -1.98 3.66 -3 4 C-3.99 2.68 -4.98 1.36 -6 0 C-3.50907189 -1.24546405 -2.58919267 -0.7767578 0 0 Z " fill="#E4E0CA" transform="translate(198,317)"/>
<path d="M0 0 C0.33 0.66 0.66 1.32 1 2 C0.67 2.99 0.34 3.98 0 5 C1.32 5 2.64 5 4 5 C4 5.66 4 6.32 4 7 C2.02 7 0.04 7 -2 7 C-1.125 1.125 -1.125 1.125 0 0 Z " fill="#EFCD56" transform="translate(250,288)"/>
<path d="M0 0 C-0.66 0 -1.32 0 -2 0 C-2 0.66 -2 1.32 -2 2 C-4.64 2.33 -7.28 2.66 -10 3 C-6.86618053 -0.60389239 -4.59270471 -1.53090157 0 0 Z " fill="#080402" transform="translate(313,251)"/>
<path d="M0 0 C0 0.99 0 1.98 0 3 C-1.98 3.66 -3.96 4.32 -6 5 C-6.33 4.01 -6.66 3.02 -7 2 C-2.25 0 -2.25 0 0 0 Z " fill="#191311" transform="translate(202,232)"/>
<path d="M0 0 C-0.33 1.32 -0.66 2.64 -1 4 C-2.32 4.33 -3.64 4.66 -5 5 C-5 4.34 -5 3.68 -5 3 C-5.66 2.67 -6.32 2.34 -7 2 C-2.25 0 -2.25 0 0 0 Z " fill="#312E2B" transform="translate(175,314)"/>
<path d="M0 0 C0.66 0.33 1.32 0.66 2 1 C-0.3125 3.5 -0.3125 3.5 -3 6 C-3.99 6 -4.98 6 -6 6 C-2.25 1.125 -2.25 1.125 0 0 Z " fill="#0E0D0A" transform="translate(178,218)"/>
<path d="M0 0 C1.65 0 3.3 0 5 0 C5 1.65 5 3.3 5 5 C3.35 5 1.7 5 0 5 C0.66 4.67 1.32 4.34 2 4 C1.34 2.68 0.68 1.36 0 0 Z " fill="#EEEAD5" transform="translate(231,207)"/>
<path d="M0 0 C1.98 0 3.96 0 6 0 C6 1.32 6 2.64 6 4 C5.01 4.495 5.01 4.495 4 5 C3.34 4.67 2.68 4.34 2 4 C2 3.34 2 2.68 2 2 C1.34 2 0.68 2 0 2 C0 1.34 0 0.68 0 0 Z " fill="#EDEACF" transform="translate(298,210)"/>
<path d="M0 0 C0.66 0 1.32 0 2 0 C1.67 2.64 1.34 5.28 1 8 C0.01 7.67 -0.98 7.34 -2 7 C-1.34 4.69 -0.68 2.38 0 0 Z " fill="#13110E" transform="translate(373,341)"/>
<path d="M0 0 C0.99 0 1.98 0 3 0 C3.33 0.99 3.66 1.98 4 3 C2.68 4.32 1.36 5.64 0 7 C-0.93423645 3.98968256 -1.04449911 3.13349732 0 0 Z " fill="#E3E0C7" transform="translate(329,303)"/>
<path d="M0 0 C1.32 0.33 2.64 0.66 4 1 C1.375 4.875 1.375 4.875 -2 6 C-1.34 4.02 -0.68 2.04 0 0 Z " fill="#262521" transform="translate(336,298)"/>
<path d="M0 0 C1.32 0 2.64 0 4 0 C4 1.98 4 3.96 4 6 C3.01 6.495 3.01 6.495 2 7 C1.34 4.69 0.68 2.38 0 0 Z " fill="#EF675C" transform="translate(226,297)"/>
<path d="M0 0 C1.98 0 3.96 0 6 0 C5.67 0.99 5.34 1.98 5 3 C2.9375 3.6875 2.9375 3.6875 1 4 C0.67 2.68 0.34 1.36 0 0 Z " fill="#EEEAD0" transform="translate(217,209)"/>
<path d="M0 0 C-0.99 0.66 -1.98 1.32 -3 2 C-4.32 1.34 -5.64 0.68 -7 0 C-3.86650268 -1.04449911 -3.01031744 -0.93423645 0 0 Z M-5 2 C-4.34 2 -3.68 2 -3 2 C-3 2.66 -3 3.32 -3 4 C-3.66 4 -4.32 4 -5 4 C-5 3.34 -5 2.68 -5 2 Z " fill="#E0DBC5" transform="translate(322,353)"/>
<path d="M0 0 C0.33 0.66 0.66 1.32 1 2 C2.65 1.67 4.3 1.34 6 1 C6 1.66 6 2.32 6 3 C5.01 3 4.02 3 3 3 C2.67 3.66 2.34 4.32 2 5 C0.68 4.01 -0.64 3.02 -2 2 C-1.34 1.34 -0.68 0.68 0 0 Z " fill="#EFEBD1" transform="translate(185,232)"/>
<path d="M0 0 C0.66 0.33 1.32 0.66 2 1 C0.515 3.475 0.515 3.475 -1 6 C-1.99 4.68 -2.98 3.36 -4 2 C-2.125 0.9375 -2.125 0.9375 0 0 Z " fill="#EEEBD1" transform="translate(216,218)"/>
<path d="M0 0 C-4.75 3 -4.75 3 -7 3 C-7 2.01 -7 1.02 -7 0 C-3.86650268 -1.04449911 -3.01031744 -0.93423645 0 0 Z " fill="#060607" transform="translate(202,211)"/>
<path d="M0 0 C0.66 0.33 1.32 0.66 2 1 C1.67 2.65 1.34 4.3 1 6 C-0.32 6.33 -1.64 6.66 -3 7 C-1.125 2.25 -1.125 2.25 0 0 Z " fill="#222222" transform="translate(230,183)"/>
</svg>
