<?xml version="1.0" encoding="UTF-8"?>
<svg version="1.1" xmlns="http://www.w3.org/2000/svg" width="500" height="500">
<path d="M0 0 C2.02562459 2.13873053 2.19308058 3.73013859 2.5390625 6.625 C2.64347656 7.36363281 2.74789062 8.10226563 2.85546875 8.86328125 C3.08333333 10.78385417 3.31119792 12.70442708 3.5390625 14.625 C4.2196875 14.79 4.9003125 14.955 5.6015625 15.125 C11.01310847 17.88834262 14.55644385 22.45505049 17.0390625 27.9375 C18.0571297 35.44574558 17.52029513 43.98006496 13.5390625 50.625 C12.40525981 51.74268228 11.23566047 52.82482119 10.0390625 53.875 C5.27279389 58.36089987 4.61186929 63.34908027 3.5390625 69.625 C3.39984375 70.37523437 3.260625 71.12546875 3.1171875 71.8984375 C2.65591519 74.3877174 2.21797486 76.87995001 1.7890625 79.375 C1.64887695 80.16680664 1.50869141 80.95861328 1.36425781 81.77441406 C1.24147461 82.54495117 1.11869141 83.31548828 0.9921875 84.109375 C0.88036133 84.78709961 0.76853516 85.46482422 0.65332031 86.16308594 C0.45050059 88.84717108 0.45050059 88.84717108 1.08496094 92.36108398 C1.70347559 96.88746278 1.14554275 100.89136822 0.3515625 105.36328125 C0.21373352 106.18944946 0.07590454 107.01561768 -0.06610107 107.86682129 C-0.51922525 110.55921096 -0.98953788 113.24825502 -1.4609375 115.9375 C-1.78202083 117.81787649 -2.10265338 119.69833 -2.42285156 121.57885742 C-4.73473295 135.02673132 -7.34179534 148.40606068 -10.10644531 161.76733398 C-11.93133547 170.63562941 -13.49304807 179.4977736 -14.48730469 188.50317383 C-15.02577683 193.02235477 -16.1397603 195.78428928 -18.4609375 199.625 C-19.18835 202.51000463 -19.56766253 205.42826598 -19.9609375 208.375 C-20.21135215 210.07044381 -20.46267431 211.7657538 -20.71484375 213.4609375 C-20.96375272 215.18226116 -21.21245306 216.903615 -21.4609375 218.625 C-21.9163772 221.75421152 -22.39712815 224.87783432 -22.8984375 228 C-23.04539062 229.04172363 -23.04539062 229.04172363 -23.1953125 230.10449219 C-23.95272492 234.73337713 -25.53260748 237.0663054 -28.4609375 240.625 C-29.42830682 243.75215514 -29.42830682 243.75215514 -29.9609375 247.0625 C-31.36203657 253.63802842 -33.07513589 258.10125935 -38.5859375 262.1875 C-42.91058646 264.69937318 -47.55320082 266.01954663 -52.3359375 267.375 C-53.07859863 267.58584229 -53.82125977 267.79668457 -54.58642578 268.01391602 C-78.12937596 274.26759228 -113.37024604 274.22776427 -135.0703125 262.17578125 C-139.25110105 259.26906512 -141.79335038 256.53511765 -143.4609375 251.625 C-143.95500876 248.85656765 -144.39383447 246.09980039 -144.73828125 243.30859375 C-145.29961711 240.48396261 -145.29961711 240.48396261 -147.43359375 238.2421875 C-150.00377033 234.92423315 -150.33870266 232.45118043 -150.9609375 228.3125 C-151.07566406 227.59046387 -151.19039062 226.86842773 -151.30859375 226.12451172 C-151.56347821 224.5177335 -151.81182627 222.90990895 -152.0546875 221.30126953 C-152.65788378 217.32756907 -153.29857389 213.36030402 -153.94726562 209.39379883 C-154.28091678 207.35177128 -154.60811337 205.30867483 -154.92773438 203.2644043 C-155.69442817 198.51988995 -156.60128204 193.92273606 -157.92578125 189.30078125 C-159.61479061 183.3454124 -160.66112861 177.33456054 -161.68109131 171.23345947 C-163.63794947 159.53871132 -165.77539604 147.88632933 -168.07421875 136.25390625 C-168.30123978 135.09957596 -168.5282608 133.94524567 -168.76216125 132.75593567 C-169.67684952 128.10768983 -170.59169411 123.45962878 -171.52932739 118.81594849 C-172.19095444 115.53804515 -172.83866656 112.25763317 -173.484375 108.9765625 C-173.68408401 108.00888443 -173.88379303 107.04120636 -174.08955383 106.04420471 C-175.25270879 100.05910848 -175.58508399 94.43084124 -175.47888184 88.33764648 C-175.44077623 82.5772198 -176.5504677 76.97148635 -177.5234375 71.3125 C-177.70326172 70.08982422 -177.88308594 68.86714844 -178.06835938 67.60742188 C-179.22255457 60.86179219 -180.34409595 56.45945932 -185.79492188 52.09008789 C-189.65955716 48.69154212 -191.1432319 43.8915183 -191.83984375 38.921875 C-192.11910738 32.47178605 -191.12720833 27.01300023 -187.4609375 21.625 C-184.47706301 18.4878039 -181.35420412 15.57163331 -177.4609375 13.625 C-176.9265691 10.43249133 -176.62932725 7.24077686 -176.31640625 4.01953125 C-174.88774049 -1.64946666 -171.86616839 -4.40826887 -167.21875 -7.60546875 C-166.01889181 -8.27797326 -164.80722159 -8.92973845 -163.5859375 -9.5625 C-162.9266626 -9.90490723 -162.2673877 -10.24731445 -161.58813477 -10.60009766 C-154.78795624 -13.95611393 -147.96777439 -15.46420008 -140.4609375 -16.375 C-139.30440674 -16.52509521 -139.30440674 -16.52509521 -138.12451172 -16.67822266 C-97.88062364 -21.70969911 -35.37494276 -23.31831433 0 0 Z " fill="#D5AC96" transform="translate(337.4609375,126.375)"/>
<path d="M0 0 C2.02562459 2.13873053 2.19308058 3.73013859 2.5390625 6.625 C2.64347656 7.36363281 2.74789062 8.10226563 2.85546875 8.86328125 C3.08333333 10.78385417 3.31119792 12.70442708 3.5390625 14.625 C4.2196875 14.79 4.9003125 14.955 5.6015625 15.125 C11.01310847 17.88834262 14.55644385 22.45505049 17.0390625 27.9375 C18.0571297 35.44574558 17.52029513 43.98006496 13.5390625 50.625 C12.40525981 51.74268228 11.23566047 52.82482119 10.0390625 53.875 C4.00951273 59.6011762 3.78575723 67.66826151 2.7578125 75.52734375 C2.60787842 76.58896729 2.45794434 77.65059082 2.3034668 78.74438477 C2.0066767 80.8825241 1.74146044 83.02533035 1.51098633 85.17163086 C0.7878426 90.39042288 0.13057072 93.8020297 -4.1171875 97.16015625 C-7.98458826 99.56425154 -11.93791496 101.32173659 -16.2734375 102.6875 C-17.01827393 102.93008545 -17.76311035 103.1726709 -18.53051758 103.42260742 C-53.98653342 114.31822298 -95.80538241 116.01329071 -132.4609375 110.625 C-133.45867187 110.50382813 -134.45640625 110.38265625 -135.484375 110.2578125 C-145.04274667 108.88432214 -154.95070746 105.1521812 -163.4609375 100.625 C-163.4609375 99.965 -163.4609375 99.305 -163.4609375 98.625 C-164.7809375 98.295 -166.1009375 97.965 -167.4609375 97.625 C-167.4609375 96.965 -167.4609375 96.305 -167.4609375 95.625 C-168.2240625 95.33625 -168.9871875 95.0475 -169.7734375 94.75 C-172.4609375 93.625 -172.4609375 93.625 -175.4609375 91.625 C-175.83203125 89.32421875 -175.83203125 89.32421875 -175.8984375 86.3125 C-176.2692112 80.05132149 -177.04095814 73.93508971 -178.0859375 67.75 C-178.27820923 66.41328247 -178.27820923 66.41328247 -178.47436523 65.04956055 C-179.51514651 59.19715474 -181.22503579 56.07562468 -185.77514648 52.21533203 C-190.30854516 47.93863993 -191.69921229 42.17000811 -191.9609375 36.125 C-191.66825915 29.57632193 -190.05358484 24.35086637 -185.484375 19.546875 C-182.93977735 17.27061673 -180.52331536 15.15618893 -177.4609375 13.625 C-176.9265691 10.43249133 -176.62932725 7.24077686 -176.31640625 4.01953125 C-174.88774049 -1.64946666 -171.86616839 -4.40826887 -167.21875 -7.60546875 C-166.01889181 -8.27797326 -164.80722159 -8.92973845 -163.5859375 -9.5625 C-162.9266626 -9.90490723 -162.2673877 -10.24731445 -161.58813477 -10.60009766 C-154.78795624 -13.95611393 -147.96777439 -15.46420008 -140.4609375 -16.375 C-139.30440674 -16.52509521 -139.30440674 -16.52509521 -138.12451172 -16.67822266 C-97.88062364 -21.70969911 -35.37494276 -23.31831433 0 0 Z " fill="#EFB1A3" transform="translate(337.4609375,126.375)"/>
<path d="M0 0 C1.875 2.375 1.875 2.375 3 5 C2.67 5.66 2.34 6.32 2 7 C0.35 5.35 -1.3 3.7 -3 2 C-2.360625 2.928125 -1.72125 3.85625 -1.0625 4.8125 C2.19439207 9.84587865 2.09493579 13.20891704 2 19 C2.99 19 3.98 19 5 19 C3.94060957 22.60192745 2.94924807 24.04427296 0.0625 26.5625 C-5.58426134 32.07253588 -5.81078601 40.44897598 -6.78515625 47.90625 C-6.93452637 48.96730957 -7.08389648 50.02836914 -7.23779297 51.12158203 C-7.53323862 53.25899178 -7.79760052 55.40097254 -8.02783203 57.54638672 C-8.7513416 62.76521296 -9.40838647 66.17694645 -13.65625 69.53515625 C-17.52365076 71.93925154 -21.47697746 73.69673659 -25.8125 75.0625 C-26.55733643 75.30508545 -27.30217285 75.5476709 -28.06958008 75.79760742 C-63.52559592 86.69322298 -105.34444491 88.38829071 -142 83 C-143.49660156 82.81824219 -143.49660156 82.81824219 -145.0234375 82.6328125 C-154.58180917 81.25932214 -164.48976996 77.5271812 -173 73 C-173 72.34 -173 71.68 -173 71 C-174.32 70.67 -175.64 70.34 -177 70 C-177 69.34 -177 68.68 -177 68 C-177.763125 67.71125 -178.52625 67.4225 -179.3125 67.125 C-182 66 -182 66 -185 64 C-185.37109375 61.69921875 -185.37109375 61.69921875 -185.4375 58.6875 C-185.79180928 52.35953628 -186.67870779 46.23504844 -187.8125 40 C-187.96581787 39.09209717 -188.11913574 38.18419434 -188.27709961 37.2487793 C-189.23158303 32.163091 -190.23098358 28.79272092 -194 25 C-193.01 25 -192.02 25 -191 25 C-190.84144531 24.21496094 -190.68289062 23.42992187 -190.51953125 22.62109375 C-189.03266941 15.9261081 -187.42435172 11.26139123 -183 6 C-183 9 -183 9 -184.4375 11.0625 C-186.61839379 15.16258033 -187.16494859 19.36573014 -187 24 C-186.34 24.99 -185.68 25.98 -185 27 C-184.505 22.545 -184.505 22.545 -184 18 C-183.34 18 -182.68 18 -182 18 C-181.96261719 18.66386719 -181.92523438 19.32773438 -181.88671875 20.01171875 C-181.5014552 25.18633702 -181.001487 28.63420073 -178 33 C-178.33 33.66 -178.66 34.32 -179 35 C-177.4221875 35.1546875 -177.4221875 35.1546875 -175.8125 35.3125 C-172.17834425 35.75924452 -168.7092767 36.52647445 -165.15625 37.40625 C-157.71894016 39.1356755 -150.26626271 40.28888996 -142.6875 41.1875 C-141.96298645 41.2743808 -141.2384729 41.3612616 -140.49200439 41.45077515 C-126.29720862 43.09383086 -112.15385437 43.3529375 -97.875 43.3125 C-96.86037689 43.30995209 -95.84575378 43.30740417 -94.80038452 43.30477905 C-50.13946433 44.41568012 -50.13946433 44.41568012 -9 31 C-8.01 31 -7.02 31 -6 31 C-5.67 30.01 -5.34 29.02 -5 28 C-4.34 28 -3.68 28 -3 28 C-2.67 26.68 -2.34 25.36 -2 24 C-1.34 24 -0.68 24 0 24 C0 23.34 0 22.68 0 22 C-0.66 22 -1.32 22 -2 22 C-2 21.34 -2 20.68 -2 20 C-1.34 20 -0.68 20 0 20 C-0.15508293 11.11686401 -0.15508293 11.11686401 -5 4 C-5.5775 3.401875 -6.155 2.80375 -6.75 2.1875 C-7.36875 1.5996875 -7.36875 1.5996875 -8 1 C-4.95729435 -0.01423522 -3.15860793 -0.47379119 0 0 Z " fill="#FAD1CA" transform="translate(347,154)"/>
<path d="M0 0 C1.98 0.66 3.96 1.32 6 2 C6 2.66 6 3.32 6 4 C6.56847656 4.18175781 7.13695312 4.36351562 7.72265625 4.55078125 C8.49480469 4.80214844 9.26695312 5.05351562 10.0625 5.3125 C10.81660156 5.55613281 11.57070312 5.79976563 12.34765625 6.05078125 C14.38332292 6.77930408 16.38356562 7.60741905 18.36328125 8.4765625 C21.92685054 9.96935737 25.39435712 11.06739331 29.125 12.0625 C30.30320313 12.38347656 31.48140625 12.70445312 32.6953125 13.03515625 C44.20173022 15.74279457 55.42545204 16.34537256 67.19165039 16.31567383 C69.79811639 16.31251742 72.40343918 16.33604781 75.00976562 16.36132812 C85.73318761 16.40079773 95.52724984 15.30447456 106 13 C107.99785921 12.6540669 109.99723346 12.31628672 112 12 C111.505 8.535 111.505 8.535 111 5 C115.40184049 2.86196319 115.40184049 2.86196319 118.4375 3.5625 C122.01143947 4.17268479 123.87635296 2.66594509 127 1 C127.99 1.495 127.99 1.495 129 2 C124.71 4.31 120.42 6.62 116 9 C118.7283768 9 121.31654063 8.46668859 124 8 C124 7.34 124 6.68 124 6 C125.20268681 5.34371151 126.41252554 4.70052495 127.625 4.0625 C128.29789063 3.70285156 128.97078125 3.34320313 129.6640625 2.97265625 C132.41827908 1.82583363 135.05258551 1.4011524 138 1 C137.81824219 1.59941406 137.63648438 2.19882812 137.44921875 2.81640625 C135.15285414 11.09509506 134.0852715 19.36758185 133.1784668 27.90063477 C132.45642161 34.16520626 131.64017745 39.35982255 127 44 C126.47994517 46.06878955 126.0313866 48.15591377 125.625 50.25 C124.14530006 56.86855936 122.43569463 61.43926385 116.875 65.5625 C112.55035104 68.07437318 107.90773668 69.39454663 103.125 70.75 C102.0110083 71.06626343 102.0110083 71.06626343 100.87451172 71.38891602 C77.33156154 77.64259228 42.09069146 77.60276427 20.390625 65.55078125 C16.20983645 62.64406512 13.66758712 59.91011765 12 55 C11.50592874 52.23156765 11.06710303 49.47480039 10.72265625 46.68359375 C10.16191726 43.86014288 10.16191726 43.86014288 8.03125 41.625 C5.53757664 38.40240674 4.99966329 35.48837405 4.4375 31.5625 C4.32237061 30.84328369 4.20724121 30.12406738 4.08862305 29.38305664 C3.70378146 26.92479345 3.34855448 24.46366722 3 22 C2.86174805 21.02901367 2.72349609 20.05802734 2.58105469 19.05761719 C1.68518494 12.70968232 0.82757788 6.35718187 0 0 Z " fill="#F5CDC7" transform="translate(182,323)"/>
<path d="M0 0 C0.66 0 1.32 0 2 0 C2.5775 0.598125 3.155 1.19625 3.75 1.8125 C6.28586216 4.27792155 8.7974694 5.54430427 12 7 C11.01 8.485 11.01 8.485 10 10 C7.5 8.625 7.5 8.625 5 7 C5 6.34 5 5.68 5 5 C2.5409608 7.35212446 1.07233057 8.75974349 0.8671875 12.27734375 C0.86976563 13.15519531 0.87234375 14.03304687 0.875 14.9375 C0.87242187 15.81277344 0.86984375 16.68804687 0.8671875 17.58984375 C0.90177997 20.14459056 0.90177997 20.14459056 2 23 C4.31326208 24.12996426 4.31326208 24.12996426 7 25 C7.75539062 25.33 8.51078125 25.66 9.2890625 26 C19.11944249 30.20832321 29.17440893 31.22023096 39.71875 32.30322266 C40.45867187 32.37976074 41.19859375 32.45629883 41.9609375 32.53515625 C42.61884277 32.600979 43.27674805 32.66680176 43.95458984 32.73461914 C46 33 46 33 48.22949219 33.48193359 C51.92176314 34.17236353 55.62717274 34.46096419 59.3671875 34.75390625 C60.18557098 34.81953262 61.00395447 34.885159 61.84713745 34.95277405 C71.8909516 35.742727 81.9422937 36.41439742 92 37 C92.74745483 37.0437677 93.49490967 37.0875354 94.26501465 37.13262939 C110.77148065 38.05849897 126.24487072 36.90709084 142.4375 33.875 C143.20292114 33.73346497 143.96834229 33.59192993 144.75695801 33.44610596 C153.08434755 31.86866598 161.0802288 29.82855136 169.03515625 26.8828125 C170.06581459 26.50151688 170.06581459 26.50151688 171.11729431 26.11251831 C174.74158519 24.87971979 174.74158519 24.87971979 177 22 C176.525625 22.45375 176.05125 22.9075 175.5625 23.375 C169.80980465 27.02305071 163.68287725 27 157 27 C156.67 22.05 156.34 17.1 156 12 C157.8871875 11.690625 157.8871875 11.690625 159.8125 11.375 C166.91648132 9.82135591 173.00464145 5.9969057 179 2 C179.33 4.64 179.66 7.28 180 10 C180.680625 10.165 181.36125 10.33 182.0625 10.5 C187.47404597 13.26334262 191.01738135 17.83005049 193.5 23.3125 C194.35409596 29.61145769 193.6782984 35.87492807 192 42 C190.68 42 189.36 42 188 42 C187.89042969 41.25234375 187.78085937 40.5046875 187.66796875 39.734375 C187.50941406 38.74953125 187.35085938 37.7646875 187.1875 36.75 C187.03667969 35.77546875 186.88585937 34.8009375 186.73046875 33.796875 C185.96331725 30.85954628 184.88241663 29.33110223 183 27 C183 26.34 183 25.68 183 25 C186 26 186 26 187 27 C186.67 26.01 186.34 25.02 186 24 C183.69 24.33 181.38 24.66 179 25 C179.969375 25.680625 180.93875 26.36125 181.9375 27.0625 C184.59389721 29.27512262 184.97165593 29.88864828 185.875 33.4375 C185.987072 36.63155198 186.07793225 39.80477779 186 43 C185.34 43 184.68 43 184 43 C184 43.66 184 44.32 184 45 C184.66 45 185.32 45 186 45 C186 45.66 186 46.32 186 47 C185.01 47.495 185.01 47.495 184 48 C183.67 48.99 183.34 49.98 183 51 C173.02721716 62.93172233 145.44675226 64.23897584 131.16357422 65.71801758 C90.12178834 69.37624128 46.88468879 69.30297801 7 58 C6.87625 57.401875 6.7525 56.80375 6.625 56.1875 C6.04524015 53.73768652 6.04524015 53.73768652 4 51 C2.76404494 44.70786517 2.76404494 44.70786517 4 41 C3.34 41 2.68 41 2 41 C2.02320313 41.62648437 2.04640625 42.25296875 2.0703125 42.8984375 C2.09738281 44.12433594 2.09738281 44.12433594 2.125 45.375 C2.14820313 46.18710938 2.17140625 46.99921875 2.1953125 47.8359375 C2 50 2 50 0 52 C-2.76807549 47.1151609 -2.17615366 42.29680387 -1 37 C0.12894641 34.42216286 1.4178393 32.34772232 3 30 C-0.87972097 34.81620535 -2.02998809 39.46694302 -3.2890625 45.48828125 C-3.52367187 46.31714844 -3.75828125 47.14601562 -4 48 C-4.99 48.495 -4.99 48.495 -6 49 C-9.84657258 47.58284168 -11.52562891 45.54830629 -13.3125 42 C-16.04977304 35.11771349 -16.14174002 28.18456756 -13.5 21.25 C-10.84259622 15.93519244 -6.31530725 11.65765362 -1 9 C-0.53348793 6.87423218 -0.53348793 6.87423218 -0.375 4.4375 C-0.30023438 3.61121094 -0.22546875 2.78492188 -0.1484375 1.93359375 C-0.09945312 1.29550781 -0.05046875 0.65742188 0 0 Z " fill="#F6B3A3" transform="translate(161,131)"/>
<path d="M0 0 C0.763125 0.7425 1.52625 1.485 2.3125 2.25 C31.44112282 26.47633305 94.79262215 17.91983647 130 15 C131.03205566 14.91991699 132.06411133 14.83983398 133.12744141 14.75732422 C157.037723 13.57969546 157.037723 13.57969546 177 2 C176.62491626 4.45367279 176.34226656 5.69178547 174.46875 7.37890625 C169.47987592 10.37816983 164.57984947 12.3711682 159 14 C158.01 14.33 157.02 14.66 156 15 C156 19.62 156 24.24 156 29 C158.46366508 28.50060843 160.92729002 28.00101728 163.390625 27.5 C165.37366859 27.1200156 167.37263254 26.82206615 169.375 26.5625 C172.42846333 25.90818643 173.75904884 25.16656274 176 23 C176.69749589 20.27510527 176.69749589 20.27510527 176.75 17.3125 C176.80671875 16.31863281 176.8634375 15.32476562 176.921875 14.30078125 C176.94765625 13.54152344 176.9734375 12.78226563 177 12 C177.33 12 177.66 12 178 12 C178.13547465 13.91470844 178.23220869 15.83218481 178.3125 17.75 C178.39951172 19.35101563 178.39951172 19.35101563 178.48828125 20.984375 C178 24 178 24 175.85839844 26.03149414 C166.14423794 32.7213879 152.9872026 34.66022232 141.5625 36.8125 C140.75776245 36.96475037 139.9530249 37.11700073 139.12390137 37.27386475 C122.95006108 40.26885846 107.45211897 40.94935878 91 40 C90.17622864 39.95343262 89.35245728 39.90686523 88.50372314 39.85888672 C53.64211242 37.85357639 53.64211242 37.85357639 38 35 C35.46153951 34.63100936 32.92095055 34.3161269 30.375 34 C27.91623971 33.66983076 25.45786514 33.33676826 23 33 C22.09121094 32.88140625 21.18242187 32.7628125 20.24609375 32.640625 C13.252325 31.51802969 7.0080371 28.73601041 1 25 C-1.83126928 20.75309608 -1.53195697 16.98610411 -1 12 C0.375 8.875 0.375 8.875 2 7 C2.66 7 3.32 7 4 7 C4.474375 7.495 4.94875 7.99 5.4375 8.5 C6.99969942 10.34626591 6.99969942 10.34626591 10 10 C9.36191406 9.61328125 8.72382813 9.2265625 8.06640625 8.828125 C7.24011719 8.30734375 6.41382813 7.7865625 5.5625 7.25 C4.73878906 6.73953125 3.91507813 6.2290625 3.06640625 5.703125 C0.78255407 3.8207818 0.34485543 2.8842454 0 0 Z " fill="#E8A898" transform="translate(162,129)"/>
<path d="M0 0 C1.3597873 -0.00323144 2.7195743 -0.00659674 4.07936096 -0.01008606 C6.91220908 -0.01601807 9.74502699 -0.01793235 12.57788086 -0.01733398 C15.42918292 -0.01725312 18.28032295 -0.02414206 21.1315918 -0.0378418 C34.88965555 -0.10274634 48.62811994 -0.13192887 62.3515625 0.9921875 C63.68349892 1.09621635 63.68349892 1.09621635 65.04234314 1.2023468 C72.72622049 1.93480731 80.34304279 3.18203692 86.44140625 8.16796875 C86.11140625 9.81796875 85.78140625 11.46796875 85.44140625 13.16796875 C54.22472463 20.8694527 15.14468915 21.30965927 -16.55859375 16.16796875 C-17.29110352 16.05018066 -18.02361328 15.93239258 -18.77832031 15.81103516 C-25.52150289 14.69495236 -32.09923508 13.46287106 -38.55859375 11.16796875 C-38.87109375 8.91796875 -38.87109375 8.91796875 -38.55859375 6.16796875 C-29.87945967 -2.75914059 -11.494826 0.01018845 0 0 Z " fill="#F5B3A3" transform="translate(226.55859375,120.83203125)"/>
<path d="M0 0 C2.53466435 0.06802147 5.0685546 0.08727387 7.60400391 0.11230469 C20.68059833 0.33604078 33.51666258 1.53003219 46.45947266 3.30761719 C47.19637329 3.40408539 47.93327393 3.50055359 48.69250488 3.59994507 C72.96682748 6.82520234 72.96682748 6.82520234 80.14697266 14.05761719 C80.39697266 16.74511719 80.39697266 16.74511719 80.14697266 19.05761719 C73.17906139 23.69060228 66.69235209 25.29889014 58.45947266 26.37011719 C57.26225586 26.53543945 56.06503906 26.70076172 54.83154297 26.87109375 C40.95796806 28.60484192 27.10078444 28.44112576 13.14697266 28.05761719 C13.14697266 27.72761719 13.14697266 27.39761719 13.14697266 27.05761719 C14.36578125 26.98244873 15.58458984 26.90728027 16.84033203 26.82983398 C21.44077385 26.54343707 26.04028562 26.24386659 30.63964844 25.94067383 C32.61566133 25.81218005 34.59189812 25.68707605 36.56835938 25.56567383 C48.64250972 24.82137689 60.31883484 23.66394352 72.14697266 21.05761719 C71.85342789 18.60933107 71.85342789 18.60933107 71.14697266 16.05761719 C58.12298282 7.8797631 35.96868431 9.90163066 21.27197266 9.92480469 C19.89062483 9.92412793 18.50927712 9.92315484 17.12792969 9.92190552 C14.25731249 9.92044599 11.38672677 9.92252608 8.51611328 9.92724609 C4.87909435 9.93294229 1.24214929 9.9296538 -2.39486694 9.92367363 C-5.23999566 9.92002035 -8.08510753 9.92122821 -10.93023682 9.92380142 C-12.9095464 9.92477114 -14.8888567 9.92179166 -16.86816406 9.91867065 C-34.95775387 8.78396596 -34.95775387 8.78396596 -50.85302734 15.05761719 C-51.50070527 17.6282303 -51.50070527 17.6282303 -51.85302734 20.05761719 C-50.68900391 20.24517578 -50.68900391 20.24517578 -49.50146484 20.43652344 C-46.70582379 20.91244092 -43.9263842 21.42468829 -41.14208984 21.95996094 C-27.4640864 24.49850046 -13.97956316 25.76683871 -0.10351562 26.3737793 C0.90816933 26.4226403 0.90816933 26.4226403 1.94029236 26.4724884 C3.7854123 26.56030595 5.63110861 26.63576125 7.47680664 26.71044922 C8.35796143 26.82501465 9.23911621 26.93958008 10.14697266 27.05761719 C10.64197266 28.04761719 10.64197266 28.04761719 11.14697266 29.05761719 C-7.50553018 28.57729523 -25.20812134 27.59229995 -43.47802734 23.68261719 C-44.42790527 23.48571289 -45.3777832 23.28880859 -46.35644531 23.0859375 C-51.45027387 21.93692614 -55.03071423 20.8476745 -58.85302734 17.05761719 C-58.59100006 13.91328972 -58.15956667 12.38459247 -55.97802734 10.05761719 C-39.54481664 -0.45963766 -19.00481504 -0.59466208 0 0 Z " fill="#F2B3A4" transform="translate(239.85302734375,111.9423828125)"/>
<path d="M0 0 C0 0.66 0 1.32 0 2 C-0.99 2 -1.98 2 -3 2 C-2.01 2.99 -2.01 2.99 -1 4 C-0.875 6.625 -0.875 6.625 -1 9 C-2.41042956 9.84384675 -3.82864132 10.67469496 -5.25 11.5 C-6.03890625 11.9640625 -6.8278125 12.428125 -7.640625 12.90625 C-10 14 -10 14 -14 14 C-14 13.01 -14 12.02 -14 11 C-14.66 11 -15.32 11 -16 11 C-15.67 8.03 -15.34 5.06 -15 2 C-16.155 1.401875 -17.31 0.80375 -18.5 0.1875 C-19.47453125 -0.31716797 -19.47453125 -0.31716797 -20.46875 -0.83203125 C-29.25211553 -4.88484961 -37.87439637 -6.30928526 -47.375 -7.625 C-48.14678589 -7.73427826 -48.91857178 -7.84355652 -49.71374512 -7.95614624 C-62.93556963 -9.811784 -76.05128016 -10.84173498 -89.41162109 -10.97363281 C-91.62652386 -10.99619549 -93.83698446 -11.04791763 -96.05078125 -11.1171875 C-114.58311641 -11.48824649 -135.70647041 -11.89496746 -151 0 C-152.20561184 0.98267859 -152.20561184 0.98267859 -152.09765625 2.84765625 C-152.08605469 3.57855469 -152.07445312 4.30945313 -152.0625 5.0625 C-152.041875 6.361875 -152.02125 7.66125 -152 9 C-152.99 8.67 -153.98 8.34 -155 8 C-155 8.99 -155 9.98 -155 11 C-162.28358209 9.44776119 -162.28358209 9.44776119 -165 7.75 C-166.4764897 5.16614302 -166.1940473 2.91070951 -166 0 C-166.99 -0.33 -167.98 -0.66 -169 -1 C-129.39398051 -28.5041802 -41.73448042 -22.18410488 0 0 Z " fill="#ECB9AD" transform="translate(334,124)"/>
<path d="M0 0 C1.16257324 0.01047363 2.32514648 0.02094727 3.52294922 0.03173828 C5.40820312 0.04140625 5.40820312 0.04140625 7.33154297 0.05126953 C9.30960937 0.07640625 9.30960937 0.07640625 11.32763672 0.10205078 C12.66747393 0.11208096 14.00731823 0.12120674 15.34716797 0.12939453 C18.63250244 0.15303003 21.91748137 0.18597844 25.20263672 0.22705078 C24.35556384 3.91790379 22.95714811 7.01811716 21.26513672 10.41455078 C20.74048828 11.48060547 20.21583984 12.54666016 19.67529297 13.64501953 C18.20263672 16.22705078 18.20263672 16.22705078 16.20263672 17.22705078 C15.29919987 19.10968959 15.29919987 19.10968959 14.57763672 21.28955078 C14.31724609 22.02302734 14.05685547 22.75650391 13.78857422 23.51220703 C13.59521484 24.07810547 13.40185547 24.64400391 13.20263672 25.22705078 C12.54263672 25.22705078 11.88263672 25.22705078 11.20263672 25.22705078 C10.87263672 25.88705078 10.54263672 26.54705078 10.20263672 27.22705078 C1.29263672 26.89705078 -7.61736328 26.56705078 -16.79736328 26.22705078 C-15.41255517 19.30301021 -12.17981604 14.02216038 -8.04736328 8.35205078 C-5.69235897 5.40818857 -5.69235897 5.40818857 -4.79736328 2.22705078 C-2.79736328 0.22705078 -2.79736328 0.22705078 0 0 Z " fill="#F9BB07" transform="translate(252.79736328125,263.77294921875)"/>
<path d="M0 0 C9.57 0 19.14 0 29 0 C28.34 1.98 27.68 3.96 27 6 C26.73848145 6.80034668 26.47696289 7.60069336 26.20751953 8.42529297 C23.98068138 14.68127109 21.45104971 20.93946698 16 25 C6.95043763 27.42469179 -2.81471487 26.15599991 -12 25 C-12.17138672 20.19042969 -12.17138672 20.19042969 -10.62890625 18.4765625 C-9.82259766 17.74566406 -9.82259766 17.74566406 -9 17 C-7.86623698 14.77081809 -7.86623698 14.77081809 -6.9375 12.375 C-5.21884498 8.10942249 -5.21884498 8.10942249 -3 7 C-2.01 4.69 -1.02 2.38 0 0 Z " fill="#4385F1" transform="translate(234,290)"/>
<path d="M0 0 C5.68421053 3.05263158 5.68421053 3.05263158 7 7 C7.78191835 13.49889516 6.86099607 18.65313956 3 24 C-1.16082097 28.35389851 -5.31102754 31.75554796 -11.4375 32.3125 C-15.20952775 31.98162037 -17.02142587 31.27773315 -20 29 C-22.08179017 24.83641967 -21.32766869 19.54565835 -21 15 C-17.95159361 6.17566572 -9.63125208 -1.37589315 0 0 Z M-8 15 C-7 17 -7 17 -7 17 Z M-9 17 C-8 19 -8 19 -8 19 Z M-10 19 C-9 21 -9 21 -9 21 Z " fill="#9C7545" transform="translate(171,365)"/>
<path d="M0 0 C3.98548177 3.53258611 7.35842779 7.65435558 9.75 12.4375 C9.81950541 13.97773996 9.83452357 15.52084988 9.8125 17.0625 C9.80347656 17.87976563 9.79445312 18.69703125 9.78515625 19.5390625 C9.77355469 20.16554688 9.76195312 20.79203125 9.75 21.4375 C9.09 21.7675 8.43 22.0975 7.75 22.4375 C7.75 23.4275 7.75 24.4175 7.75 25.4375 C2.79963871 27.91268065 -4.42573874 26.98822038 -9.5625 25.4375 C-14.58415725 21.70045274 -19.76618216 16.70250865 -21.25 10.4375 C-21.5625 7.25 -21.5625 7.25 -21.25 4.4375 C-20.26 3.7775 -19.27 3.1175 -18.25 2.4375 C-17.52617533 0.37824861 -17.52617533 0.37824861 -17.25 -1.5625 C-11.39151024 -3.33084599 -5.47206303 -2.63079953 0 0 Z " fill="#A27E57" transform="translate(133.25,359.5625)"/>
<path d="M0 0 C2.70936722 2.12355809 3.42797309 3.51562696 4.3125 6.8125 C4.53421875 7.44285156 4.7559375 8.07320313 4.984375 8.72265625 C5.52741576 12.1813087 3.71571235 14.11781241 1.84375 16.91015625 C-1.26381234 20.77082681 -4.89770565 22.85631185 -9.6875 23.8125 C-16.86825347 24.55744211 -21.49164815 23.48411591 -27.6875 19.8125 C-27.6875 18.4925 -27.6875 17.1725 -27.6875 15.8125 C-28.3475 15.4825 -29.0075 15.1525 -29.6875 14.8125 C-29.54933829 9.28603144 -27.15155713 6.51925549 -23.671875 2.546875 C-17.3552485 -2.97395604 -7.58184574 -2.44161134 0 0 Z " fill="#956834" transform="translate(162.6875,337.1875)"/>
<path d="M0 0 C1.75570312 0.01353516 1.75570312 0.01353516 3.546875 0.02734375 C4.43890625 0.03894531 5.3309375 0.05054687 6.25 0.0625 C6.25 0.3925 6.25 0.7225 6.25 1.0625 C5.03441406 1.25585938 3.81882813 1.44921875 2.56640625 1.6484375 C0.98169374 1.91099342 -0.60293761 2.17403959 -2.1875 2.4375 C-2.98994141 2.56382813 -3.79238281 2.69015625 -4.61914062 2.8203125 C-6.67520723 3.16732796 -8.71490131 3.60840428 -10.75 4.0625 C-11.08 4.7225 -11.41 5.3825 -11.75 6.0625 C-11.16887451 6.03220703 -10.58774902 6.00191406 -9.98901367 5.97070312 C52.48748012 2.88573714 52.48748012 2.88573714 82.6875 6.25 C84.10119873 6.40130371 84.10119873 6.40130371 85.54345703 6.55566406 C92.43700695 7.50166259 99.21082075 9.55916194 105.25 13.0625 C106.59155273 15.22729492 106.59155273 15.22729492 107.25 17.0625 C108.24 16.5675 108.24 16.5675 109.25 16.0625 C108.92 14.4125 108.59 12.7625 108.25 11.0625 C109.24 11.3925 110.23 11.7225 111.25 12.0625 C111.25 13.7125 111.25 15.3625 111.25 17.0625 C104.28208873 21.6954851 97.79537943 23.30377296 89.5625 24.375 C88.3652832 24.54032227 87.16806641 24.70564453 85.93457031 24.87597656 C72.0609954 26.60972473 58.20381178 26.44600857 44.25 26.0625 C44.25 25.7325 44.25 25.4025 44.25 25.0625 C45.46880859 24.98733154 46.68761719 24.91216309 47.94335938 24.8347168 C52.54380119 24.54831989 57.14331296 24.2487494 61.74267578 23.94555664 C63.71868867 23.81706287 65.69492546 23.69195887 67.67138672 23.57055664 C79.74553707 22.8262597 91.42186218 21.66882633 103.25 19.0625 C102.95645523 16.61421388 102.95645523 16.61421388 102.25 14.0625 C89.22601016 5.88464592 67.07171166 7.90651348 52.375 7.9296875 C50.99365217 7.92901074 49.61230446 7.92803766 48.23095703 7.92678833 C45.36033983 7.9253288 42.48975411 7.9274089 39.61914062 7.93212891 C35.9821217 7.9378251 32.34517663 7.93453661 28.7081604 7.92855644 C25.86303168 7.92490316 23.01791982 7.92611103 20.17279053 7.92868423 C18.19348094 7.92965395 16.21417064 7.92667447 14.23486328 7.92355347 C-3.85472653 6.78884878 -3.85472653 6.78884878 -19.75 13.0625 C-20.39767793 15.63311311 -20.39767793 15.63311311 -20.75 18.0625 C-19.58597656 18.25005859 -19.58597656 18.25005859 -18.3984375 18.44140625 C-15.60279644 18.91732373 -12.82335686 19.4295711 -10.0390625 19.96484375 C3.63894094 22.50338327 17.12346419 23.77172153 30.99951172 24.37866211 C32.01119667 24.42752312 32.01119667 24.42752312 33.0433197 24.47737122 C34.88843965 24.56518876 36.73413595 24.64064407 38.57983398 24.71533203 C39.46098877 24.82989746 40.34214355 24.94446289 41.25 25.0625 C41.745 26.0525 41.745 26.0525 42.25 27.0625 C23.59749717 26.58217804 5.894906 25.59718276 -12.375 21.6875 C-13.32487793 21.4905957 -14.27475586 21.29369141 -15.25341797 21.09082031 C-20.34724653 19.94180896 -23.92768688 18.85255731 -27.75 15.0625 C-27.48797271 11.91817254 -27.05653932 10.38947528 -24.875 8.0625 C-16.91872774 2.97048575 -9.44158837 -0.09441588 0 0 Z " fill="#75483D" transform="translate(208.75,113.9375)"/>
<path d="M0 0 C0.66 0 1.32 0 2 0 C1.47850161 8.15255673 0.39852514 16.01546744 -1.21484375 24.01953125 C-1.53854698 25.67199104 -1.53854698 25.67199104 -1.86878967 27.35783386 C-2.55223867 30.84396205 -3.24405794 34.32834695 -3.9375 37.8125 C-4.84795365 42.40127607 -5.75369325 46.99092858 -6.65234375 51.58203125 C-6.86627777 52.67460236 -7.08021179 53.76717346 -7.30062866 54.89285278 C-8.67536453 62.02321117 -9.81697617 69.13259471 -10.64282227 76.34643555 C-11 79 -11 79 -12 82 C-13.9609375 82.87890625 -13.9609375 82.87890625 -16.375 83.5625 C-19.45411239 84.45012686 -21.27337172 85.18224782 -24 87 C-24.99 87 -25.98 87 -27 87 C-27 87.66 -27 88.32 -27 89 C-29.97 89.99 -32.94 90.98 -36 92 C-33.64551908 87.29103816 -32.43550573 86.91822282 -27.75 84.875 C-26.63109375 84.37742187 -25.5121875 83.87984375 -24.359375 83.3671875 C-21 82 -21 82 -17.703125 81.0078125 C-14.7036438 80.19013329 -14.7036438 80.19013329 -13 77 C-12.5437208 74.42286746 -12.17054724 71.90701715 -11.875 69.3125 C-11.78863281 68.61060547 -11.70226562 67.90871094 -11.61328125 67.18554688 C-11.40173125 65.45788855 -11.199914 63.7290434 -11 62 C-11.99 62 -12.98 62 -14 62 C-14.66 65.96 -15.32 69.92 -16 74 C-16.33 74 -16.66 74 -17 74 C-17.13553729 67.08759809 -16.64824939 60.42217856 -15.8125 53.5625 C-15.68302979 52.49008057 -15.55355957 51.41766113 -15.42016602 50.31274414 C-13.52624146 35.41091789 -10.7880084 20.54106449 -7 6 C-6.67 6 -6.34 6 -6 6 C-6 9.96 -6 13.92 -6 18 C-5.01 18 -4.02 18 -3 18 C-1.515 9.09 -1.515 9.09 0 0 Z " fill="#D5AD99" transform="translate(333,242)"/>
<path d="M0 0 C1.27875 0.165 2.5575 0.33 3.875 0.5 C7.33010769 0.90680232 10.59028093 0.96861528 14.0625 0.8125 C19.03589654 0.76587441 23.09504028 1.80874049 27 5 C28 7.75 28 7.75 28 10 C13.93696284 16.08888747 -2.93682705 15.17402896 -18 15 C-16.68 14.67 -15.36 14.34 -14 14 C-14.0825 13.0925 -14.165 12.185 -14.25 11.25 C-14 8 -14 8 -12.6875 5.6875 C-8.4535777 3.02899065 -3.9106408 3.16933244 1 3 C0.67 2.01 0.34 1.02 0 0 Z " fill="#F3B6A8" transform="translate(285,123)"/>
<path d="M0 0 C9.24 0 18.48 0 28 0 C27.05362759 3.78548964 25.79468415 6.7104262 24.0625 10.1875 C23.53785156 11.25355469 23.01320313 12.31960938 22.47265625 13.41796875 C21 16 21 16 19 17 C18.09656316 18.88263881 18.09656316 18.88263881 17.375 21.0625 C17.11460937 21.79597656 16.85421875 22.52945312 16.5859375 23.28515625 C16.39257812 23.85105469 16.19921875 24.41695313 16 25 C12.49261095 23.83087032 12.31135603 23.29561065 10.625 20.17578125 C10.19703125 19.39396484 9.7690625 18.61214844 9.328125 17.80664062 C8.67070312 16.57204102 8.67070312 16.57204102 8 15.3125 C7.34257812 14.1069043 7.34257812 14.1069043 6.671875 12.87695312 C4.36111013 8.62083049 2.16720092 4.33440184 0 0 Z " fill="#E64435" transform="translate(250,264)"/>
<path d="M0 0 C0.66 0 1.32 0 2 0 C3.82361067 3.22301124 5.63187665 6.45438259 7.4375 9.6875 C7.95376953 10.59951172 8.47003906 11.51152344 9.00195312 12.45117188 C9.49501953 13.33740234 9.98808594 14.22363281 10.49609375 15.13671875 C10.95169678 15.94842529 11.4072998 16.76013184 11.87670898 17.59643555 C13 20 13 20 14 25 C5.42 25 -3.16 25 -12 25 C-11.25271275 21.26356375 -10.59755383 18.38305517 -9 15 C-8.34 14.67 -7.68 14.34 -7 14 C-5.7223892 11.66156757 -4.52838117 9.3356889 -3.375 6.9375 C-3.05015625 6.27427734 -2.7253125 5.61105469 -2.390625 4.92773438 C-1.58834885 3.28778753 -0.7934712 1.64422508 0 0 Z " fill="#4485F0" transform="translate(278,265)"/>
<path d="M0 0 C8.91 0 17.82 0 27 0 C25.66308818 4.01073546 24.72721787 6.79345668 22.6875 10.26953125 C22.25179688 11.01267578 21.81609375 11.75582031 21.3671875 12.52148438 C20.91601562 13.27751953 20.46484375 14.03355469 20 14.8125 C19.32324219 15.97555664 19.32324219 15.97555664 18.6328125 17.16210938 C15.25576475 22.87211762 15.25576475 22.87211762 13 24 C10 18.25 10 18.25 10 16 C9.34 16 8.68 16 8 16 C6.5625 14.0234375 6.5625 14.0234375 5 11.375 C4.2265625 10.08722656 4.2265625 10.08722656 3.4375 8.7734375 C2 6 2 6 0 0 Z " fill="#3AA551" transform="translate(236,290)"/>
<path d="M0 0 C8.91 0 17.82 0 27 0 C26.34 2.31 25.68 4.62 25 7 C24.01 7.33 23.02 7.66 22 8 C21.15580969 9.90154787 21.15580969 9.90154787 20.625 12.1875 C19.23811371 16.83023164 17.31611389 19.50463671 14 23 C9.69887353 19.33198327 7.39614775 14.70864256 4.75 9.8125 C4.29109375 8.98041016 3.8321875 8.14832031 3.359375 7.29101562 C0 1.15715681 0 1.15715681 0 0 Z " fill="#EA4235" transform="translate(207,290)"/>
<path d="M0 0 C0.763125 0.7425 1.52625 1.485 2.3125 2.25 C31.44112282 26.47633305 94.79262215 17.91983647 130 15 C131.03205566 14.91991699 132.06411133 14.83983398 133.12744141 14.75732422 C157.037723 13.57969546 157.037723 13.57969546 177 2 C176.62491626 4.45367279 176.34226656 5.69178547 174.46875 7.37890625 C173.8190625 7.76949219 173.169375 8.16007813 172.5 8.5625 C171.55640625 9.15224609 171.55640625 9.15224609 170.59375 9.75390625 C163.73657278 13.04824289 156.75462211 14.58655619 149.25 15.5625 C148.33154297 15.68544434 147.41308594 15.80838867 146.46679688 15.93505859 C143.64607848 16.3037957 140.82362766 16.65432135 138 17 C137.20142578 17.10199707 136.40285156 17.20399414 135.58007812 17.30908203 C97.13429258 22.10263884 33.57846482 28.31442609 1 4 C0.125 1.75 0.125 1.75 0 0 Z " fill="#6B4036" transform="translate(162,129)"/>
<path d="M0 0 C0.47762932 4.01208627 0.17851586 5.71549035 -2 9.1875 C-5.78703372 13.22912423 -10.12249869 14.7236546 -15.5625 15.24609375 C-20.12128885 15.36142025 -23.88859807 15.19274769 -28 13 C-27.67 11.35 -27.34 9.7 -27 8 C-25.56445975 7.49440092 -24.1264798 6.9957251 -22.6875 6.5 C-21.88699219 6.2215625 -21.08648437 5.943125 -20.26171875 5.65625 C-18 5 -18 5 -15 5 C-15 4.34 -15 3.68 -15 3 C-4.44 -1.48 -4.44 -1.48 0 0 Z " fill="#966D3B" transform="translate(166,346)"/>
<path d="M0 0 C0.66 0 1.32 0 2 0 C1.51403508 10.30803915 -0.4718915 20.17847039 -2.5625 30.25 C-2.8958156 31.88138115 -3.22850235 33.51289092 -3.56054688 35.14453125 C-4.36646749 39.09787194 -5.18083731 43.04938289 -6 47 C-6.33 47 -6.66 47 -7 47 C-6.98839844 45.87980469 -6.97679687 44.75960937 -6.96484375 43.60546875 C-6.95546378 42.13281417 -6.9463638 40.66015778 -6.9375 39.1875 C-6.92912109 38.44951172 -6.92074219 37.71152344 -6.91210938 36.95117188 C-6.89740172 33.70077932 -6.96468298 31.10595105 -8 28 C-8.33 28.66 -8.66 29.32 -9 30 C-9.66 30 -10.32 30 -11 30 C-11.03738281 30.70898438 -11.07476562 31.41796875 -11.11328125 32.1484375 C-11.63935298 40.66873646 -12.49754502 49.14139386 -13.4375 57.625 C-13.55971924 58.77532715 -13.68193848 59.9256543 -13.80786133 61.11083984 C-13.99384888 62.74593506 -13.99384888 62.74593506 -14.18359375 64.4140625 C-14.29243896 65.3932666 -14.40128418 66.3724707 -14.51342773 67.38134766 C-14.98709141 69.9305281 -15.71476254 71.76414311 -17 74 C-17.13553729 67.08759809 -16.64824939 60.42217856 -15.8125 53.5625 C-15.68302979 52.49008057 -15.55355957 51.41766113 -15.42016602 50.31274414 C-13.52624146 35.41091789 -10.7880084 20.54106449 -7 6 C-6.67 6 -6.34 6 -6 6 C-6 9.96 -6 13.92 -6 18 C-5.01 18 -4.02 18 -3 18 C-2.01 12.06 -1.02 6.12 0 0 Z " fill="#E2C4B3" transform="translate(333,242)"/>
<path d="M0 0 C4.75 0.875 4.75 0.875 7 2 C7.62583106 11.76991826 7.62583106 11.76991826 5.1875 16.5625 C3 19 3 19 0 21 C-1.32 21 -2.64 21 -4 21 C-4 21.66 -4 22.32 -4 23 C-6.31 23.33 -8.62 23.66 -11 24 C-10.34 22.35 -9.68 20.7 -9 19 C-8.34 19 -7.68 19 -7 19 C-6.01 15.04 -5.02 11.08 -4 7 C-3.34 7 -2.68 7 -2 7 C-2 5.68 -2 4.36 -2 3 C-1.34 3 -0.68 3 0 3 C0 2.01 0 1.02 0 0 Z " fill="#976E3C" transform="translate(170,371)"/>
<path d="M0 0 C5.61982126 1.36238091 8.77518827 5.47365757 12 10 C15.14913674 16.95434363 13.97525425 24.79116613 12 32 C10.68 32 9.36 32 8 32 C7.89042969 31.25234375 7.78085937 30.5046875 7.66796875 29.734375 C7.50941406 28.74953125 7.35085938 27.7646875 7.1875 26.75 C7.03667969 25.77546875 6.88585937 24.8009375 6.73046875 23.796875 C5.96331725 20.85954628 4.88241663 19.33110223 3 17 C3 16.34 3 15.68 3 15 C6 16 6 16 7 17 C5.71076872 13.13230615 4.38797758 12.25865172 1 10 C-0.60725635 6.78548731 -0.05748185 3.56387464 0 0 Z " fill="#F6B4A4" transform="translate(341,141)"/>
<path d="M0 0 C1.04239682 3.12719046 0.97104316 4.29258274 0.44140625 7.44921875 C0.23354492 8.72055664 0.23354492 8.72055664 0.02148438 10.01757812 C-0.12998047 10.89865234 -0.28144531 11.77972656 -0.4375 12.6875 C-0.58509766 13.58017578 -0.73269531 14.47285156 -0.88476562 15.39257812 C-1.25007381 17.59621137 -1.62204888 19.798506 -2 22 C-2.33 22 -2.66 22 -3 22 C-3.495 17.05 -3.495 17.05 -4 12 C-4.99 12.495 -4.99 12.495 -6 13 C-7.175625 13.2165625 -7.175625 13.2165625 -8.375 13.4375 C-12.06087393 14.22733013 -14.33469045 15.33469045 -17 18 C-18.875 18.4921875 -18.875 18.4921875 -21 18.875 C-23.13628547 19.3120195 -23.13628547 19.3120195 -25 20 C-26.28436734 21.9837767 -26.28436734 21.9837767 -27 24 C-29.125 24.75 -29.125 24.75 -31 25 C-31.66 24.01 -32.32 23.02 -33 22 C-31.906875 21.5875 -30.81375 21.175 -29.6875 20.75 C-27.18160517 19.69173366 -26.17989841 19.25029343 -24.5625 17 C-22.41316493 14.24885111 -20.02550492 13.77675145 -16.7421875 12.80859375 C-16.16726563 12.54175781 -15.59234375 12.27492187 -15 12 C-14.67 11.01 -14.34 10.02 -14 9 C-15.32 8.67 -16.64 8.34 -18 8 C-17.34773438 7.75765625 -16.69546875 7.5153125 -16.0234375 7.265625 C-11.54852823 5.5495831 -4.42938127 0 0 0 Z " fill="#D5B2A3" transform="translate(338,220)"/>
<path d="M0 0 C35.88282886 -0.70899113 35.88282886 -0.70899113 48 7 C49.31640625 9.1640625 49.31640625 9.1640625 50 11 C50.66 10.67 51.32 10.34 52 10 C51.505 7.525 51.505 7.525 51 5 C51.99 5.33 52.98 5.66 54 6 C54 7.65 54 9.3 54 11 C47.03208873 15.6329851 40.54537943 17.24127296 32.3125 18.3125 C31.1152832 18.47782227 29.91806641 18.64314453 28.68457031 18.81347656 C14.8109954 20.54722473 0.95381178 20.38350857 -13 20 C-13 19.67 -13 19.34 -13 19 C-11.78119141 18.92483154 -10.56238281 18.84966309 -9.30664062 18.7722168 C-4.70619881 18.48581989 -0.10668704 18.1862494 4.49267578 17.88305664 C6.46868867 17.75456287 8.44492546 17.62945887 10.42138672 17.50805664 C22.49553707 16.7637597 34.17186218 15.60632633 46 13 C45.70645523 10.55171388 45.70645523 10.55171388 45 8 C33.09598105 0.52538345 13.60846641 2.04319277 0 1 C0 0.67 0 0.34 0 0 Z " fill="#6F443C" transform="translate(266,120)"/>
<path d="M0 0 C0.66 0.66 1.32 1.32 2 2 C2.61875 2.12375 3.2375 2.2475 3.875 2.375 C7.50112334 3.44150686 9.41787184 6.1510631 11.5 9.1875 C13.28887782 11.3490607 14.35279872 11.3823197 17 12 C18 15 18 15 17 18 C16.278125 17.84917969 15.55625 17.69835937 14.8125 17.54296875 C13.05075927 17.20285491 11.27936975 16.90654326 9.5 16.67578125 C1.91004156 15.57286541 1.91004156 15.57286541 -1.0625 12.375 C-3.40092851 8.3016084 -3.75957796 5.64815944 -4 1 C-2 0 -2 0 0 0 Z " fill="#936933" transform="translate(118,367)"/>
<path d="M0 0 C1.32 0.33 2.64 0.66 4 1 C4.33 3.97 4.66 6.94 5 10 C4.34 10 3.68 10 3 10 C2.67 11.98 2.34 13.96 2 16 C1.01 16.33 0.02 16.66 -1 17 C-1 18.32 -1 19.64 -1 21 C-2.32 20.67 -3.64 20.34 -5 20 C-4.67 21.32 -4.34 22.64 -4 24 C-5.32 23.67 -6.64 23.34 -8 23 C-8.37892972 14.32671964 -8.26996731 8.94072984 -2.5625 2.0625 C-1.716875 1.381875 -0.87125 0.70125 0 0 Z " fill="#946834" transform="translate(158,369)"/>
<path d="M0 0 C3.91880262 1.26198729 5.37369728 1.83686637 7.3125 5.4375 C7.6528125 6.7059375 7.6528125 6.7059375 8 8 C8.2475 8.721875 8.495 9.44375 8.75 10.1875 C8.87375 11.0846875 8.87375 11.0846875 9 12 C8.34 12.66 7.68 13.32 7 14 C6.67 12.68 6.34 11.36 6 10 C5.40832031 10.13277344 4.81664062 10.26554687 4.20703125 10.40234375 C2.58062755 10.76583038 0.95296276 11.12371058 -0.67578125 11.4765625 C-2.42142949 11.86970009 -4.15307243 12.3258683 -5.875 12.8125 C-8 13 -8 13 -9.8125 11.5625 C-10.4003125 10.7890625 -10.4003125 10.7890625 -11 10 C-10.649375 9.21625 -10.29875 8.4325 -9.9375 7.625 C-9.628125 6.75875 -9.31875 5.8925 -9 5 C-9.33 4.34 -9.66 3.68 -10 3 C-9.67 2.34 -9.34 1.68 -9 1 C-11.31 1.33 -13.62 1.66 -16 2 C-11.1192924 -1.25380506 -5.70918703 -0.44887957 0 0 Z " fill="#9A7344" transform="translate(159,336)"/>
<path d="M0 0 C0.66 0 1.32 0 2 0 C3.00508801 1.78881736 4.00392736 3.58114696 5 5.375 C5.556875 6.37273437 6.11375 7.37046875 6.6875 8.3984375 C8 11 8 11 8 13 C7.34 13 6.68 13 6 13 C6 12.34 6 11.68 6 11 C5.34 11 4.68 11 4 11 C4 11.66 4 12.32 4 13 C3.01 12.67 2.02 12.34 1 12 C-1.55204547 12.04363108 -1.55204547 12.04363108 -4 13 C-5.67220162 15.04564138 -5.67220162 15.04564138 -6.8125 17.5625 C-7.23144531 18.38878906 -7.65039062 19.21507812 -8.08203125 20.06640625 C-8.38496094 20.70449219 -8.68789063 21.34257812 -9 22 C-1.67386859 22.761788 5.65835626 23.40711812 13 24 C12.67 22.68 12.34 21.36 12 20 C12.66 20.33 13.32 20.66 14 21 C14 22.32 14 23.64 14 25 C5.42 25 -3.16 25 -12 25 C-11.25271275 21.26356375 -10.59755383 18.38305517 -9 15 C-8.34 14.67 -7.68 14.34 -7 14 C-5.7223892 11.66156757 -4.52838117 9.3356889 -3.375 6.9375 C-3.05015625 6.27427734 -2.7253125 5.61105469 -2.390625 4.92773438 C-1.58834885 3.28778753 -0.7934712 1.64422508 0 0 Z " fill="#4B84EA" transform="translate(278,265)"/>
<path d="M0 0 C1.66719339 0.02936416 3.33455868 0.04962777 5.00195312 0.06347656 C19.0255286 0.20462139 32.78938528 1.38526426 46.66894531 3.29150391 C47.40584595 3.38797211 48.14274658 3.48444031 48.90197754 3.58383179 C58.52147429 4.8619458 67.60064778 6.60777502 76.35644531 11.04150391 C76.85144531 12.03150391 76.85144531 12.03150391 77.35644531 13.04150391 C76.77378906 12.85974609 76.19113281 12.67798828 75.59082031 12.49072266 C63.80314205 8.87657602 52.16899371 6.32325818 39.91894531 4.91650391 C39.19274994 4.8309021 38.46655457 4.74530029 37.71835327 4.65710449 C17.01452492 2.27087218 -3.82579367 2.20639706 -24.64355469 2.04150391 C-24.64355469 1.71150391 -24.64355469 1.38150391 -24.64355469 1.04150391 C-16.41260029 0.18315484 -8.27423265 -0.15586957 0 0 Z " fill="#6E443A" transform="translate(239.6435546875,111.95849609375)"/>
<path d="M0 0 C5 7.5 5 7.5 5 12 C6.2065625 12.433125 6.2065625 12.433125 7.4375 12.875 C10 14 10 14 11 16 C10.01 16 9.02 16 8 16 C8.33 17.32 8.66 18.64 9 20 C9.99 20 10.98 20 12 20 C12.33 22.31 12.66 24.62 13 27 C13.33 26.34 13.66 25.68 14 25 C14.66 25 15.32 25 16 25 C16.28875 25.969375 16.5775 26.93875 16.875 27.9375 C17.64214682 31.10664203 17.64214682 31.10664203 20 32 C20 33.66666667 20 35.33333333 20 37 C14.90182741 35.25205511 11.30941253 32.98836717 8.3125 28.4375 C7.12298732 25.32210964 6.57255766 22.70890433 6.0625 19.4375 C5.3176817 14.74766954 4.00148377 12.67923816 1 9 C0.3734956 6.01009689 0.13283959 3.0486686 0 0 Z " fill="#EDD5D1" transform="translate(187,353)"/>
<path d="M0 0 C0.1875 2.375 0.1875 2.375 0 5 C-3.62346069 7.41564046 -6.31603982 7.29781669 -10.5 7.25 C-11.17675781 7.25773438 -11.85351562 7.26546875 -12.55078125 7.2734375 C-16.24919257 7.25884811 -17.84603337 7.10264442 -21 5 C-20.875 3.125 -20.875 3.125 -20 1 C-14.23550697 -2.0339437 -6.11725195 -2.03908398 0 0 Z " fill="#FEF8F5" transform="translate(292,129)"/>
<path d="M0 0 C-0.22773256 2.12750156 -0.48290818 4.25208056 -0.75 6.375 C-0.88921875 7.55835938 -1.0284375 8.74171875 -1.171875 9.9609375 C-2 13 -2 13 -4.015625 14.2890625 C-4.67046875 14.52367187 -5.3253125 14.75828125 -6 15 C-6.33 15.66 -6.66 16.32 -7 17 C-3.535 16.505 -3.535 16.505 0 16 C0 15.34 0 14.68 0 14 C1.32 13.67 2.64 13.34 4 13 C4 13.66 4 14.32 4 15 C-0.89241128 18.1950441 -3.97708824 19.78074782 -10 19 C-12.9375 17.625 -12.9375 17.625 -15 16 C-15 15.34 -15 14.68 -15 14 C-14.34 13.67 -13.68 13.34 -13 13 C-13 12.34 -13 11.68 -13 11 C-11.68 11 -10.36 11 -9 11 C-9.33 9.68 -9.66 8.36 -10 7 C-8.68 7 -7.36 7 -6 7 C-5.67 5.02 -5.34 3.04 -5 1 C-2 0 -2 0 0 0 Z M-3 2 C-2 4 -2 4 -2 4 Z M-4 4 C-3 6 -3 6 -3 6 Z M-5 6 C-4 8 -4 8 -4 8 Z " fill="#A1825A" transform="translate(166,378)"/>
<path d="M0 0 C15.51 0 31.02 0 47 0 C42.81932103 2.78711931 39.80616414 3.12653115 34.84375 3.0625 C33.82982178 3.05412109 32.81589355 3.04574219 31.77124023 3.03710938 C30.69173096 3.02486328 29.61222168 3.01261719 28.5 3 C17.29788659 2.92810255 6.17824831 3.30057888 -5 4 C-5 3.67 -5 3.34 -5 3 C-2.69 3 -0.38 3 2 3 C2 2.34 2 1.68 2 1 C1.34 0.67 0.68 0.34 0 0 Z " fill="#E4ACA0" transform="translate(212,110)"/>
<path d="M0 0 C0 3 0 3 -1.4375 5.0625 C-3.61839379 9.16258033 -4.16494859 13.36573014 -4 18 C-3.34 18.99 -2.68 19.98 -2 21 C-1.505 16.545 -1.505 16.545 -1 12 C-0.34 12 0.32 12 1 12 C1.03738281 12.66386719 1.07476562 13.32773438 1.11328125 14.01171875 C1.4899103 19.07036379 1.81205295 22.84180819 5 27 C2 28 2 28 -0.375 27.14453125 C-1.24125 26.70496094 -2.1075 26.26539063 -3 25.8125 C-3.86625 25.38582031 -4.7325 24.95914063 -5.625 24.51953125 C-8.09918901 22.93653861 -9.40930854 21.4435951 -11 19 C-10.01 19 -9.02 19 -8 19 C-7.84144531 18.21496094 -7.68289062 17.42992187 -7.51953125 16.62109375 C-6.03266941 9.9261081 -4.42435172 5.26139123 0 0 Z " fill="#FACDBF" transform="translate(164,160)"/>
<path d="M0 0 C7.4237536 0.85169776 14.43273506 2.2357091 21.5625 4.4375 C22.24054688 4.64270264 22.91859375 4.84790527 23.6171875 5.05932617 C27.24385157 6.22082167 30.1209388 7.48723157 33 10 C32.6875 11.9375 32.6875 11.9375 32 14 C31.01 14.33 30.02 14.66 29 15 C28.938125 14.39414063 28.87625 13.78828125 28.8125 13.1640625 C28.17120674 10.81516273 28.17120674 10.81516273 25.875 9.5859375 C17.01087724 5.85240753 8.49519044 4.75376512 -1 4 C-0.67 2.68 -0.34 1.36 0 0 Z " fill="#E6B1A5" transform="translate(286,117)"/>
<path d="M0 0 C0.66 0 1.32 0 2 0 C1.29330094 6.64568922 0.44380273 13.25903634 -0.5 19.875 C-0.63019531 20.81085938 -0.76039063 21.74671875 -0.89453125 22.7109375 C-1.02214844 23.608125 -1.14976562 24.5053125 -1.28125 25.4296875 C-1.45237305 26.63987549 -1.45237305 26.63987549 -1.62695312 27.87451172 C-2 30 -2 30 -3 33 C-4.9609375 33.87890625 -4.9609375 33.87890625 -7.375 34.5625 C-10.45411239 35.45012686 -12.27337172 36.18224782 -15 38 C-15.99 38 -16.98 38 -18 38 C-18 38.66 -18 39.32 -18 40 C-20.97 40.99 -23.94 41.98 -27 43 C-24.64551908 38.29103816 -23.43550573 37.91822282 -18.75 35.875 C-17.63109375 35.37742187 -16.5121875 34.87984375 -15.359375 34.3671875 C-12 33 -12 33 -8.703125 32.0078125 C-5.7036438 31.19013329 -5.7036438 31.19013329 -4 28 C-3.57845405 26.02705602 -3.57845405 26.02705602 -3.4375 23.8671875 C-3.36273438 23.06023437 -3.28796875 22.25328125 -3.2109375 21.421875 C-3.14132812 20.58140625 -3.07171875 19.7409375 -3 18.875 C-2.45005839 12.41827812 -1.52243234 6.30540728 0 0 Z " fill="#D3B5A7" transform="translate(324,291)"/>
<path d="M0 0 C1.875 2.375 1.875 2.375 3 5 C2.67 5.66 2.34 6.32 2 7 C0.35 5.35 -1.3 3.7 -3 2 C-2.360625 2.928125 -1.72125 3.85625 -1.0625 4.8125 C2.19439207 9.84587865 2.09493579 13.20891704 2 19 C2.99 19 3.98 19 5 19 C3.52670958 24.00918744 0.72484762 26.51807722 -3 30 C-3.99 29.67 -4.98 29.34 -6 29 C-5.01 28.67 -4.02 28.34 -3 28 C-2.26676204 25.98491642 -2.26676204 25.98491642 -2 24 C-1.34 24 -0.68 24 0 24 C0 23.34 0 22.68 0 22 C-0.66 22 -1.32 22 -2 22 C-2 21.34 -2 20.68 -2 20 C-1.34 20 -0.68 20 0 20 C-0.15508293 11.11686401 -0.15508293 11.11686401 -5 4 C-5.5775 3.401875 -6.155 2.80375 -6.75 2.1875 C-7.1625 1.795625 -7.575 1.40375 -8 1 C-4.95729435 -0.01423522 -3.15860793 -0.47379119 0 0 Z " fill="#F2C0B7" transform="translate(347,154)"/>
<path d="M0 0 C2 1 2 1 3.1875 3.875 C4.83102997 10.07675763 3.67242657 16.89635774 2 23 C0.68 23 -0.64 23 -2 23 C-2.10957031 22.25234375 -2.21914063 21.5046875 -2.33203125 20.734375 C-2.49058594 19.74953125 -2.64914062 18.7646875 -2.8125 17.75 C-2.96332031 16.77546875 -3.11414063 15.8009375 -3.26953125 14.796875 C-4.03668275 11.85954628 -5.11758337 10.33110223 -7 8 C-7 7.34 -7 6.68 -7 6 C-4 7 -4 7 -2.5 8.5625 C-0.98527194 10.34595268 -0.98527194 10.34595268 2 10 C1.505 8.63875 1.505 8.63875 1 7.25 C0 4 0 4 0 0 Z " fill="#EDBCB1" transform="translate(351,150)"/>
<path d="M0 0 C-3.16444986 3.16444986 -7.24537689 4.63720043 -11.25 6.5625 C-14.05207298 7.85268243 -14.05207298 7.85268243 -16 10 C-16.64767793 12.57061311 -16.64767793 12.57061311 -17 15 C-17.66 14.67 -18.32 14.34 -19 14 C-19 12.02 -19 10.04 -19 8 C-19.99 7.67 -20.98 7.34 -22 7 C-7.6 -2.888 -7.6 -2.888 0 0 Z " fill="#F3C6BD" transform="translate(187,116)"/>
<path d="M0 0 C0.66 0.66 1.32 1.32 2 2 C4.06874034 2.6425235 4.06874034 2.6425235 6 3 C6 4.65 6 6.3 6 8 C5.34 8 4.68 8 4 8 C4.33 9.98 4.66 11.96 5 14 C4.01 14.33 3.02 14.66 2 15 C-2.55774263 10.32539218 -3.66290194 7.51722911 -4 1 C-2 0 -2 0 0 0 Z " fill="#997242" transform="translate(118,367)"/>
<path d="M0 0 C0.66 0.33 1.32 0.66 2 1 C1.53980469 1.95003906 1.07960938 2.90007812 0.60546875 3.87890625 C-1.34862078 8.43844849 -2.00749661 13.05113683 -2.6875 17.9375 C-2.88182617 19.24944336 -2.88182617 19.24944336 -3.08007812 20.58789062 C-3.39524473 22.72401986 -3.69882253 24.86185355 -4 27 C-4.33 27 -4.66 27 -5 27 C-5 24.36 -5 21.72 -5 19 C-5.99 19.33 -6.98 19.66 -8 20 C-7.85879286 18.06215735 -7.71187127 16.12473045 -7.5625 14.1875 C-7.48128906 13.10855469 -7.40007812 12.02960938 -7.31640625 10.91796875 C-7 8 -7 8 -6 5 C-5.01 4.67 -4.02 4.34 -3 4 C-1.31461399 2.00334686 -1.31461399 2.00334686 0 0 Z " fill="#FBE0DB" transform="translate(340,186)"/>
<path d="M0 0 C1.32 0.66 2.64 1.32 4 2 C3.67 2.66 3.34 3.32 3 4 C1.68 4 0.36 4 -1 4 C-1 5.65 -1 7.3 -1 9 C-1.66 9 -2.32 9 -3 9 C-2.67 10.65 -2.34 12.3 -2 14 C-2.78375 14.2475 -3.5675 14.495 -4.375 14.75 C-7.41468063 16.19746697 -7.82967431 16.93914819 -9 20 C-9.66 21.32 -10.32 22.64 -11 24 C-2.09 24 6.82 24 16 24 C16 24.33 16 24.66 16 25 C6.76 25 -2.48 25 -12 25 C-12 20 -12 20 -10.62890625 18.4765625 C-9.82259766 17.74566406 -9.82259766 17.74566406 -9 17 C-7.86623698 14.77081809 -7.86623698 14.77081809 -6.9375 12.375 C-5.21884498 8.10942249 -5.21884498 8.10942249 -3 7 C-1.94647157 4.69034152 -0.94280904 2.3570226 0 0 Z " fill="#7975AA" transform="translate(234,290)"/>
<path d="M0 0 C0 0.66 0 1.32 0 2 C-5.28 2.66 -10.56 3.32 -16 4 C-16 3.34 -16 2.68 -16 2 C-23.92 2.495 -23.92 2.495 -32 3 C-27.52913135 0.76456568 -23.69301614 0.04388721 -18.8125 -0.75 C-17.99974609 -0.90082031 -17.18699219 -1.05164063 -16.34960938 -1.20703125 C-10.44943631 -2.17396494 -5.72384219 -1.69710071 0 0 Z " fill="#EDBAAD" transform="translate(214,111)"/>
<path d="M0 0 C0 3 0 3 -1 5 C-0.01 4.67 0.98 4.34 2 4 C2.33 6.31 2.66 8.62 3 11 C2.01 10.67 1.02 10.34 0 10 C0 10.99 0 11.98 0 13 C-1.31471568 12.71848913 -2.62675767 12.42446661 -3.9375 12.125 C-4.66839844 11.96257812 -5.39929688 11.80015625 -6.15234375 11.6328125 C-8 11 -8 11 -9 9 C-8.34 9 -7.68 9 -7 9 C-7.33 7.68 -7.66 6.36 -8 5 C-7.34 5 -6.68 5 -6 5 C-5.67 4.01 -5.34 3.02 -5 2 C-2.4375 0.8125 -2.4375 0.8125 0 0 Z " fill="#F8B2A4" transform="translate(179,122)"/>
<path d="M0 0 C8.49230769 2.33846154 8.49230769 2.33846154 11.0625 5.6875 C11.371875 6.450625 11.68125 7.21375 12 8 C10.75 9.5625 10.75 9.5625 9 11 C7.1875 10.75 7.1875 10.75 5 10 C3.00211562 9.65421232 1.00240549 9.31856451 -1 9 C-0.67 6.03 -0.34 3.06 0 0 Z " fill="#F4B4A4" transform="translate(320,123)"/>
<path d="M0 0 C1.134375 0.020625 2.26875 0.04125 3.4375 0.0625 C3.4375 0.7225 3.4375 1.3825 3.4375 2.0625 C5.0875 1.7325 6.7375 1.4025 8.4375 1.0625 C9.0975 2.7125 9.7575 4.3625 10.4375 6.0625 C8.7875 6.3925 7.1375 6.7225 5.4375 7.0625 C6.0975 7.3925 6.7575 7.7225 7.4375 8.0625 C7.4375 8.7225 7.4375 9.3825 7.4375 10.0625 C5.4575 10.0625 3.4775 10.0625 1.4375 10.0625 C1.169375 9.423125 0.90125 8.78375 0.625 8.125 C-0.44917752 5.73118314 -0.44917752 5.73118314 -3.5625 5.0625 C-4.3125 3.0625 -4.3125 3.0625 -4.5625 1.0625 C-3.5625 0.0625 -3.5625 0.0625 0 0 Z " fill="#96682F" transform="translate(124.5625,359.9375)"/>
<path d="M0 0 C8.91 0 17.82 0 27 0 C26.34 2.31 25.68 4.62 25 7 C24.01 7.495 24.01 7.495 23 8 C23.33 5.69 23.66 3.38 24 1 C19.71 1 15.42 1 11 1 C11 1.99 11 2.98 11 4 C9.68 4 8.36 4 7 4 C6.67 5.98 6.34 7.96 6 10 C3.09787714 6.61418999 1.70604525 4.26511313 0 0 Z " fill="#E34739" transform="translate(207,290)"/>
<path d="M0 0 C0 0.66 0 1.32 0 2 C1.32 2.33 2.64 2.66 4 3 C4 3.66 4 4.32 4 5 C4.66 5.33 5.32 5.66 6 6 C5.34 7.32 4.68 8.64 4 10 C3.54625 9.34 3.0925 8.68 2.625 8 C2.08875 7.34 1.5525 6.68 1 6 C0.34 6 -0.32 6 -1 6 C-1.33 6.66 -1.66 7.32 -2 8 C-2.33 6.68 -2.66 5.36 -3 4 C-4.32 4.33 -5.64 4.66 -7 5 C-6.34 6.65 -5.68 8.3 -5 10 C-5.66 10.66 -6.32 11.32 -7 12 C-8.80230168 8.17010894 -9.19622241 5.21878192 -9 1 C-5.64919071 -1.10976881 -3.77897651 -1.0497157 0 0 Z " fill="#A58762" transform="translate(121,363)"/>
<path d="M0 0 C1.45823212 -0.0270043 2.91660675 -0.04639787 4.375 -0.0625 C5.18710937 -0.07410156 5.99921875 -0.08570312 6.8359375 -0.09765625 C9 0 9 0 11 1 C11 1.66 11 2.32 11 3 C10.01 3 9.02 3 8 3 C8.66 3.66 9.32 4.32 10 5 C10.125 7.625 10.125 7.625 10 10 C8.58957044 10.84384675 7.17135868 11.67469496 5.75 12.5 C4.96109375 12.9640625 4.1721875 13.428125 3.359375 13.90625 C1 15 1 15 -3 15 C-3 14.01 -3 13.02 -3 12 C-3.66 12 -4.32 12 -5 12 C-5 11.01 -5 10.02 -5 9 C-2.6875 8.375 -2.6875 8.375 0 8 C0.99 8.66 1.98 9.32 3 10 C5.62531524 10.16713569 5.62531524 10.16713569 8 10 C7.88658466 7.59122743 7.88658466 7.59122743 7 5 C4.60775041 3.26461808 4.60775041 3.26461808 2 2 C1.34 1.34 0.68 0.68 0 0 Z " fill="#F9C8BB" transform="translate(323,123)"/>
<path d="M0 0 C0.33 0.66 0.66 1.32 1 2 C0.34 3.65 -0.32 5.3 -1 7 C6.26 6.67 13.52 6.34 21 6 C21 4.35 21 2.7 21 1 C23.74999027 4.22824944 24.10429689 5.52148447 25 10 C11.14 9.505 11.14 9.505 -3 9 C-2.24872886 5.24364431 -1.75994274 3.16789693 0 0 Z " fill="#D9B62F" transform="translate(239,281)"/>
<path d="M0 0 C1.7578125 0.13671875 1.7578125 0.13671875 4 1 C5.9921875 3.58203125 5.9921875 3.58203125 7.875 6.8125 C8.51179688 7.87082031 9.14859375 8.92914063 9.8046875 10.01953125 C11 13 11 13 10.1953125 15.38671875 C9.80085938 15.91910156 9.40640625 16.45148438 9 17 C8.566875 15.948125 8.13375 14.89625 7.6875 13.8125 C6.36129459 10.70539018 4.8167024 7.85481805 3 5 C-0.69790046 6.23263349 -0.9354846 7.20052451 -2.6875 10.5625 C-3.12449219 11.38878906 -3.56148437 12.21507812 -4.01171875 13.06640625 C-4.50091797 14.02353516 -4.50091797 14.02353516 -5 15 C-5.99 15 -6.98 15 -8 15 C-6.66023187 10.98069562 -4.66068985 7.97930242 -2.12109375 4.6484375 C-0.80867708 2.87939685 -0.80867708 2.87939685 0 0 Z " fill="#F3B826" transform="translate(248,266)"/>
<path d="M0 0 C9.24 0 18.48 0 28 0 C27.05362759 3.78548964 25.79468415 6.7104262 24.0625 10.1875 C23.53785156 11.25355469 23.01320313 12.31960938 22.47265625 13.41796875 C21 16 21 16 19 17 C18.09656316 18.88263881 18.09656316 18.88263881 17.375 21.0625 C17.11460937 21.79597656 16.85421875 22.52945312 16.5859375 23.28515625 C16.39257812 23.85105469 16.19921875 24.41695313 16 25 C15.34 25 14.68 25 14 25 C14.99 21.7 15.98 18.4 17 15 C17.66 15 18.32 15 19 15 C19 14.34 19 13.68 19 13 C19.66 13 20.32 13 21 13 C21.66 10.69 22.32 8.38 23 6 C23.66 6 24.32 6 25 6 C24.67 4.68 24.34 3.36 24 2 C16.08 1.67 8.16 1.34 0 1 C0 0.67 0 0.34 0 0 Z " fill="#C75E66" transform="translate(250,264)"/>
<path d="M0 0 C1.40885543 3.84579455 0.61082817 6.81719678 -0.25 10.75 C-0.53363071 12.07919738 -0.81614212 13.40863399 -1.09765625 14.73828125 C-1.32026123 15.775896 -1.32026123 15.775896 -1.54736328 16.83447266 C-2.3186575 20.52453722 -3.00156578 24.23078493 -3.6875 27.9375 C-3.81866211 28.64165039 -3.94982422 29.34580078 -4.08496094 30.07128906 C-4.39087244 31.71402565 -4.69557835 33.35698667 -5 35 C-6.87187406 31.8610939 -7.18112106 29.96918842 -6.6796875 26.3671875 C-6.49756714 25.04013794 -6.49756714 25.04013794 -6.31176758 23.6862793 C-6.16763428 22.75855713 -6.02350098 21.83083496 -5.875 20.875 C-5.66556763 19.46118042 -5.66556763 19.46118042 -5.4519043 18.01879883 C-4.4387317 11.64216107 -3.0514246 5.7465915 0 0 Z " fill="#EFD6D3" transform="translate(342,184)"/>
<path d="M0 0 C0.75 1.5625 0.75 1.5625 1 4 C-0.13084437 6.50286409 -1.52139516 8.67007722 -3 11 C4.32613141 11.761788 11.65835626 12.40711812 19 13 C18.67 11.68 18.34 10.36 18 9 C18.66 9.33 19.32 9.66 20 10 C20 11.32 20 12.64 20 14 C11.42 14 2.84 14 -6 14 C-5.25271275 10.26356375 -4.59755383 7.38305517 -3 4 C-2.34 3.67 -1.68 3.34 -1 3 C-0.67 2.01 -0.34 1.02 0 0 Z " fill="#6585D3" transform="translate(272,276)"/>
<path d="M0 0 C13.86 0.495 13.86 0.495 28 1 C28 1.33 28 1.66 28 2 C19.09 2 10.18 2 1 2 C1.33 4.31 1.66 6.62 2 9 C1.34 9 0.68 9 0 9 C-0.33 9.66 -0.66 10.32 -1 11 C-1.99 11 -2.98 11 -4 11 C-5.68798827 12.43750191 -5.68798827 12.43750191 -7 14 C-5.44514952 8.34599825 -3.35193673 5.36309876 0 0 Z " fill="#C2B0A0" transform="translate(264,289)"/>
<path d="M0 0 C0.66 0 1.32 0 2 0 C2.33 2.31 2.66 4.62 3 7 C3.33 6.34 3.66 5.68 4 5 C4.66 5 5.32 5 6 5 C6.28875 5.969375 6.5775 6.93875 6.875 7.9375 C7.64214682 11.10664203 7.64214682 11.10664203 10 12 C10 13.66666667 10 15.33333333 10 17 C6.53747805 15.74964485 3.66270845 14.57395151 1 12 C0.390625 9.08203125 0.390625 9.08203125 0.25 5.8125 C0.19328125 4.72582031 0.1365625 3.63914062 0.078125 2.51953125 C0.05234375 1.68808594 0.0265625 0.85664063 0 0 Z " fill="#F7DBD7" transform="translate(197,373)"/>
<path d="M0 0 C0.66 0 1.32 0 2 0 C4.22030966 8.23063626 6.35940029 16.21296541 6.82421875 24.765625 C6.91967393 27.00923392 6.91967393 27.00923392 7.64453125 29.109375 C8 31 8 31 6 34 C5.1419191 29.64075122 4.28752041 25.28080184 3.43652344 20.92016602 C3.14651922 19.43689499 2.85551054 17.95381999 2.56347656 16.47094727 C2.14383813 14.33921256 1.72781954 12.20679854 1.3125 10.07421875 C1.06113281 8.79119873 0.80976563 7.50817871 0.55078125 6.1862793 C0 3 0 3 0 0 Z " fill="#D2B7AA" transform="translate(165,237)"/>
<path d="M0 0 C5.68421053 3.05263158 5.68421053 3.05263158 7 7 C7.06740865 8.56118428 7.08514456 10.1250252 7.0625 11.6875 C7.05347656 12.49574219 7.04445312 13.30398438 7.03515625 14.13671875 C7.02355469 14.75160156 7.01195312 15.36648438 7 16 C6.67 16 6.34 16 6 16 C6 13.36 6 10.72 6 8 C4.68 8 3.36 8 2 8 C2 7.34 2 6.68 2 6 C0.35 6.33 -1.3 6.66 -3 7 C-3 5.35 -3 3.7 -3 2 C-3.61875 2.20625 -4.2375 2.4125 -4.875 2.625 C-5.57625 2.74875 -6.2775 2.8725 -7 3 C-7.66 2.34 -8.32 1.68 -9 1 C-5.89046621 -0.5547669 -3.43733239 -0.28644437 0 0 Z " fill="#AC8F6C" transform="translate(171,365)"/>
<path d="M0 0 C-0.5 1.875 -0.5 1.875 -2 4 C-3.84375 4.5703125 -3.84375 4.5703125 -6 5 C-8.13209198 5.38680034 -8.13209198 5.38680034 -10 6 C-11.28436734 7.9837767 -11.28436734 7.9837767 -12 10 C-14.125 10.75 -14.125 10.75 -16 11 C-16.66 10.01 -17.32 9.02 -18 8 C-16.3603125 7.38125 -16.3603125 7.38125 -14.6875 6.75 C-11.39397811 5.35734846 -10.0743439 3.92293913 -8 1 C-4.63464881 -0.76680938 -3.67882528 -1.22627509 0 0 Z " fill="#E2C0AE" transform="translate(323,234)"/>
<path d="M0 0 C4.62 0.66 9.24 1.32 14 2 C13.01 2.495 13.01 2.495 12 3 C12 3.66 12 4.32 12 5 C14.31 5.33 16.62 5.66 19 6 C19 6.33 19 6.66 19 7 C17.08496326 7.22281874 15.16783494 7.42771076 13.25 7.625 C12.18265625 7.74101562 11.1153125 7.85703125 10.015625 7.9765625 C6.96207601 8.00029475 5.53837579 7.61420985 3 6 C3 5.34 3 4.68 3 4 C3.66 3.67 4.32 3.34 5 3 C2.525 2.01 2.525 2.01 0 1 C0 0.67 0 0.34 0 0 Z " fill="#E3A696" transform="translate(250,139)"/>
<path d="M0 0 C2.31304348 7.30434783 2.31304348 7.30434783 0.875 10.5 C-1 12 -1 12 -5 12 C-5 8.7 -5 5.4 -5 2 C-1 0 -1 0 0 0 Z " fill="#F9C7BA" transform="translate(323,146)"/>
<path d="M0 0 C0.66 0 1.32 0 2 0 C2.5775 0.598125 3.155 1.19625 3.75 1.8125 C6.28586216 4.27792155 8.7974694 5.54430427 12 7 C11.01 8.485 11.01 8.485 10 10 C7.5 8.625 7.5 8.625 5 7 C5 6.34 5 5.68 5 5 C2.2289312 7.34591852 1.47940716 9.14776201 0.8125 12.6875 C0.65394531 13.49574219 0.49539062 14.30398437 0.33203125 15.13671875 C0.22246094 15.75160156 0.11289063 16.36648437 0 17 C-0.28617188 16.35546875 -0.57234375 15.7109375 -0.8671875 15.046875 C-1.81418662 12.80115872 -1.81418662 12.80115872 -4.125 12.25 C-4.74375 12.1675 -5.3625 12.085 -6 12 C-5.195625 11.690625 -4.39125 11.38125 -3.5625 11.0625 C-0.83888394 9.29423085 -0.83888394 9.29423085 -0.4453125 6.796875 C-0.20962327 4.52568784 -0.05263436 2.28241731 0 0 Z " fill="#ECB4A9" transform="translate(161,131)"/>
<path d="M0 0 C2.9375 1.1875 2.9375 1.1875 6 3 C6.875 5.6875 6.875 5.6875 7 8 C2.56923077 10.09230769 2.56923077 10.09230769 -0.3125 9.625 C-0.869375 9.41875 -1.42625 9.2125 -2 9 C-1.34 9 -0.68 9 0 9 C0 8.01 0 7.02 0 6 C-0.66 6 -1.32 6 -2 6 C-1.34 4.02 -0.68 2.04 0 0 Z " fill="#ECB0A1" transform="translate(306,125)"/>
<path d="M0 0 C-0.125 1.8125 -0.125 1.8125 -1 4 C-1.969375 4.45375 -2.93875 4.9075 -3.9375 5.375 C-7.28221042 6.74062444 -7.28221042 6.74062444 -8.375 10.1875 C-8.58125 11.115625 -8.7875 12.04375 -9 13 C-10.32 12.34 -11.64 11.68 -13 11 C-12.9375 8.8125 -12.9375 8.8125 -12 6 C-8.64169991 2.88342845 -4.73857215 0 0 0 Z " fill="#E5B1A4" transform="translate(196,118)"/>
<path d="M0 0 C0 2.33333333 0 4.66666667 0 7 C-4.29 7.66 -8.58 8.32 -13 9 C-12.67 7.35 -12.34 5.7 -12 4 C-9.69 4.33 -7.38 4.66 -5 5 C-4.731875 4.360625 -4.46375 3.72125 -4.1875 3.0625 C-3 1 -3 1 0 0 Z " fill="#936930" transform="translate(149,341)"/>
<path d="M0 0 C0.66 0.33 1.32 0.66 2 1 C0.62714844 1.70576172 0.62714844 1.70576172 -0.7734375 2.42578125 C-1.97416738 3.05428829 -3.1746768 3.68321663 -4.375 4.3125 C-4.97828125 4.62123047 -5.5815625 4.92996094 -6.203125 5.24804688 C-9.38258325 6.92609428 -10.96537552 7.94806328 -13 11 C-13.66 11 -14.32 11 -15 11 C-15.33 8.69 -15.66 6.38 -16 4 C-11.59815951 1.86196319 -11.59815951 1.86196319 -8.5625 2.5625 C-4.98856053 3.17268479 -3.12364704 1.66594509 0 0 Z " fill="#EBCBB9" transform="translate(309,324)"/>
<path d="M0 0 C1.04474487 0.08640747 1.04474487 0.08640747 2.1105957 0.17456055 C2.86791992 0.2293457 3.62524414 0.28413086 4.40551758 0.34057617 C5.19120117 0.4134082 5.97688477 0.48624023 6.78637695 0.5612793 C7.58366211 0.62250977 8.38094727 0.68374023 9.20239258 0.74682617 C11.16904648 0.89991899 13.13416685 1.07248639 15.09887695 1.2487793 C14.76887695 2.2387793 14.43887695 3.2287793 14.09887695 4.2487793 C7.6819902 4.35227747 1.47193293 3.99385473 -4.90112305 3.2487793 C-2.45543683 0.32131631 -2.45543683 0.32131631 0 0 Z " fill="#F2B5A7" transform="translate(270.901123046875,115.751220703125)"/>
<path d="M0 0 C2 0 2 0 3.625 1.5 C4.07875 1.995 4.5325 2.49 5 3 C5.33 2.34 5.66 1.68 6 1 C6 2.65 6 4.3 6 6 C4.68 6.33 3.36 6.66 2 7 C2 7.66 2 8.32 2 9 C-0.31 9.33 -2.62 9.66 -5 10 C-4.34 8.35 -3.68 6.7 -3 5 C-2.34 5 -1.68 5 -1 5 C-0.67 3.35 -0.34 1.7 0 0 Z " fill="#956731" transform="translate(164,385)"/>
<path d="M0 0 C0 0.66 0 1.32 0 2 C1.32 1.67 2.64 1.34 4 1 C4 2.32 4 3.64 4 5 C-1.11111111 9 -1.11111111 9 -4 9 C-3.67 7.02 -3.34 5.04 -3 3 C-4.32 2.67 -5.64 2.34 -7 2 C-2.25 0 -2.25 0 0 0 Z " fill="#DEB9A5" transform="translate(327,226)"/>
<path d="M0 0 C2.64 0.33 5.28 0.66 8 1 C8 1.66 8 2.32 8 3 C6.54293274 3.50367757 5.08429904 4.00282556 3.625 4.5 C2.40683594 4.91765625 2.40683594 4.91765625 1.1640625 5.34375 C-1 6 -1 6 -3 6 C-3.66 7.32 -4.32 8.64 -5 10 C-5.99 9.67 -6.98 9.34 -8 9 C-8 7.68 -8 6.36 -8 5 C-5.03312999 3.35173889 -2.34373475 2.55728913 1 2 C0.67 1.34 0.34 0.68 0 0 Z " fill="#AF906D" transform="translate(143,348)"/>
<path d="M0 0 C2.9719385 1.12451727 5.33440687 2.22293791 8 4 C7.67 4.66 7.34 5.32 7 6 C6.34 6 5.68 6 5 6 C4.34 9.63 3.68 13.26 3 17 C2.67 17 2.34 17 2 17 C-0.29612756 5.47835991 -0.29612756 5.47835991 0 0 Z " fill="#D6B4A7" transform="translate(162,218)"/>
<path d="M0 0 C1.58624235 0.42683239 3.1689098 0.86696158 4.75 1.3125 C6.07257813 1.67794922 6.07257813 1.67794922 7.421875 2.05078125 C10.05772505 3.02125331 11.85407326 4.21005644 14 6 C13.6875 7.9375 13.6875 7.9375 13 10 C12.01 10.33 11.02 10.66 10 11 C9.92910156 10.38640625 9.85820312 9.7728125 9.78515625 9.140625 C9.1849879 6.81931552 9.1849879 6.81931552 6.93359375 5.734375 C5.69802734 5.24710937 5.69802734 5.24710937 4.4375 4.75 C3.61121094 4.41484375 2.78492188 4.0796875 1.93359375 3.734375 C1.29550781 3.49203125 0.65742188 3.2496875 0 3 C0 2.01 0 1.02 0 0 Z " fill="#DEABA0" transform="translate(305,121)"/>
<path d="M0 0 C2.64 0 5.28 0 8 0 C8.33 0.99 8.66 1.98 9 3 C10.65 3.33 12.3 3.66 14 4 C10.65060119 6.02558881 8.13037449 6.21738987 4.25 6.125 C3.26515625 6.10695313 2.2803125 6.08890625 1.265625 6.0703125 C0.14414063 6.03550781 0.14414063 6.03550781 -1 6 C-0.01 4.68 0.98 3.36 2 2 C1.34 1.34 0.68 0.68 0 0 Z " fill="#E4A898" transform="translate(215,114)"/>
<path d="M0 0 C0 1.98 0 3.96 0 6 C-1.32 6 -2.64 6 -4 6 C-4 6.99 -4 7.98 -4 9 C-4.66 9 -5.32 9 -6 9 C-7.00259507 12.00778521 -7.30314642 14.53820647 -7.5625 17.6875 C-7.64628906 18.68136719 -7.73007813 19.67523438 -7.81640625 20.69921875 C-7.87699219 21.45847656 -7.93757812 22.21773438 -8 23 C-8.33 23 -8.66 23 -9 23 C-9.37763197 14.35642378 -9.4379486 8.76537227 -3.375 2.125 C-1 0 -1 0 0 0 Z " fill="#A38663" transform="translate(159,369)"/>
<path d="M0 0 C0.66 0.33 1.32 0.66 2 1 C0.03681826 4.53372712 -2.04070881 7.24479785 -5 10 C-7.475 6.04 -7.475 6.04 -10 2 C-9.34 1.67 -8.68 1.34 -8 1 C-8 1.66 -8 2.32 -8 3 C-4.95613276 3.08226668 -2.92824652 2.97608217 0 2 C0 1.34 0 0.68 0 0 Z " fill="#D84B45" transform="translate(225,303)"/>
<path d="M0 0 C1.875 2.375 1.875 2.375 3 5 C2.67 5.66 2.34 6.32 2 7 C0.35 5.35 -1.3 3.7 -3 2 C-2.360625 2.804375 -1.72125 3.60875 -1.0625 4.4375 C1.59852326 8.35851307 1.79406347 12.36642801 2 17 C1.67 17 1.34 17 1 17 C0.85304688 16.33613281 0.70609375 15.67226562 0.5546875 14.98828125 C-1.04735782 8.68137871 -2.55916436 5.62722376 -8 2 C-4.78697711 -0.14201526 -3.73290719 -0.65325876 0 0 Z " fill="#FCD6C9" transform="translate(347,154)"/>
<path d="M0 0 C3 1 3 1 4 3 C4.66 2.67 5.32 2.34 6 2 C9.07692308 6.43076923 9.07692308 6.43076923 8.6875 9.3125 C8.460625 9.869375 8.23375 10.42625 8 11 C5.6875 10.5625 5.6875 10.5625 3 9 C1.63924116 6.09244107 0.78637041 3.10712212 0 0 Z " fill="#FADED9" transform="translate(189,356)"/>
<path d="M0 0 C8.91 0 17.82 0 27 0 C26.34 2.31 25.68 4.62 25 7 C24.01 7.495 24.01 7.495 23 8 C23.33 5.69 23.66 3.38 24 1 C20.54133208 1.13850705 17.08316725 1.28704727 13.625 1.4375 C12.14773437 1.49647461 12.14773437 1.49647461 10.640625 1.55664062 C9.22910156 1.61948242 9.22910156 1.61948242 7.7890625 1.68359375 C6.91975098 1.72025146 6.05043945 1.75690918 5.15478516 1.79467773 C2.9516738 1.87401544 2.9516738 1.87401544 1 3 C0.67 2.01 0.34 1.02 0 0 Z " fill="#CF4D45" transform="translate(207,290)"/>
<path d="M0 0 C7.67028737 0.62915097 15.33667323 1.29099142 23 2 C22.67 2.66 22.34 3.32 22 4 C19.08302989 3.85895309 16.1665198 3.71235186 13.25 3.5625 C12.0125 3.50352539 12.0125 3.50352539 10.75 3.44335938 C9.55117187 3.38051758 9.55117187 3.38051758 8.328125 3.31640625 C7.5949707 3.27974854 6.86181641 3.24309082 6.10644531 3.20532227 C3.98822395 2.99885215 2.0480544 2.56867914 0 2 C0 1.34 0 0.68 0 0 Z " fill="#764C3F" transform="translate(206,144)"/>
<path d="M0 0 C0.33 0 0.66 0 1 0 C1.33 2.64 1.66 5.28 2 8 C1.34 8 0.68 8 0 8 C0 10.31 0 12.62 0 15 C-0.66 15 -1.32 15 -2 15 C-1.67 11.7 -1.34 8.4 -1 5 C-2.98 5.99 -2.98 5.99 -5 7 C-5.66 6.34 -6.32 5.68 -7 5 C-6.030625 4.360625 -5.06125 3.72125 -4.0625 3.0625 C-1.23963731 1.3034741 -1.23963731 1.3034741 0 0 Z " fill="#E9BBAE" transform="translate(339,133)"/>
<path d="M0 0 C4.95 0.99 4.95 0.99 10 2 C6.91709845 6.22797927 6.91709845 6.22797927 5 8 C2.1875 8.375 2.1875 8.375 0 8 C0.37125 7.236875 0.7425 6.47375 1.125 5.6875 C1.41375 4.800625 1.7025 3.91375 2 3 C1.34 2.01 0.68 1.02 0 0 Z " fill="#EDAD9F" transform="translate(202,136)"/>
<path d="M0 0 C9.03256872 0.17902388 16.87258533 1.95519363 25 6 C25.33 6.66 25.66 7.32 26 8 C25.195625 7.74476562 25.195625 7.74476562 24.375 7.484375 C16.3301063 4.99680919 8.17666464 2.99851481 0 1 C0 0.67 0 0.34 0 0 Z " fill="#693E32" transform="translate(291,117)"/>
<path d="M0 0 C0.33 0.66 0.66 1.32 1 2 C0.06421005 4.35981813 -0.93347808 6.69631264 -2 9 C-1.34 8.67 -0.68 8.34 0 8 C1.99960012 7.960008 4.00047242 7.95653201 6 8 C3.09907498 9.93395001 2.10325263 10.30131941 -1.1875 10.625 C-2.445625 10.74875 -3.70375 10.8725 -5 11 C-4.54663921 6.12637153 -3.2910841 3.60957611 0 0 Z " fill="#987A56" transform="translate(138,341)"/>
<path d="M0 0 C0.99 0.495 0.99 0.495 2 1 C2 1.66 2 2.32 2 3 C2.66 3 3.32 3 4 3 C7 8.75 7 8.75 7 11 C4.69 11 2.38 11 0 11 C0.66 10.34 1.32 9.68 2 9 C1.80109544 6.76655935 1.80109544 6.76655935 1.125 4.375 C0.92132813 3.55773437 0.71765625 2.74046875 0.5078125 1.8984375 C0.34023437 1.27195312 0.17265625 0.64546875 0 0 Z " fill="#458DD2" transform="translate(242,303)"/>
<path d="M0 0 C0.99 0.33 1.98 0.66 3 1 C3 1.66 3 2.32 3 3 C3.99 2.67 4.98 2.34 6 2 C6.5745952 5.73486879 7 9.21293268 7 13 C0 4.25 0 4.25 0 0 Z " fill="#E14A2B" transform="translate(257,275)"/>
<path d="M0 0 C0.33 0 0.66 0 1 0 C1.33 2.31 1.66 4.62 2 7 C1.01 6.67 0.02 6.34 -1 6 C-1 6.99 -1 7.98 -1 9 C-2.31471568 8.71848913 -3.62675767 8.42446661 -4.9375 8.125 C-5.66839844 7.96257812 -6.39929688 7.80015625 -7.15234375 7.6328125 C-9 7 -9 7 -10 5 C-8.576875 5.0928125 -8.576875 5.0928125 -7.125 5.1875 C-5.578125 5.0946875 -5.578125 5.0946875 -4 5 C-3.34 4.01 -2.68 3.02 -2 2 C-1.34 2 -0.68 2 0 2 C0 1.34 0 0.68 0 0 Z " fill="#F8C0B1" transform="translate(180,126)"/>
<path d="M0 0 C0.33 0 0.66 0 1 0 C1.52992381 2.76937583 2.0492458 5.54003079 2.5625 8.3125 C2.71396484 9.09818359 2.86542969 9.88386719 3.02148438 10.69335938 C3.16005859 11.45068359 3.29863281 12.20800781 3.44140625 12.98828125 C3.57232666 13.68477783 3.70324707 14.38127441 3.83813477 15.09887695 C4 17 4 17 3 20 C0.28074456 13.73388963 -0.95177973 7.85933285 -1 1 C-0.67 0.67 -0.34 0.34 0 0 Z " fill="#D2B5A9" transform="translate(179,303)"/>
<path d="M0 0 C1.32 0.66 2.64 1.32 4 2 C3.67 2.66 3.34 3.32 3 4 C1.68 4 0.36 4 -1 4 C-1 5.65 -1 7.3 -1 9 C-1.66 9 -2.32 9 -3 9 C-2.67 10.65 -2.34 12.3 -2 14 C-3.65 14.66 -5.3 15.32 -7 16 C-5.01095551 10.43067543 -2.71970716 5.25184831 0 0 Z " fill="#5F7EC7" transform="translate(234,290)"/>
<path d="M0 0 C0.33 0 0.66 0 1 0 C1.1953125 2.01822917 1.390625 4.03645833 1.5859375 6.0546875 C1.86374749 8.22668245 1.86374749 8.22668245 4 10 C4.66 10.66 5.32 11.32 6 12 C4.73581754 12.69965443 3.46334598 13.38434763 2.1875 14.0625 C1.47980469 14.44535156 0.77210938 14.82820312 0.04296875 15.22265625 C-2 16 -2 16 -5 15 C-4.35546875 14.63261719 -3.7109375 14.26523438 -3.046875 13.88671875 C-0.24445365 11.30357082 -0.41106993 9.55737589 -0.25 5.8125 C-0.19328125 4.72582031 -0.1365625 3.63914063 -0.078125 2.51953125 C-0.05234375 1.68808594 -0.0265625 0.85664063 0 0 Z " fill="#DCA397" transform="translate(340,141)"/>
<path d="M0 0 C4.83628305 0.99043705 9.47618873 1.95698846 14 4 C14 4.66 14 5.32 14 6 C6.66666667 6.36666667 6.66666667 6.36666667 3.5 4.625 C2 3 2 3 2 1 C1.34 0.67 0.68 0.34 0 0 Z " fill="#EFBBB3" transform="translate(316,118)"/>
<path d="M0 0 C1.32 0 2.64 0 4 0 C5.06775224 1.96466413 6.06553465 3.96855359 7 6 C6.67 6.66 6.34 7.32 6 8 C5.34 7.67 4.68 7.34 4 7 C3.34 7.66 2.68 8.32 2 9 C0.14223235 5.86501708 -0.20140476 3.62528568 0 0 Z " fill="#EACBBB" transform="translate(182,285)"/>
<path d="M0 0 C2 2 2 2 4 5 C-0.75 8 -0.75 8 -3 8 C-3.33 5.69 -3.66 3.38 -4 1 C-2 0 -2 0 0 0 Z " fill="#916832" transform="translate(118,367)"/>
<path d="M0 0 C4.43458973 1.3937282 6.87378374 3.60582235 10 7 C9.67 7.66 9.34 8.32 9 9 C7.68 7.68 6.36 6.36 5 5 C2.66924071 5.95865509 2.66924071 5.95865509 1 9 C0 8 0 8 -0.09765625 6.15234375 C-0.06510417 4.1015625 -0.03255208 2.05078125 0 0 Z " fill="#EDBEB1" transform="translate(341,141)"/>
<path d="M0 0 C0.66 0 1.32 0 2 0 C2.433125 1.11375 2.86625 2.2275 3.3125 3.375 C4.69911119 7.17512334 4.69911119 7.17512334 8 9 C8 10.32 8 11.64 8 13 C8.66 13 9.32 13 10 13 C9.67 14.32 9.34 15.64 9 17 C9 16.34 9 15.68 9 15 C8.34 15 7.68 15 7 15 C5.52734375 12.98828125 5.52734375 12.98828125 3.9375 10.3125 C3.41027344 9.44238281 2.88304687 8.57226562 2.33984375 7.67578125 C1.03288263 5.0656694 0.41943514 2.87390743 0 0 Z " fill="#3C9E80" transform="translate(237,291)"/>
<path d="M0 0 C0.33 0.99 0.66 1.98 1 3 C0.01 3.66 -0.98 4.32 -2 5 C-2.73606499 8.56769552 -2.73606499 8.56769552 -3 12 C-3.66 11.67 -4.32 11.34 -5 11 C-5 7.7 -5 4.4 -5 1 C-3 0 -3 0 0 0 Z " fill="#B77F6D" transform="translate(166,140)"/>
<path d="M0 0 C1.65 0 3.3 0 5 0 C6.43088528 2.86177057 5.59991697 4.93375773 5 8 C2.0625 7.1875 2.0625 7.1875 -1 6 C-1.33 5.01 -1.66 4.02 -2 3 C-1.34 2.67 -0.68 2.34 0 2 C0 1.34 0 0.68 0 0 Z " fill="#AD8F6B" transform="translate(153,389)"/>
<path d="M0 0 C0.99 0.33 1.98 0.66 3 1 C3 2.65 3 4.3 3 6 C-6.22551253 11.74031891 -6.22551253 11.74031891 -12 11 C-9 9 -9 9 -6.4375 8.0625 C-3.69495947 7.12861682 -3.69495947 7.12861682 -2 4 C-1.67 4.66 -1.34 5.32 -1 6 C-0.34 5.67 0.32 5.34 1 5 C0.67 3.35 0.34 1.7 0 0 Z " fill="#5A3525" transform="translate(317,125)"/>
<path d="M0 0 C1.1446875 -0.00515625 2.289375 -0.0103125 3.46875 -0.015625 C6.5 0.25 6.5 0.25 9.5 2.25 C8.46875 2.20875 7.4375 2.1675 6.375 2.125 C2.63170373 2.24575149 -0.03734547 2.89872018 -3.5 4.25 C-3.17 3.26 -2.84 2.27 -2.5 1.25 C-4.81 1.58 -7.12 1.91 -9.5 2.25 C-5.92878282 -0.13081145 -4.23325367 -0.01906871 0 0 Z " fill="#A78860" transform="translate(152.5,335.75)"/>
<path d="M0 0 C0.721875 0.103125 1.44375 0.20625 2.1875 0.3125 C0.66543991 2.94151288 -0.65615964 5.15615964 -2.8125 7.3125 C-5.2875 6.3225 -5.2875 6.3225 -7.8125 5.3125 C-3.50480769 0.38942308 -3.50480769 0.38942308 0 0 Z " fill="#ECAEA0" transform="translate(220.8125,138.6875)"/>
<path d="M0 0 C0.33 0 0.66 0 1 0 C1.33 3.3 1.66 6.6 2 10 C0.68 9.67 -0.64 9.34 -2 9 C-2 6.69 -2 4.38 -2 2 C-1.34 2 -0.68 2 0 2 C0 1.34 0 0.68 0 0 Z " fill="#926A38" transform="translate(140,370)"/>
<path d="M0 0 C1.9375 0.75 1.9375 0.75 4 2 C4.6875 3.875 4.6875 3.875 5 6 C5.226875 6.70125 5.45375 7.4025 5.6875 8.125 C5.790625 8.74375 5.89375 9.3625 6 10 C5.34 10.66 4.68 11.32 4 12 C3.9175 11.401875 3.835 10.80375 3.75 10.1875 C2.79544128 7.4033704 1.42867729 6.56688858 -1 5 C-0.34 5 0.32 5 1 5 C0.67 3.35 0.34 1.7 0 0 Z " fill="#AE997D" transform="translate(162,338)"/>
<path d="M0 0 C1.47968324 0.14049518 2.95874516 0.28754826 4.4375 0.4375 C5.67306641 0.55931641 5.67306641 0.55931641 6.93359375 0.68359375 C9 1 9 1 10 2 C11.34747084 2.23075082 12.70377565 2.41153063 14.0625 2.5625 C15.361875 2.706875 16.66125 2.85125 18 3 C18 3.33 18 3.66 18 4 C5.33029613 4.55353075 5.33029613 4.55353075 0 1 C0 0.67 0 0.34 0 0 Z " fill="#9F845E" transform="translate(121,382)"/>
<path d="M0 0 C0 4 0 4 -1.5 5.75 C-1.995 6.1625 -2.49 6.575 -3 7 C-3 5.35 -3 3.7 -3 2 C-3.61875 2.20625 -4.2375 2.4125 -4.875 2.625 C-5.57625 2.74875 -6.2775 2.8725 -7 3 C-7.66 2.34 -8.32 1.68 -9 1 C-6.04335481 -0.4783226 -3.25770263 -0.06032783 0 0 Z " fill="#A18764" transform="translate(171,365)"/>
<path d="M0 0 C0.66 0 1.32 0 2 0 C1.01 5.61 0.02 11.22 -1 17 C-1.33 17 -1.66 17 -2 17 C-2.11116338 11.55299453 -2.00581962 6.36437132 -1 1 C-0.67 0.67 -0.34 0.34 0 0 Z " fill="#D1BBAE" transform="translate(328,272)"/>
<path d="M0 0 C3.31867235 2.8208715 5.1539589 6.10280211 7 10 C6.25 12.4375 6.25 12.4375 5 14 C4.28385417 12.27473958 3.56770833 10.54947917 2.8515625 8.82421875 C1.93193308 6.73466068 1.93193308 6.73466068 0 4 C0 2.68 0 1.36 0 0 Z " fill="#FCA927" transform="translate(252,269)"/>
<path d="M0 0 C4.55384615 -0.36923077 4.55384615 -0.36923077 6.8125 1.5 C7.204375 1.995 7.59625 2.49 8 3 C7.34 4.32 6.68 5.64 6 7 C5.01 7 4.02 7 3 7 C2.690625 6.21625 2.38125 5.4325 2.0625 4.625 C1.07124962 2.07669872 1.07124962 2.07669872 0 0 Z " fill="#F0B7AC" transform="translate(330,125)"/>
<path d="M0 0 C0.66 0.66 1.32 1.32 2 2 C-0.64 2.66 -3.28 3.32 -6 4 C-6 4.66 -6 5.32 -6 6 C-7.65 5.67 -9.3 5.34 -11 5 C-10.67 3.68 -10.34 2.36 -10 1 C-7.98177083 1.03255208 -5.96354167 1.06510417 -3.9453125 1.09765625 C-1.91814596 1.12649242 -1.91814596 1.12649242 0 0 Z " fill="#DCA799" transform="translate(327,156)"/>
<path d="M0 0 C0.33 0 0.66 0 1 0 C1.10477512 5.78591511 0.99250545 11.29309366 0 17 C-0.2475 16.360625 -0.495 15.72125 -0.75 15.0625 C-1.81562433 12.81258459 -1.81562433 12.81258459 -4.125 12.25 C-4.74375 12.1675 -5.3625 12.085 -6 12 C-5.195625 11.690625 -4.39125 11.38125 -3.5625 11.0625 C-0.83888394 9.29423085 -0.83888394 9.29423085 -0.4453125 6.796875 C-0.20962327 4.52568784 -0.05263436 2.28241731 0 0 Z " fill="#E8C3BA" transform="translate(161,131)"/>
<path d="M0 0 C0.66 0.33 1.32 0.66 2 1 C0.68 3.31 -0.64 5.62 -2 8 C-2.66 8 -3.32 8 -4 8 C-4 8.66 -4 9.32 -4 10 C-4.66 10 -5.32 10 -6 10 C-6.33 10.66 -6.66 11.32 -7 12 C-6.67 10.35 -6.34 8.7 -6 7 C-5.01 7 -4.02 7 -3 7 C-2.690625 6.030625 -2.38125 5.06125 -2.0625 4.0625 C-1 1 -1 1 0 0 Z " fill="#E04539" transform="translate(229,295)"/>
<path d="M0 0 C1.98 0.99 3.96 1.98 6 3 C6 3.99 6 4.98 6 6 C4.02 6 2.04 6 0 6 C0 4.02 0 2.04 0 0 Z " fill="#9B754E" transform="translate(135,379)"/>
<path d="M0 0 C-0.33 0.99 -0.66 1.98 -1 3 C-2.75 3.625 -2.75 3.625 -5 4 C-5.9075 4.185625 -6.815 4.37125 -7.75 4.5625 C-8.4925 4.706875 -9.235 4.85125 -10 5 C-10 4.01 -10 3.02 -10 2 C-3.375 0 -3.375 0 0 0 Z " fill="#9B7548" transform="translate(150,337)"/>
<path d="M0 0 C2.61500768 2.36595933 4.38999603 4.86049226 6 8 C5.67 8.66 5.34 9.32 5 10 C4.01 10 3.02 10 2 10 C0.68373308 6.38026598 0 3.90432869 0 0 Z " fill="#E0A288" transform="translate(210,297)"/>
<path d="M0 0 C1.77706209 2.66559313 2.87548273 5.0280615 4 8 C0.75791433 7.64950425 -0.61527704 7.43778819 -2.8125 4.9375 C-3.4003125 3.9784375 -3.4003125 3.9784375 -4 3 C-3.01 3 -2.02 3 -1 3 C-0.67 2.01 -0.34 1.02 0 0 Z " fill="#EDBBB1" transform="translate(157,176)"/>
<path d="M0 0 C0.66 0 1.32 0 2 0 C2.99 2.31 3.98 4.62 5 7 C4.34 7 3.68 7 3 7 C3 6.01 3 5.02 3 4 C1.68 4.33 0.36 4.66 -1 5 C-1 5.66 -1 6.32 -1 7 C-1.66 6.67 -2.32 6.34 -3 6 C-2.01 4.02 -1.02 2.04 0 0 Z " fill="#6D7EC6" transform="translate(278,265)"/>
<path d="M0 0 C0.66 0 1.32 0 2 0 C1.67 2.31 1.34 4.62 1 7 C-0.65 6.67 -2.3 6.34 -4 6 C-4 5.34 -4 4.68 -4 4 C-3.34 4 -2.68 4 -2 4 C-2 3.34 -2 2.68 -2 2 C-1.34 2 -0.68 2 0 2 C0 1.34 0 0.68 0 0 Z " fill="#936932" transform="translate(136,368)"/>
<path d="M0 0 C4 1.33333333 8 2.66666667 12 4 C11.67 4.66 11.34 5.32 11 6 C10.113125 5.67 9.22625 5.34 8.3125 5 C5.29076653 4.08777857 3.11626294 3.81669042 0 4 C-0.33 3.34 -0.66 2.68 -1 2 C-0.67 1.34 -0.34 0.68 0 0 Z " fill="#E9B0A2" transform="translate(166,156)"/>
<path d="M0 0 C0.66 0 1.32 0 2 0 C1 3 1 3 -1.75 4.6875 C-4.85020705 5.93950669 -6.71671912 6.28970125 -10 6 C-7.35603236 3.35603236 -4.42496181 2.43225676 -1 1 C-0.67 0.67 -0.34 0.34 0 0 Z " fill="#FEE7E2" transform="translate(302,365)"/>
<path d="M0 0 C0.66 0 1.32 0 2 0 C0.82744291 3.33727786 -0.18868404 5.77437487 -3 8 C-3.66 8 -4.32 8 -5 8 C-5 7.01 -5 6.02 -5 5 C-4.01 5 -3.02 5 -2 5 C-1.7834375 4.0409375 -1.7834375 4.0409375 -1.5625 3.0625 C-1 1 -1 1 0 0 Z " fill="#A08864" transform="translate(164,350)"/>
<path d="M0 0 C0.33 0.66 0.66 1.32 1 2 C-0.375 3.5 -0.375 3.5 -2 5 C-2.66 5 -3.32 5 -4 5 C-4 4.34 -4 3.68 -4 3 C-5.98 3 -7.96 3 -10 3 C-10 2.67 -10 2.34 -10 2 C-6.7 1.34 -3.4 0.68 0 0 Z " fill="#EAADA0" transform="translate(316,162)"/>
<path d="M0 0 C1.65 0 3.3 0 5 0 C5.66 1.65 6.32 3.3 7 5 C5.35 5 3.7 5 2 5 C1.34 3.35 0.68 1.7 0 0 Z " fill="#A78860" transform="translate(129,374)"/>
<path d="M0 0 C0.99 0.66 1.98 1.32 3 2 C2.67 2.99 2.34 3.98 2 5 C-0.0625 5.6875 -0.0625 5.6875 -2 6 C-2.33 4.35 -2.66 2.7 -3 1 C-2.01 0.67 -1.02 0.34 0 0 Z " fill="#A4855F" transform="translate(129,369)"/>
<path d="M0 0 C1.65 0 3.3 0 5 0 C4.34 1.65 3.68 3.3 3 5 C2.01 4.67 1.02 4.34 0 4 C0 2.68 0 1.36 0 0 Z " fill="#987D5B" transform="translate(135,353)"/>
<path d="M0 0 C0.99 0.99 1.98 1.98 3 3 C1.68 4.32 0.36 5.64 -1 7 C-2 4 -2 4 -1.0625 1.8125 C-0.5365625 0.9153125 -0.5365625 0.9153125 0 0 Z " fill="#4A9F63" transform="translate(250,307)"/>
</svg>
