<?xml version="1.0" standalone="no"?>
<!DOCTYPE svg PUBLIC "-//W3C//DTD SVG 20010904//EN"
 "http://www.w3.org/TR/2001/REC-SVG-20010904/DTD/svg10.dtd">
<svg version="1.0" xmlns="http://www.w3.org/2000/svg"
 width="562.000000pt" height="659.000000pt" viewBox="0 0 562.000000 659.000000"
 preserveAspectRatio="xMidYMid meet">

<g transform="translate(0.000000,659.000000) scale(0.100000,-0.100000)"
fill="#000000" stroke="none">
<path d="M3424 6360 c0 -69 1 -106 3 -82 5 53 21 54 51 1 13 -22 26 -39 28
-36 3 2 -5 21 -17 42 l-23 38 23 41 22 41 -25 -30 c-14 -16 -26 -33 -26 -37 0
-5 -7 -8 -15 -8 -11 0 -15 18 -18 78 -2 44 -3 23 -3 -48z"/>
<path d="M1624 6350 c0 -63 1 -89 3 -57 2 31 2 83 0 115 -2 31 -3 5 -3 -58z"/>
<path d="M1756 6397 c-22 -16 -32 -91 -17 -129 9 -24 16 -28 48 -27 l38 2 -35
6 c-28 5 -36 12 -43 38 -5 17 -6 48 -3 67 7 35 17 42 55 37 7 -2 10 2 6 8 -8
15 -27 14 -49 -2z"/>
<path d="M1865 6400 c-18 -9 -18 -9 5 -8 53 3 60 -1 60 -32 0 -27 -3 -30 -33
-30 -38 0 -57 -15 -57 -45 0 -27 18 -45 46 -45 49 0 54 8 54 81 0 57 -3 70
-19 79 -23 12 -29 12 -56 0z m63 -112 c-3 -29 -7 -33 -34 -36 -34 -3 -49 16
-39 49 5 14 16 19 41 19 34 0 35 -1 32 -32z"/>
<path d="M2020 6401 c-8 -6 -18 -7 -22 -5 -4 3 -7 -32 -6 -78 1 -61 3 -69 5
-28 5 79 10 97 32 103 36 9 50 -13 54 -88 l3 -70 2 77 c2 67 0 79 -17 88 -24
12 -32 12 -51 1z"/>
<path d="M2208 6399 c-11 -6 -18 -22 -18 -40 0 -30 3 -32 53 -44 24 -5 28 -10
25 -33 -3 -23 -9 -28 -43 -33 l-40 -6 42 -2 c38 -1 43 2 49 26 9 34 -6 57 -42
63 -23 4 -30 11 -32 33 -3 28 5 32 53 29 16 -2 17 0 5 8 -19 12 -30 12 -52 -1z"/>
<path d="M2330 6390 c-22 -22 -27 -81 -10 -124 8 -23 15 -26 52 -24 l43 1 -38
4 c-30 3 -40 10 -48 29 -13 36 -4 44 46 44 l45 0 -6 33 c-11 55 -49 72 -84 37z
m70 -31 c0 -27 -2 -29 -41 -29 -38 0 -41 2 -35 23 3 12 6 25 6 29 0 9 31 15
53 10 11 -3 17 -14 17 -33z"/>
<path d="M2480 6403 c-8 -3 -18 -11 -22 -17 -12 -18 -9 -121 4 -134 7 -7 30
-11 53 -10 40 1 40 1 5 5 -44 6 -60 19 -60 49 0 22 4 24 45 24 45 0 45 0 45
35 0 44 -29 63 -70 48z m41 -13 c11 -6 19 -21 19 -35 0 -22 -4 -25 -40 -25
-36 0 -40 3 -40 25 0 13 8 29 18 34 21 13 20 13 43 1z"/>
<path d="M2685 6401 c-11 -5 -23 -7 -27 -4 -5 2 -7 -33 -7 -79 l2 -83 7 69 c7
74 24 98 60 89 17 -5 20 -15 22 -82 l2 -76 3 75 c3 62 1 77 -13 87 -20 15 -21
15 -49 4z"/>
<path d="M2816 6397 c-14 -10 -16 -25 -14 -82 l3 -70 39 -3 c49 -4 56 6 56 86
0 58 -2 63 -26 72 -33 13 -37 13 -58 -3z m58 -10 c14 -10 17 -25 14 -72 l-3
-60 -35 0 -35 0 -3 67 c-3 68 -3 68 39 77 3 0 13 -5 23 -12z"/>
<path d="M3212 6400 c-21 -9 -23 -15 -20 -82 l3 -73 45 0 45 0 3 70 c2 57 0
72 -14 82 -20 15 -30 15 -62 3z m52 -13 c14 -10 17 -25 14 -72 l-3 -60 -35 0
-35 0 -3 60 c-3 47 0 62 14 72 10 7 21 13 24 13 3 0 14 -6 24 -13z"/>
<path d="M3363 6398 c-21 -10 -23 -17 -21 -87 1 -63 2 -67 5 -21 4 77 11 100
28 100 8 0 15 5 15 10 0 12 1 12 -27 -2z"/>
<path d="M3558 6399 c-11 -6 -18 -22 -18 -40 0 -30 3 -32 53 -44 24 -5 28 -10
25 -33 -3 -23 -9 -28 -43 -33 l-40 -6 42 -2 c38 -1 43 2 49 26 9 34 -6 57 -42
63 -23 4 -30 11 -32 33 -3 28 5 32 53 29 16 -2 17 0 5 8 -19 12 -30 12 -52 -1z"/>
<path d="M3700 6401 c-8 -6 -18 -7 -22 -5 -4 3 -7 -46 -6 -108 1 -62 3 -97 5
-78 4 35 5 36 40 32 45 -6 53 6 53 85 0 51 -3 64 -19 73 -24 12 -32 12 -51 1z
m58 -84 c-3 -56 -5 -62 -26 -65 -36 -5 -52 15 -52 67 0 65 23 90 63 69 15 -8
17 -20 15 -71z"/>
<path d="M3825 6400 c-18 -9 -18 -9 5 -8 53 3 60 -1 60 -32 0 -27 -3 -30 -33
-30 -38 0 -57 -15 -57 -45 0 -27 18 -45 46 -45 49 0 54 8 54 81 0 57 -3 70
-19 79 -23 12 -29 12 -56 0z m63 -112 c-3 -29 -7 -33 -34 -36 -34 -3 -49 16
-39 49 5 14 16 19 41 19 34 0 35 -1 32 -32z"/>
<path d="M3966 6397 c-14 -10 -16 -25 -14 -82 l3 -70 40 -2 40 -1 -35 6 c-35
7 -35 7 -38 67 -3 66 10 87 51 78 18 -4 19 -3 7 6 -20 14 -32 14 -54 -2z"/>
<path d="M4083 6400 c-21 -8 -23 -16 -23 -73 0 -73 10 -88 60 -86 l35 2 -40 6
c-36 5 -40 9 -43 39 -3 32 -3 32 42 32 44 0 46 1 46 28 0 15 -4 32 -8 38 -11
17 -44 24 -69 14z m48 -10 c11 -6 19 -21 19 -35 0 -22 -4 -25 -40 -25 -36 0
-40 3 -40 25 0 13 8 29 18 34 21 13 20 13 43 1z"/>
<path d="M4222 6403 c-41 -16 -32 -83 12 -83 30 0 49 -23 41 -50 -5 -15 -16
-20 -43 -22 l-37 -1 35 -4 c34 -5 60 14 60 43 0 21 -30 44 -56 44 -20 0 -24 5
-24 30 0 30 7 35 55 31 17 -2 17 0 5 8 -16 11 -28 12 -48 4z"/>
<path d="M2991 6397 c-2 -15 32 -142 40 -151 4 -5 11 4 14 20 4 16 12 49 19
74 l12 45 13 -68 c7 -37 17 -70 22 -72 4 -3 13 14 19 37 6 24 15 58 20 77 5
19 8 37 5 39 -2 2 -9 -16 -15 -39 -25 -99 -26 -99 -40 -39 -7 30 -16 62 -21
70 -9 18 -11 14 -32 -70 l-14 -55 -12 45 c-15 57 -29 97 -30 87z"/>
<path d="M3290 5534 c-340 -32 -640 -132 -910 -303 -162 -102 -344 -264 -463
-411 -270 -335 -431 -763 -438 -1170 -3 -166 -4 -162 39 -94 72 112 313 344
356 344 8 0 23 15 32 33 28 54 30 56 72 42 20 -7 70 -16 109 -20 86 -8 94 0
74 74 -11 41 -10 47 6 58 10 8 34 13 53 11 46 -2 56 5 63 41 7 33 48 66 72 57
18 -7 20 -72 4 -131 -14 -50 -102 -140 -147 -150 -29 -6 -34 -13 -52 -72 -11
-36 -18 -68 -16 -72 3 -4 28 -18 56 -31 46 -22 52 -28 65 -74 18 -64 41 -262
55 -476 6 -91 22 -230 35 -310 50 -303 106 -626 116 -662 14 -54 14 -159 -1
-168 -40 -25 -98 49 -127 163 -12 46 -24 72 -35 74 -9 3 -21 23 -27 49 l-11
44 -334 0 c-309 0 -334 -1 -341 -17 -3 -10 -11 -83 -15 -163 -5 -80 -21 -222
-34 -317 -22 -156 -29 -180 -65 -255 -77 -157 -97 -305 -72 -551 5 -51 12
-133 16 -184 l6 -92 -43 -5 c-24 -3 -95 -10 -158 -16 -103 -10 -285 -32 -365
-45 l-31 -5 0 67 c0 84 -25 143 -83 201 l-41 41 25 47 c28 53 30 75 14 140
-12 45 -54 100 -94 122 -20 10 -20 11 2 34 44 47 54 107 27 164 -49 103 -209
96 -249 -10 -23 -59 -13 -110 26 -147 l30 -28 -34 -23 c-57 -37 -97 -111 -97
-178 0 -14 9 -44 21 -65 21 -41 33 -89 20 -80 -10 6 -73 -62 -92 -99 -9 -19
-14 -60 -14 -116 0 -80 2 -91 32 -138 l32 -52 -55 -32 c-55 -30 -94 -76 -94
-110 0 -57 125 -128 320 -183 611 -170 1948 -215 2870 -95 655 86 958 236 749
372 -50 32 -50 32 -42 73 27 136 -28 256 -144 315 -38 20 -63 25 -123 25 -65
0 -83 -4 -130 -30 -64 -35 -116 -99 -132 -162 l-11 -45 -51 5 c-28 3 -130 15
-226 26 -212 25 -594 51 -747 51 -66 0 -114 4 -118 10 -4 6 -13 52 -21 103 -7
51 -25 164 -39 252 -25 154 -25 171 -19 445 4 157 9 290 13 296 4 7 48 -12
121 -52 214 -118 438 -194 681 -230 171 -25 489 -15 656 20 518 110 953 402
1243 834 152 227 258 500 306 787 21 125 24 432 6 560 -31 213 -98 426 -197
621 -268 530 -748 899 -1335 1028 -177 38 -394 54 -550 40z m-1294 -3944 c19
-96 44 -233 55 -305 29 -187 47 -268 80 -359 16 -44 29 -83 29 -87 0 -9 -119
-17 -364 -23 l-199 -5 6 53 c3 33 1 58 -6 65 -8 8 -6 16 6 29 9 10 17 32 17
48 0 16 9 103 21 194 20 155 23 168 55 216 19 28 34 62 34 77 0 14 4 36 9 49
34 87 56 140 77 186 13 29 24 54 24 57 0 2 16 39 36 82 l36 78 25 -90 c13 -49
40 -169 59 -265z"/>
</g>
</svg>
